<svg width="87" height="108" viewBox="0 0 87 108" fill="none" xmlns="http://www.w3.org/2000/svg">
<path d="M64.034 0.649414C64.2823 0.649414 64.5307 0.649414 64.7931 0.649414C65.4023 8.17511 62.5298 13.7983 59.0387 17.8704C55.6133 21.9144 50.9226 25.8366 43.336 25.2415C42.8299 17.8236 45.7071 12.6174 49.1935 8.55467C52.4268 4.76839 58.3546 1.39917 64.034 0.649414Z" fill="white"/>
<path d="M87 78.9803C87 79.0553 87 79.1209 87 79.1912C84.8679 85.6485 81.8267 91.1826 78.1154 96.3185C74.7274 100.981 70.5756 107.256 63.1624 107.256C56.7567 107.256 52.5018 103.137 45.9367 103.024C38.9921 102.912 35.173 106.468 28.8235 107.363C28.0972 107.363 27.3708 107.363 26.6586 107.363C21.996 106.689 18.2332 102.996 15.4919 99.669C7.40854 89.8378 1.16212 77.1387 0 60.8877C0 59.2945 0 57.706 0 56.1127C0.492028 44.4821 6.14333 35.0258 13.655 30.4429C17.6193 28.0062 23.0691 25.9303 29.1375 26.8581C31.7382 27.2611 34.3951 28.1514 36.7241 29.0324C38.9312 29.8806 41.6912 31.3848 44.306 31.3051C46.0773 31.2536 47.8392 30.3304 49.6246 29.6791C54.8541 27.7906 59.9806 25.6257 66.7378 26.6426C74.8586 27.8703 80.6224 31.4785 84.1837 37.0454C77.3141 41.4175 71.883 48.006 72.8108 59.257C73.6356 69.4772 79.5774 75.4565 87 78.9803Z" fill="white"/>
</svg>
