<svg width="32" height="32" viewBox="0 0 32 32" fill="none" xmlns="http://www.w3.org/2000/svg">
<rect width="32" height="32" rx="16" fill="#ED723D"/>
<g clip-path="url(#clip0_3277_26315)">
<path fill-rule="evenodd" clip-rule="evenodd" d="M11.0001 11.3333C10.7349 11.3333 10.4805 11.4387 10.293 11.6262C10.1054 11.8138 10.0001 12.0681 10.0001 12.3333C10.0001 12.5985 10.1054 12.8529 10.293 13.0404C10.4805 13.228 10.7349 13.3333 11.0001 13.3333H12.0001C12.3683 13.3333 12.6667 13.6318 12.6667 14C12.6667 14.3682 12.3683 14.6667 12.0001 14.6667H11.0001C10.3812 14.6667 9.78775 14.4208 9.35017 13.9832C8.91258 13.5457 8.66675 12.9522 8.66675 12.3333C8.66675 11.7145 8.91258 11.121 9.35017 10.6834C9.78775 10.2458 10.3812 10 11.0001 10H12.0001C12.3683 10 12.6667 10.2985 12.6667 10.6667C12.6667 11.0349 12.3683 11.3333 12.0001 11.3333H11.0001Z" fill="white"/>
<path fill-rule="evenodd" clip-rule="evenodd" d="M19.3333 10.6667C19.3333 10.2985 19.6317 10 19.9999 10H20.9999C21.6188 10 22.2122 10.2458 22.6498 10.6834C23.0874 11.121 23.3333 11.7145 23.3333 12.3333C23.3333 12.9522 23.0874 13.5457 22.6498 13.9832C22.2122 14.4208 21.6188 14.6667 20.9999 14.6667H19.9999C19.6317 14.6667 19.3333 14.3682 19.3333 14C19.3333 13.6318 19.6317 13.3333 19.9999 13.3333H20.9999C21.2651 13.3333 21.5195 13.228 21.707 13.0404C21.8946 12.8529 21.9999 12.5985 21.9999 12.3333C21.9999 12.0681 21.8946 11.8138 21.707 11.6262C21.5195 11.4387 21.2651 11.3333 20.9999 11.3333H19.9999C19.6317 11.3333 19.3333 11.0349 19.3333 10.6667Z" fill="white"/>
<path fill-rule="evenodd" clip-rule="evenodd" d="M10 22.6667C10 22.2985 10.2985 22 10.6667 22H21.3333C21.7015 22 22 22.2985 22 22.6667C22 23.0349 21.7015 23.3333 21.3333 23.3333H10.6667C10.2985 23.3333 10 23.0349 10 22.6667Z" fill="white"/>
<path fill-rule="evenodd" clip-rule="evenodd" d="M14.6667 17.1067C15.0349 17.1067 15.3333 17.4052 15.3333 17.7734V19.3334C15.3333 20.1002 14.7075 20.5576 14.2986 20.7457L14.2974 20.7462C13.8127 20.9681 13.3333 21.6745 13.3333 22.6667C13.3333 23.0349 13.0349 23.3334 12.6667 23.3334C12.2985 23.3334 12 23.0349 12 22.6667C12 21.3125 12.6537 20.0325 13.7419 19.5341C13.8434 19.4873 13.9222 19.4283 13.9674 19.3768C13.9897 19.3514 13.9976 19.3357 14 19.3292V17.7734C14 17.4052 14.2985 17.1067 14.6667 17.1067ZM14.0009 19.3257C14.001 19.3257 14.0009 19.3266 14.0003 19.3284C14.0005 19.3266 14.0008 19.3257 14.0009 19.3257Z" fill="white"/>
<path fill-rule="evenodd" clip-rule="evenodd" d="M17.3334 17.1067C17.7016 17.1067 18.0001 17.4052 18.0001 17.7734V19.3292C18.0025 19.3357 18.0104 19.3514 18.0327 19.3768C18.078 19.4284 18.1569 19.4875 18.2587 19.5344L17.9801 20.14L18.2575 19.5338C19.3461 20.032 20.0001 21.3122 20.0001 22.6667C20.0001 23.0349 19.7016 23.3334 19.3334 23.3334C18.9652 23.3334 18.6667 23.0349 18.6667 22.6667C18.6667 21.6745 18.1874 20.9681 17.7027 20.7462L17.7015 20.7457C17.2926 20.5576 16.6667 20.1002 16.6667 19.3334V17.7734C16.6667 17.4052 16.9652 17.1067 17.3334 17.1067ZM17.9991 19.3257C17.9992 19.3257 17.9995 19.3266 17.9998 19.3284C17.9992 19.3266 17.9991 19.3257 17.9991 19.3257Z" fill="white"/>
<path fill-rule="evenodd" clip-rule="evenodd" d="M11.3333 9.33335C11.3333 8.96516 11.6317 8.66669 11.9999 8.66669H19.9999C20.3681 8.66669 20.6666 8.96516 20.6666 9.33335V14C20.6666 15.2377 20.1749 16.4247 19.2998 17.2999C18.4246 18.175 17.2376 18.6667 15.9999 18.6667C14.7622 18.6667 13.5753 18.175 12.7001 17.2999C11.8249 16.4247 11.3333 15.2377 11.3333 14V9.33335ZM12.6666 10V14C12.6666 14.8841 13.0178 15.7319 13.6429 16.357C14.268 16.9822 15.1159 17.3334 15.9999 17.3334C16.884 17.3334 17.7318 16.9822 18.3569 16.357C18.9821 15.7319 19.3333 14.8841 19.3333 14V10H12.6666Z" fill="white"/>
</g>
<defs>
<clipPath id="clip0_3277_26315">
<rect width="16" height="16" fill="white" transform="translate(8 8)"/>
</clipPath>
</defs>
</svg>
