<svg width="32" height="32" viewBox="0 0 32 32" fill="none" xmlns="http://www.w3.org/2000/svg">
<rect width="32" height="32" rx="16" fill="#E93DED"/>
<path fill-rule="evenodd" clip-rule="evenodd" d="M10.4241 17.7574C11.5493 16.6321 13.0754 16 14.6667 16C16.258 16 17.7842 16.6321 18.9094 17.7574C20.0346 18.8826 20.6667 20.4087 20.6667 22C20.6667 22.3682 20.3683 22.6667 20.0001 22.6667C19.6319 22.6667 19.3334 22.3682 19.3334 22C19.3334 20.7623 18.8418 19.5753 17.9666 18.7002C17.0914 17.825 15.9044 17.3333 14.6667 17.3333C13.4291 17.3333 12.2421 17.825 11.3669 18.7002C10.4917 19.5753 10.0001 20.7623 10.0001 22C10.0001 22.3682 9.7016 22.6667 9.33341 22.6667C8.96522 22.6667 8.66675 22.3682 8.66675 22C8.66675 20.4087 9.29889 18.8826 10.4241 17.7574Z" fill="white"/>
<path fill-rule="evenodd" clip-rule="evenodd" d="M14.6667 10.6667C13.194 10.6667 12.0001 11.8606 12.0001 13.3333C12.0001 14.8061 13.194 16 14.6667 16C16.1395 16 17.3334 14.8061 17.3334 13.3333C17.3334 11.8606 16.1395 10.6667 14.6667 10.6667ZM10.6667 13.3333C10.6667 11.1242 12.4576 9.33334 14.6667 9.33334C16.8759 9.33334 18.6667 11.1242 18.6667 13.3333C18.6667 15.5425 16.8759 17.3333 14.6667 17.3333C12.4576 17.3333 10.6667 15.5425 10.6667 13.3333Z" fill="white"/>
<path fill-rule="evenodd" clip-rule="evenodd" d="M19.1266 10.1266C19.3144 9.8099 19.7234 9.70544 20.0401 9.89327C20.6056 10.2287 21.0797 10.6983 21.4204 11.2606C21.7612 11.8229 21.9581 12.4606 21.9937 13.1171C22.0293 13.7736 21.9025 14.4288 21.6245 15.0247C21.462 15.3731 21.2507 15.695 20.998 15.9811C22.2457 17.1965 23.3333 19.1856 23.3333 21.3333C23.3333 21.7015 23.0348 22 22.6666 22C22.2985 22 22 21.7015 22 21.3333C22 19.3261 20.7907 17.4263 19.6 16.5333C19.4321 16.4074 19.3333 16.2099 19.3333 16.0001C19.3333 15.7902 19.4321 15.5927 19.5999 15.4667C19.9505 15.2037 20.2309 14.8582 20.4162 14.461C20.6015 14.0638 20.686 13.627 20.6623 13.1893C20.6386 12.7516 20.5073 12.3265 20.2801 11.9516C20.053 11.5768 19.7369 11.2637 19.3599 11.0401C19.0432 10.8522 18.9388 10.4433 19.1266 10.1266Z" fill="white"/>
</svg>
