<svg width="32" height="32" viewBox="0 0 32 32" fill="none" xmlns="http://www.w3.org/2000/svg">
<rect width="32" height="32" rx="16" fill="#75ED3D"/>
<path fill-rule="evenodd" clip-rule="evenodd" d="M12 12.6666C11.8232 12.6666 11.6536 12.7369 11.5286 12.8619C11.4036 12.9869 11.3333 13.1565 11.3333 13.3333V20C11.3333 20.1768 11.4036 20.3464 11.5286 20.4714C11.6536 20.5964 11.8232 20.6666 12 20.6666C12.3682 20.6666 12.6667 20.9651 12.6667 21.3333C12.6667 21.7015 12.3682 22 12 22C11.4696 22 10.9609 21.7893 10.5858 21.4142C10.2107 21.0391 10 20.5304 10 20V13.3333C10 12.8029 10.2107 12.2942 10.5858 11.9191C10.9609 11.544 11.4696 11.3333 12 11.3333H20C20.5304 11.3333 21.0391 11.544 21.4142 11.9191C21.7893 12.2942 22 12.8029 22 13.3333V20C22 20.5304 21.7893 21.0391 21.4142 21.4142C21.0391 21.7893 20.5304 22 20 22C19.6318 22 19.3333 21.7015 19.3333 21.3333C19.3333 20.9651 19.6318 20.6666 20 20.6666C20.1768 20.6666 20.3464 20.5964 20.4714 20.4714C20.5964 20.3464 20.6667 20.1768 20.6667 20V13.3333C20.6667 13.1565 20.5964 12.9869 20.4714 12.8619C20.3464 12.7369 20.1768 12.6666 20 12.6666H12Z" fill="white"/>
<path fill-rule="evenodd" clip-rule="evenodd" d="M14.6667 10C14.4899 10 14.3204 10.0703 14.1953 10.1953C14.0703 10.3203 14.0001 10.4899 14.0001 10.6667V20C14.0001 20.3682 13.7016 20.6667 13.3334 20.6667C12.9652 20.6667 12.6667 20.3682 12.6667 20V10.6667C12.6667 10.1363 12.8775 9.62755 13.2525 9.25247C13.6276 8.8774 14.1363 8.66669 14.6667 8.66669H17.3334C17.8638 8.66669 18.3726 8.8774 18.7476 9.25247C19.1227 9.62755 19.3334 10.1363 19.3334 10.6667V20C19.3334 20.3682 19.0349 20.6667 18.6667 20.6667C18.2986 20.6667 18.0001 20.3682 18.0001 20V10.6667C18.0001 10.4899 17.9298 10.3203 17.8048 10.1953C17.6798 10.0703 17.5102 10 17.3334 10H14.6667Z" fill="white"/>
<path fill-rule="evenodd" clip-rule="evenodd" d="M14 21.3334C14 20.9652 14.2985 20.6667 14.6667 20.6667H17.3333C17.7015 20.6667 18 20.9652 18 21.3334C18 21.7015 17.7015 22 17.3333 22H14.6667C14.2985 22 14 21.7015 14 21.3334Z" fill="white"/>
<path fill-rule="evenodd" clip-rule="evenodd" d="M18.6667 20.6666C18.2986 20.6666 18.0001 20.9651 18.0001 21.3333C18.0001 21.7015 18.2986 22 18.6667 22C19.0349 22 19.3334 21.7015 19.3334 21.3333C19.3334 20.9651 19.0349 20.6666 18.6667 20.6666ZM16.6667 21.3333C16.6667 20.2287 17.5622 19.3333 18.6667 19.3333C19.7713 19.3333 20.6667 20.2287 20.6667 21.3333C20.6667 22.4379 19.7713 23.3333 18.6667 23.3333C17.5622 23.3333 16.6667 22.4379 16.6667 21.3333Z" fill="white"/>
<path fill-rule="evenodd" clip-rule="evenodd" d="M13.3333 20.6666C12.9651 20.6666 12.6666 20.9651 12.6666 21.3333C12.6666 21.7015 12.9651 22 13.3333 22C13.7014 22 13.9999 21.7015 13.9999 21.3333C13.9999 20.9651 13.7014 20.6666 13.3333 20.6666ZM11.3333 21.3333C11.3333 20.2287 12.2287 19.3333 13.3333 19.3333C14.4378 19.3333 15.3333 20.2287 15.3333 21.3333C15.3333 22.4379 14.4378 23.3333 13.3333 23.3333C12.2287 23.3333 11.3333 22.4379 11.3333 21.3333Z" fill="white"/>
</svg>
