<svg width="32" height="32" viewBox="0 0 32 32" fill="none" xmlns="http://www.w3.org/2000/svg">
<rect width="32" height="32" rx="16" fill="#ED3D52"/>
<g clip-path="url(#clip0_3277_26288)">
<path fill-rule="evenodd" clip-rule="evenodd" d="M15.7018 8.73704C15.8894 8.6432 16.1104 8.6432 16.298 8.73704L21.6314 11.4037C21.9607 11.5684 22.0942 11.9688 21.9295 12.2981C21.7649 12.6275 21.3644 12.7609 21.0351 12.5963L15.9999 10.0787L10.9647 12.5963C10.6354 12.7609 10.2349 12.6275 10.0703 12.2981C9.90562 11.9688 10.0391 11.5684 10.3684 11.4037L15.7018 8.73704Z" fill="white"/>
<path fill-rule="evenodd" clip-rule="evenodd" d="M12.5964 14.3685C12.761 14.6978 12.6275 15.0983 12.2982 15.2629L10.0001 16.412V21.3333C10.0001 21.5101 10.0703 21.6797 10.1953 21.8047C10.3204 21.9298 10.4899 22 10.6667 22H21.3334C21.5102 22 21.6798 21.9298 21.8048 21.8047C21.9298 21.6797 22.0001 21.5101 22.0001 21.3333V16.412L19.7019 15.2629C19.3726 15.0983 19.2391 14.6978 19.4038 14.3685C19.5685 14.0392 19.9689 13.9057 20.2982 14.0704L22.9649 15.4037C23.1907 15.5166 23.3334 15.7475 23.3334 16V21.3333C23.3334 21.8638 23.1227 22.3725 22.7476 22.7475C22.3726 23.1226 21.8638 23.3333 21.3334 23.3333H10.6667C10.1363 23.3333 9.62761 23.1226 9.25253 22.7475C8.87746 22.3725 8.66675 21.8638 8.66675 21.3333V16C8.66675 15.7475 8.80942 15.5166 9.03527 15.4037L11.7019 14.0704C12.0313 13.9057 12.4317 14.0392 12.5964 14.3685Z" fill="white"/>
<path fill-rule="evenodd" clip-rule="evenodd" d="M14.5858 18.5858C14.9609 18.2107 15.4696 18 16 18C16.5304 18 17.0391 18.2107 17.4142 18.5858C17.7893 18.9609 18 19.4696 18 20V22.6667C18 23.0349 17.7015 23.3333 17.3333 23.3333C16.9651 23.3333 16.6667 23.0349 16.6667 22.6667V20C16.6667 19.8232 16.5964 19.6536 16.4714 19.5286C16.3464 19.4036 16.1768 19.3333 16 19.3333C15.8232 19.3333 15.6536 19.4036 15.5286 19.5286C15.4036 19.6536 15.3333 19.8232 15.3333 20V22.6667C15.3333 23.0349 15.0349 23.3333 14.6667 23.3333C14.2985 23.3333 14 23.0349 14 22.6667V20C14 19.4696 14.2107 18.9609 14.5858 18.5858Z" fill="white"/>
<path fill-rule="evenodd" clip-rule="evenodd" d="M19.9999 10.6667C20.3681 10.6667 20.6666 10.9651 20.6666 11.3333V22.6667C20.6666 23.0348 20.3681 23.3333 19.9999 23.3333C19.6317 23.3333 19.3333 23.0348 19.3333 22.6667V11.3333C19.3333 10.9651 19.6317 10.6667 19.9999 10.6667Z" fill="white"/>
<path fill-rule="evenodd" clip-rule="evenodd" d="M11.9999 10.6667C12.3681 10.6667 12.6666 10.9651 12.6666 11.3333V22.6667C12.6666 23.0348 12.3681 23.3333 11.9999 23.3333C11.6317 23.3333 11.3333 23.0348 11.3333 22.6667V11.3333C11.3333 10.9651 11.6317 10.6667 11.9999 10.6667Z" fill="white"/>
<path fill-rule="evenodd" clip-rule="evenodd" d="M16 13.3333C15.6318 13.3333 15.3333 13.6318 15.3333 14C15.3333 14.3682 15.6318 14.6667 16 14.6667C16.3682 14.6667 16.6667 14.3682 16.6667 14C16.6667 13.6318 16.3682 13.3333 16 13.3333ZM14 14C14 12.8954 14.8954 12 16 12C17.1046 12 18 12.8954 18 14C18 15.1046 17.1046 16 16 16C14.8954 16 14 15.1046 14 14Z" fill="white"/>
</g>
<defs>
<clipPath id="clip0_3277_26288">
<rect width="16" height="16" fill="white" transform="translate(8 8)"/>
</clipPath>
</defs>
</svg>
