<svg width="32" height="32" viewBox="0 0 32 32" fill="none" xmlns="http://www.w3.org/2000/svg">
<rect width="32" height="32" rx="16" fill="#753DED"/>
<path fill-rule="evenodd" clip-rule="evenodd" d="M16 10.6667C14.5272 10.6667 13.3333 11.8606 13.3333 13.3333C13.3333 14.8061 14.5272 16 16 16C17.4728 16 18.6667 14.8061 18.6667 13.3333C18.6667 11.8606 17.4728 10.6667 16 10.6667ZM12 13.3333C12 11.1242 13.7909 9.33334 16 9.33334C18.2091 9.33334 20 11.1242 20 13.3333C20 15.5425 18.2091 17.3333 16 17.3333C13.7909 17.3333 12 15.5425 12 13.3333Z" fill="white"/>
<path fill-rule="evenodd" clip-rule="evenodd" d="M11.7574 17.7574C12.8826 16.6321 14.4087 16 16 16C17.5913 16 19.1174 16.6321 20.2426 17.7574C21.3679 18.8826 22 20.4087 22 22C22 22.3682 21.7015 22.6667 21.3333 22.6667C20.9651 22.6667 20.6667 22.3682 20.6667 22C20.6667 20.7623 20.175 19.5753 19.2998 18.7002C18.4247 17.825 17.2377 17.3333 16 17.3333C14.7623 17.3333 13.5753 17.825 12.7002 18.7002C11.825 19.5753 11.3333 20.7623 11.3333 22C11.3333 22.3682 11.0349 22.6667 10.6667 22.6667C10.2985 22.6667 10 22.3682 10 22C10 20.4087 10.6321 18.8826 11.7574 17.7574Z" fill="white"/>
</svg>
