<svg width="32" height="32" viewBox="0 0 32 32" fill="none" xmlns="http://www.w3.org/2000/svg">
<rect width="32" height="32" rx="16" fill="#3DD8ED"/>
<g clip-path="url(#clip0_3277_26299)">
<path fill-rule="evenodd" clip-rule="evenodd" d="M15.9999 8.66666C16.3681 8.66666 16.6666 8.96513 16.6666 9.33332V10.6667C16.6666 11.0348 16.3681 11.3333 15.9999 11.3333C15.6317 11.3333 15.3333 11.0348 15.3333 10.6667V9.33332C15.3333 8.96513 15.6317 8.66666 15.9999 8.66666Z" fill="white"/>
<path fill-rule="evenodd" clip-rule="evenodd" d="M10.8154 10.8153C11.0757 10.5549 11.4978 10.5549 11.7582 10.8153L12.6982 11.7553C12.9585 12.0156 12.9585 12.4377 12.6982 12.6981C12.4378 12.9584 12.0157 12.9584 11.7554 12.6981L10.8154 11.7581C10.555 11.4977 10.555 11.0756 10.8154 10.8153Z" fill="white"/>
<path fill-rule="evenodd" clip-rule="evenodd" d="M20.6667 16C20.6667 15.6318 20.9652 15.3333 21.3334 15.3333H22.6667C23.0349 15.3333 23.3334 15.6318 23.3334 16C23.3334 16.3682 23.0349 16.6667 22.6667 16.6667H21.3334C20.9652 16.6667 20.6667 16.3682 20.6667 16Z" fill="white"/>
<path fill-rule="evenodd" clip-rule="evenodd" d="M21.1848 10.8153C21.4451 11.0756 21.4451 11.4977 21.1848 11.7581L20.2448 12.6981C19.9844 12.9584 19.5623 12.9584 19.302 12.6981C19.0416 12.4377 19.0416 12.0156 19.302 11.7553L20.242 10.8153C20.5023 10.5549 20.9244 10.5549 21.1848 10.8153Z" fill="white"/>
<path fill-rule="evenodd" clip-rule="evenodd" d="M14.3517 13.1019C14.8989 12.7905 15.5232 12.6404 16.1522 12.6691C16.7812 12.6978 17.3892 12.904 17.9059 13.264C18.4225 13.6239 18.8266 14.1228 19.0714 14.703C19.3163 15.2831 19.3918 15.9207 19.2892 16.5419C19.2292 16.9052 18.8861 17.1511 18.5228 17.0911C18.1596 17.0311 17.9137 16.688 17.9737 16.3247C18.0352 15.952 17.9899 15.5694 17.843 15.2214C17.6961 14.8733 17.4537 14.574 17.1437 14.358C16.8337 14.142 16.4689 14.0183 16.0915 14.0011C15.7141 13.9839 15.3395 14.0739 15.0112 14.2607C14.6912 14.4429 14.2841 14.3311 14.102 14.0111C13.9199 13.6911 14.0317 13.284 14.3517 13.1019Z" fill="white"/>
<path fill-rule="evenodd" clip-rule="evenodd" d="M13.3056 16.7442C12.8157 16.6234 12.3016 16.6441 11.823 16.8038C11.3444 16.9636 10.921 17.2558 10.6018 17.6466C10.2827 18.0374 10.0809 18.5107 10.0201 19.0115C9.95917 19.5124 10.0416 20.0203 10.2579 20.4761C10.4741 20.932 10.8152 21.3172 11.2416 21.5869C11.6679 21.8566 12.1621 21.9999 12.6666 22C12.6665 22 12.6666 22 12.6666 22H16.6666C17.0202 22 17.3593 21.8595 17.6094 21.6095C17.8594 21.3594 17.9999 21.0203 17.9999 20.6667C17.9999 20.3131 17.8594 19.9739 17.6094 19.7239C17.3593 19.4738 17.0202 19.3333 16.6666 19.3333H15.9332C15.6164 19.3333 15.3434 19.1104 15.28 18.8C15.1791 18.3057 14.94 17.8501 14.5905 17.4862C14.241 17.1223 13.7955 16.865 13.3056 16.7442ZM11.4009 15.5391C12.1188 15.2995 12.89 15.2685 13.6248 15.4496C14.3596 15.6308 15.0279 16.0167 15.5522 16.5626C15.948 16.9747 16.2494 17.4652 16.4385 18H16.6666C17.3738 18 18.0521 18.281 18.5522 18.7811C19.0523 19.2812 19.3332 19.9594 19.3332 20.6667C19.3332 21.3739 19.0523 22.0522 18.5522 22.5523C18.0521 23.0524 17.3738 23.3333 16.6666 23.3333H12.6666C11.9097 23.3332 11.1683 23.1183 10.5288 22.7137C9.88917 22.3091 9.3775 21.7313 9.05316 21.0475C8.72883 20.3637 8.60514 19.6019 8.69647 18.8507C8.7878 18.0994 9.09039 17.3894 9.56911 16.8032C10.0478 16.217 10.683 15.7787 11.4009 15.5391Z" fill="white"/>
</g>
<defs>
<clipPath id="clip0_3277_26299">
<rect width="16" height="16" fill="white" transform="translate(8 8)"/>
</clipPath>
</defs>
</svg>
