<svg width="32" height="32" viewBox="0 0 32 32" fill="none" xmlns="http://www.w3.org/2000/svg">
<rect width="32" height="32" rx="16" fill="#3D6EED"/>
<path fill-rule="evenodd" clip-rule="evenodd" d="M10.6667 13.3333C10.2986 13.3333 10.0001 13.6318 10.0001 14V20.6667C10.0001 21.0349 10.2986 21.3333 10.6667 21.3333H21.3334C21.7016 21.3333 22.0001 21.0349 22.0001 20.6667V14C22.0001 13.6318 21.7016 13.3333 21.3334 13.3333H10.6667ZM8.66675 14C8.66675 12.8954 9.56218 12 10.6667 12H21.3334C22.438 12 23.3334 12.8954 23.3334 14V20.6667C23.3334 21.7712 22.438 22.6667 21.3334 22.6667H10.6667C9.56218 22.6667 8.66675 21.7712 8.66675 20.6667V14Z" fill="white"/>
<path fill-rule="evenodd" clip-rule="evenodd" d="M13.2525 9.91913C13.6276 9.54406 14.1363 9.33334 14.6667 9.33334H17.3334C17.8638 9.33334 18.3726 9.54406 18.7476 9.91913C19.1227 10.2942 19.3334 10.8029 19.3334 11.3333V22C19.3334 22.3682 19.0349 22.6667 18.6667 22.6667C18.2986 22.6667 18.0001 22.3682 18.0001 22V11.3333C18.0001 11.1565 17.9298 10.987 17.8048 10.8619C17.6798 10.7369 17.5102 10.6667 17.3334 10.6667H14.6667C14.4899 10.6667 14.3204 10.7369 14.1953 10.8619C14.0703 10.987 14.0001 11.1565 14.0001 11.3333V22C14.0001 22.3682 13.7016 22.6667 13.3334 22.6667C12.9652 22.6667 12.6667 22.3682 12.6667 22V11.3333C12.6667 10.8029 12.8775 10.2942 13.2525 9.91913Z" fill="white"/>
</svg>
