<svg width="32" height="32" viewBox="0 0 32 32" fill="none" xmlns="http://www.w3.org/2000/svg">
<rect width="32" height="32" rx="16" fill="#E6B70F"/>
<path fill-rule="evenodd" clip-rule="evenodd" d="M16.0001 8.66669C16.2538 8.66669 16.4856 8.81074 16.5979 9.03827L18.5029 12.8977L22.7632 13.5204C23.0142 13.5571 23.2227 13.7331 23.3009 13.9744C23.3792 14.2157 23.3137 14.4806 23.1319 14.6576L20.0498 17.6596L20.7772 21.9007C20.8201 22.1508 20.7172 22.4036 20.5119 22.5527C20.3066 22.7019 20.0344 22.7215 19.8098 22.6034L16.0001 20.5999L12.1904 22.6034C11.9658 22.7215 11.6936 22.7019 11.4883 22.5527C11.283 22.4036 11.1801 22.1508 11.223 21.9007L11.9504 17.6596L8.86828 14.6576C8.68653 14.4806 8.62102 14.2157 8.69927 13.9744C8.77752 13.7331 8.98598 13.5571 9.23702 13.5204L13.4973 12.8977L15.4023 9.03827C15.5146 8.81074 15.7464 8.66669 16.0001 8.66669ZM16.0001 10.8395L14.5379 13.8018C14.4409 13.9983 14.2534 14.1346 14.0365 14.1663L10.7657 14.6444L13.1319 16.9491C13.2892 17.1023 13.3609 17.323 13.3238 17.5394L12.7656 20.7945L15.6898 19.2566C15.8841 19.1545 16.1161 19.1545 16.3104 19.2566L19.2346 20.7945L18.6764 17.5394C18.6393 17.323 18.711 17.1023 18.8683 16.9491L21.2345 14.6444L17.9637 14.1663C17.7468 14.1346 17.5593 13.9983 17.4623 13.8018L16.0001 10.8395Z" fill="white"/>
</svg>
