<svg width="595" height="512" viewBox="0 0 595 512" fill="none" xmlns="http://www.w3.org/2000/svg">
<path d="M189.164 511.693C293.637 511.693 378.328 496.732 378.328 478.275C378.328 459.819 293.637 444.857 189.164 444.857C84.6916 444.857 0 459.819 0 478.275C0 496.732 84.6916 511.693 189.164 511.693Z" fill="#F2F2F2"/>
<path d="M304.134 369.744C406.235 369.744 489.005 286.974 489.005 184.872C489.005 82.77 406.235 0 304.134 0C202.032 0 119.262 82.77 119.262 184.872C119.262 286.974 202.032 369.744 304.134 369.744Z" fill="#D0DEF1"/>
<path opacity="0.05" d="M304.133 337.489C388.422 337.489 456.751 269.16 456.751 184.872C456.751 100.583 388.422 32.2539 304.133 32.2539C219.845 32.2539 151.516 100.583 151.516 184.872C151.516 269.16 219.845 337.489 304.133 337.489Z" fill="#F8FAFC"/>
<path opacity="0.05" d="M304.134 309.954C373.216 309.954 429.218 253.952 429.218 184.871C429.218 115.789 373.216 59.7871 304.134 59.7871C235.053 59.7871 179.051 115.789 179.051 184.871C179.051 253.952 235.053 309.954 304.134 309.954Z" fill="#F8FAFC"/>
<path opacity="0.05" d="M304.134 274.555C353.664 274.555 393.816 234.402 393.816 184.872C393.816 135.342 353.664 95.1895 304.134 95.1895C254.603 95.1895 214.451 135.342 214.451 184.872C214.451 234.402 254.603 274.555 304.134 274.555Z" fill="#F8FAFC"/>
<path d="M579.458 207.127H558.418L554.021 122.883H583.855L579.458 207.127ZM553.676 236.617C553.676 231.213 555.142 227.419 558.073 225.235C561.063 223.05 564.655 221.958 568.852 221.958C572.933 221.958 576.44 223.05 579.372 225.235C582.361 227.419 583.855 231.213 583.855 236.617C583.855 241.791 582.361 245.527 579.372 247.827C576.44 250.126 572.933 251.276 568.852 251.276C564.655 251.276 561.063 250.126 558.073 247.827C555.142 245.527 553.676 241.791 553.676 236.617Z" fill="#3D88ED"/>
<path d="M540.57 222.821H525.394V248.947H499.353V222.821H445.547V204.282L500.819 122.883H525.394V202.126H540.57V222.821ZM499.353 202.126V180.741C499.353 178.73 499.382 176.344 499.439 173.585C499.554 170.825 499.669 168.066 499.784 165.307C499.899 162.547 500.014 160.104 500.129 157.977C500.301 155.793 500.416 154.27 500.474 153.407H499.784C498.692 155.764 497.542 158.064 496.335 160.306C495.128 162.49 493.719 164.789 492.11 167.204L469.001 202.126H499.353Z" fill="#3D88ED"/>
<path d="M435.976 185.916C435.976 196.091 435.171 205.173 433.562 213.164C432.01 221.154 429.48 227.938 425.974 233.514C422.525 239.09 417.983 243.343 412.35 246.275C406.716 249.207 399.876 250.673 391.828 250.673C381.71 250.673 373.404 248.115 366.908 242.999C360.412 237.825 355.612 230.409 352.508 220.752C349.404 211.037 347.852 199.425 347.852 185.916C347.852 172.292 349.26 160.651 352.077 150.994C354.951 141.279 359.607 133.835 366.046 128.661C372.484 123.487 381.078 120.9 391.828 120.9C401.887 120.9 410.165 123.487 416.661 128.661C423.214 133.777 428.072 141.193 431.234 150.908C434.395 160.565 435.976 172.235 435.976 185.916ZM374.323 185.916C374.323 195.516 374.841 203.535 375.876 209.973C376.968 216.354 378.779 221.154 381.308 224.373C383.837 227.593 387.344 229.202 391.828 229.202C396.254 229.202 399.732 227.621 402.261 224.46C404.848 221.241 406.687 216.441 407.78 210.06C408.872 203.621 409.418 195.573 409.418 185.916C409.418 176.316 408.872 168.297 407.78 161.858C406.687 155.42 404.848 150.591 402.261 147.372C399.732 144.096 396.254 142.457 391.828 142.457C387.344 142.457 383.837 144.096 381.308 147.372C378.779 150.591 376.968 155.42 375.876 161.858C374.841 168.297 374.323 176.316 374.323 185.916Z" fill="#3D88ED"/>
<path d="M338.452 222.821H323.276V248.947H297.236V222.821H243.43V204.282L298.702 122.883H323.276V202.126H338.452V222.821ZM297.236 202.126V180.741C297.236 178.73 297.264 176.344 297.322 173.585C297.437 170.825 297.552 168.066 297.667 165.307C297.782 162.547 297.897 160.104 298.012 157.977C298.184 155.793 298.299 154.27 298.357 153.407H297.667C296.575 155.764 295.425 158.064 294.218 160.306C293.011 162.49 291.602 164.789 289.993 167.204L266.884 202.126H297.236Z" fill="#3D88ED"/>
<path d="M120.9 201.416C120.9 201.416 106.365 242.328 112.825 256.863C119.285 271.398 129.513 285.394 129.513 285.394C129.513 285.394 125.745 204.108 120.9 201.416Z" fill="#D0CDE1"/>
<path opacity="0.1" d="M120.9 201.416C120.9 201.416 106.365 242.328 112.825 256.863C119.285 271.398 129.513 285.394 129.513 285.394C129.513 285.394 125.745 204.108 120.9 201.416Z" fill="black"/>
<path d="M131.128 296.161C131.128 296.161 130.052 306.389 129.514 306.927C128.975 307.465 130.052 308.542 129.514 310.157C128.975 311.772 128.437 313.925 129.514 314.463C130.59 315.002 123.592 362.374 123.592 362.374C123.592 362.374 106.366 384.983 113.364 420.512L115.517 456.58C115.517 456.58 132.205 457.656 132.205 451.735C132.205 451.735 131.128 444.737 131.128 441.507C131.128 438.277 133.82 438.277 132.205 436.662C130.59 435.047 130.59 433.97 130.59 433.97C130.59 433.97 133.282 431.817 132.743 431.279C132.205 430.74 137.588 392.52 137.588 392.52C137.588 392.52 143.51 386.598 143.51 383.368V380.138C143.51 380.138 146.201 373.14 146.201 372.602C146.201 372.064 160.736 339.226 160.736 339.226L166.658 362.912L173.117 396.826C173.117 396.826 176.347 427.511 182.807 439.354C182.807 439.354 194.112 478.113 194.112 477.036C194.112 475.959 212.953 473.268 212.415 468.423C211.876 463.578 201.11 395.75 201.11 395.75L203.802 295.084L131.128 296.161Z" fill="#2F2E41"/>
<path d="M116.592 453.89C116.592 453.89 102.057 482.421 111.747 483.497C121.437 484.574 125.205 484.574 129.511 480.267C131.866 477.913 136.634 474.754 140.472 472.374C142.747 470.986 144.584 468.986 145.774 466.602C146.963 464.218 147.457 461.547 147.198 458.895C146.914 456.261 145.93 454.091 143.508 453.89C137.048 453.351 129.511 447.43 129.511 447.43L116.592 453.89Z" fill="#2F2E41"/>
<path d="M196.803 474.882C196.803 474.882 182.268 503.413 191.958 504.489C201.648 505.566 205.416 505.566 209.722 501.259C212.077 498.905 216.845 495.746 220.683 493.366C222.958 491.979 224.795 489.978 225.985 487.594C227.174 485.21 227.668 482.539 227.409 479.887C227.125 477.254 226.141 475.084 223.719 474.882C217.259 474.343 209.722 468.422 209.722 468.422L196.803 474.882Z" fill="#2F2E41"/>
<path d="M181.441 154.727C193.939 154.727 204.07 144.595 204.07 132.098C204.07 119.6 193.939 109.469 181.441 109.469C168.944 109.469 158.812 119.6 158.812 132.098C158.812 144.595 168.944 154.727 181.441 154.727Z" fill="#FFB8B8"/>
<path d="M166.895 139.533C166.895 139.533 150.732 169.274 149.439 169.274C148.146 169.274 178.533 178.972 178.533 178.972C178.533 178.972 186.938 150.524 188.231 147.938L166.895 139.533Z" fill="#FFB8B8"/>
<path d="M191.689 172.078C191.689 172.078 159.39 154.314 156.16 154.852C152.93 155.39 118.478 185.536 119.016 197.917C119.554 210.299 123.861 230.755 123.861 230.755C123.861 230.755 125.476 287.817 128.706 288.355C131.936 288.893 128.167 298.583 129.244 298.583C130.321 298.583 204.609 298.583 205.147 296.968C205.685 295.353 191.689 172.078 191.689 172.078Z" fill="#D0CDE1"/>
<path d="M209.721 299.93C209.721 299.93 219.95 331.152 211.336 330.076C202.723 328.999 198.955 303.16 198.955 303.16L209.721 299.93Z" fill="#FFB8B8"/>
<path d="M182.269 170.194C182.269 170.194 162.351 174.5 165.581 201.416C168.811 228.332 174.732 255.248 174.732 255.248L194.65 298.852L196.803 306.927L211.338 303.159L200.572 240.714C200.572 240.714 196.803 173.962 191.959 171.809C188.903 170.506 185.581 169.953 182.269 170.194Z" fill="#D0CDE1"/>
<path opacity="0.1" d="M170.156 254.442L194.919 298.584L174.056 252.07L170.156 254.442Z" fill="black"/>
<path d="M203.969 125.434L204.044 123.705L207.484 124.561C207.447 124.006 207.29 123.466 207.024 122.977C206.758 122.489 206.389 122.064 205.942 121.731L209.607 121.527C206.532 117.157 202.604 113.456 198.059 110.648C193.514 107.839 188.447 105.981 183.164 105.185C175.238 104.036 166.413 105.698 160.978 111.58C158.342 114.433 156.685 118.062 155.507 121.763C153.337 128.581 152.895 136.707 157.42 142.249C162.019 147.881 170.053 148.984 177.29 149.681C179.837 149.927 182.506 150.155 184.866 149.167C185.129 146.46 184.782 143.728 183.852 141.173C183.464 140.382 183.279 139.507 183.313 138.627C183.635 136.473 186.507 135.931 188.664 136.222C190.822 136.513 193.416 136.958 194.834 135.306C195.811 134.167 195.753 132.51 195.883 131.016C196.235 126.948 203.932 126.287 203.969 125.434Z" fill="#2F2E41"/>
<path d="M342.765 482.874C357.327 482.874 369.131 471.069 369.131 456.507C369.131 441.945 357.327 430.141 342.765 430.141C328.203 430.141 316.398 441.945 316.398 456.507C316.398 471.069 328.203 482.874 342.765 482.874Z" fill="#3D88ED"/>
<path d="M33.1106 473.676C47.6724 473.676 59.4771 461.872 59.4771 447.31C59.4771 432.748 47.6724 420.943 33.1106 420.943C18.5488 420.943 6.74414 432.748 6.74414 447.31C6.74414 461.872 18.5488 473.676 33.1106 473.676Z" fill="#3D88ED"/>
<path d="M33.1119 431.368C43.6099 431.368 52.1203 422.858 52.1203 412.36C52.1203 401.862 43.6099 393.352 33.1119 393.352C22.6139 393.352 14.1035 401.862 14.1035 412.36C14.1035 422.858 22.6139 431.368 33.1119 431.368Z" fill="#3D88ED"/>
<path d="M33.1109 396.417C40.5611 396.417 46.6007 390.378 46.6007 382.927C46.6007 375.477 40.5611 369.438 33.1109 369.438C25.6607 369.438 19.6211 375.477 19.6211 382.927C19.6211 390.378 25.6607 396.417 33.1109 396.417Z" fill="#3D88ED"/>
</svg>
