<svg width="240" height="176" viewBox="0 0 240 176" fill="none" xmlns="http://www.w3.org/2000/svg">
<g clip-path="url(#clip0_8079_44216)">
<path d="M139.8 31.3595C144.298 31.3595 147.944 27.7043 147.944 23.1954C147.944 18.6864 144.298 15.0312 139.8 15.0312C135.302 15.0312 131.655 18.6864 131.655 23.1954C131.655 27.7043 135.302 31.3595 139.8 31.3595Z" fill="#F2F2F2"/>
<path d="M202.978 152.524C215.084 143.282 220.866 127.75 217.246 112.933C217.156 112.565 217.061 112.198 216.962 111.832C214.562 103.037 208.625 94.6781 199.972 91.8679C192.706 89.5083 184.775 91.3228 177.196 90.3845C162.316 88.5425 150.78 76.4741 142.663 63.8383C134.546 51.2025 128.308 37.0586 117.523 26.6196C99.7443 9.41264 70.7434 5.70798 48.7008 16.9084C26.6583 28.1089 12.6174 52.958 13.2162 77.7233C13.815 102.489 28.4816 126.166 49.7811 138.728C57.6056 143.343 66.6555 146.612 75.6619 145.468C83.4767 144.476 90.5774 140.267 98.3554 139.017C110.584 137.052 122.735 142.595 133.312 149.053C143.889 155.512 154.106 163.167 166.125 166.161C177.796 169.069 192.255 160.712 202.978 152.524Z" fill="#F2F2F2"/>
<path d="M185.585 17.4265C185.32 17.2492 185.052 17.081 184.786 16.9098C177.115 11.9918 168.893 7.99653 160.29 5.00644L158.295 32.5924H145.648V0.979536C144.852 0.814424 144.05 0.658485 143.248 0.511719V32.5924H128.219C119.946 32.5924 112.011 29.2978 106.161 23.4335C100.311 17.5692 97.0244 9.61544 97.0244 1.32203C96.2191 1.49631 95.4199 1.6828 94.6208 1.88155V32.5924H82.3801L80.4798 6.28759C71.6385 9.68654 63.245 14.1563 55.486 19.5975C55.3518 19.6892 55.2176 19.784 55.0864 19.8757C54.4123 20.3496 53.7474 20.8327 53.0854 21.322V126.563H89.1608L88.5233 117.711L85.0155 69.1097H155.656L152.149 117.711L151.511 126.563H187.187V18.4906C186.656 18.1298 186.122 17.7751 185.585 17.4265ZM94.6208 61.0834H84.436L82.554 35.0018H94.6208V61.0834ZM143.248 61.0834H126.142V60.5667C126.142 60.3183 126.093 60.0723 125.998 59.8428C125.903 59.6134 125.764 59.4049 125.589 59.2294C125.414 59.0539 125.205 58.9148 124.976 58.82C124.747 58.7252 124.502 58.6766 124.254 58.677H116.817C116.57 58.677 116.325 58.7258 116.096 58.8207C115.867 58.9156 115.659 59.0548 115.484 59.2303C115.309 59.4058 115.17 59.6141 115.076 59.8434C114.981 60.0727 114.932 60.3185 114.932 60.5667V61.0834H97.0244V35.0018H143.248V61.0834ZM145.648 61.0834V35.0018H158.121L156.239 61.0834H145.648Z" fill="#3F3D56"/>
<path d="M0 133.301C2.64983 136.448 5.51593 139.406 8.57732 142.153L231.423 142.458C234.484 139.712 237.35 136.754 240 133.607L0 133.301Z" fill="#3F3D56"/>
<path d="M151.119 104.957V131.162C151.119 131.496 151.251 131.817 151.487 132.053C151.723 132.289 152.042 132.422 152.375 132.422H191.115C191.448 132.422 191.767 132.289 192.003 132.053C192.238 131.817 192.371 131.496 192.371 131.162V104.957C192.37 104.624 192.238 104.304 192.002 104.068C191.767 103.832 191.448 103.7 191.115 103.699H152.375C152.042 103.7 151.723 103.832 151.488 104.068C151.252 104.304 151.119 104.624 151.119 104.957Z" fill="#3F3D56"/>
<path d="M152.027 105.284V130.84C152.028 131.018 152.098 131.189 152.224 131.315C152.35 131.441 152.521 131.512 152.699 131.513H190.792C190.97 131.512 191.141 131.441 191.267 131.315C191.392 131.189 191.463 131.018 191.464 130.84V105.284C191.464 105.105 191.393 104.934 191.267 104.807C191.141 104.681 190.97 104.61 190.792 104.609H152.699C152.521 104.61 152.35 104.681 152.224 104.807C152.098 104.934 152.027 105.105 152.027 105.284Z" fill="#3D88ED"/>
<path d="M150.308 136.272C150.379 136.361 150.47 136.433 150.572 136.482C150.675 136.531 150.787 136.557 150.901 136.556H192.382C192.496 136.556 192.608 136.53 192.71 136.481C192.812 136.432 192.903 136.361 192.974 136.273C193.045 136.185 193.096 136.081 193.123 135.971C193.15 135.86 193.152 135.745 193.128 135.634L192.484 132.568C192.458 132.443 192.4 132.327 192.317 132.23C192.234 132.132 192.128 132.058 192.009 132.012C191.923 131.978 191.831 131.961 191.738 131.961H151.543C151.45 131.961 151.358 131.978 151.272 132.012C151.152 132.058 151.047 132.132 150.964 132.23C150.881 132.327 150.823 132.443 150.796 132.568L150.152 135.634C150.13 135.745 150.132 135.86 150.159 135.97C150.186 136.081 150.237 136.184 150.308 136.272Z" fill="#2F2E41"/>
<path d="M190.315 133.285H191.295C191.377 133.285 191.444 133.218 191.444 133.136V132.666C191.444 132.584 191.377 132.517 191.295 132.517H190.315C190.233 132.517 190.166 132.584 190.166 132.666V133.136C190.166 133.218 190.233 133.285 190.315 133.285Z" fill="#3F3D56"/>
<path d="M187.76 133.285H188.74C188.822 133.285 188.889 133.218 188.889 133.136V132.666C188.889 132.584 188.822 132.517 188.74 132.517H187.76C187.678 132.517 187.611 132.584 187.611 132.666V133.136C187.611 133.218 187.678 133.285 187.76 133.285Z" fill="#3F3D56"/>
<path d="M185.205 133.285H186.185C186.267 133.285 186.333 133.218 186.333 133.136V132.666C186.333 132.584 186.267 132.517 186.185 132.517H185.205C185.123 132.517 185.056 132.584 185.056 132.666V133.136C185.056 133.218 185.123 133.285 185.205 133.285Z" fill="#3F3D56"/>
<path d="M182.65 133.285H183.629C183.712 133.285 183.778 133.218 183.778 133.136V132.666C183.778 132.584 183.712 132.517 183.629 132.517H182.65C182.567 132.517 182.501 132.584 182.501 132.666V133.136C182.501 133.218 182.567 133.285 182.65 133.285Z" fill="#3F3D56"/>
<path d="M180.094 133.285H181.074C181.156 133.285 181.223 133.218 181.223 133.136V132.666C181.223 132.584 181.156 132.517 181.074 132.517H180.094C180.012 132.517 179.946 132.584 179.946 132.666V133.136C179.946 133.218 180.012 133.285 180.094 133.285Z" fill="#3F3D56"/>
<path d="M177.539 133.285H178.519C178.601 133.285 178.668 133.218 178.668 133.136V132.666C178.668 132.584 178.601 132.517 178.519 132.517H177.539C177.457 132.517 177.39 132.584 177.39 132.666V133.136C177.39 133.218 177.457 133.285 177.539 133.285Z" fill="#3F3D56"/>
<path d="M174.984 133.285H175.964C176.046 133.285 176.113 133.218 176.113 133.136V132.666C176.113 132.584 176.046 132.517 175.964 132.517H174.984C174.902 132.517 174.835 132.584 174.835 132.666V133.136C174.835 133.218 174.902 133.285 174.984 133.285Z" fill="#3F3D56"/>
<path d="M172.429 133.285H173.409C173.491 133.285 173.558 133.218 173.558 133.136V132.666C173.558 132.584 173.491 132.517 173.409 132.517H172.429C172.347 132.517 172.28 132.584 172.28 132.666V133.136C172.28 133.218 172.347 133.285 172.429 133.285Z" fill="#3F3D56"/>
<path d="M169.874 133.285H170.854C170.936 133.285 171.002 133.218 171.002 133.136V132.666C171.002 132.584 170.936 132.517 170.854 132.517H169.874C169.792 132.517 169.725 132.584 169.725 132.666V133.136C169.725 133.218 169.792 133.285 169.874 133.285Z" fill="#3F3D56"/>
<path d="M167.319 133.285H168.298C168.381 133.285 168.447 133.218 168.447 133.136V132.666C168.447 132.584 168.381 132.517 168.298 132.517H167.319C167.236 132.517 167.17 132.584 167.17 132.666V133.136C167.17 133.218 167.236 133.285 167.319 133.285Z" fill="#3F3D56"/>
<path d="M164.763 133.285H165.743C165.825 133.285 165.892 133.218 165.892 133.136V132.666C165.892 132.584 165.825 132.517 165.743 132.517H164.763C164.681 132.517 164.614 132.584 164.614 132.666V133.136C164.614 133.218 164.681 133.285 164.763 133.285Z" fill="#3F3D56"/>
<path d="M162.208 133.285H163.188C163.27 133.285 163.336 133.218 163.336 133.136V132.666C163.336 132.584 163.27 132.517 163.188 132.517H162.208C162.125 132.517 162.059 132.584 162.059 132.666V133.136C162.059 133.218 162.125 133.285 162.208 133.285Z" fill="#3F3D56"/>
<path d="M159.653 133.285H160.632C160.715 133.285 160.781 133.218 160.781 133.136V132.666C160.781 132.584 160.715 132.517 160.632 132.517H159.653C159.57 132.517 159.504 132.584 159.504 132.666V133.136C159.504 133.218 159.57 133.285 159.653 133.285Z" fill="#3F3D56"/>
<path d="M157.097 133.285H158.077C158.159 133.285 158.226 133.218 158.226 133.136V132.666C158.226 132.584 158.159 132.517 158.077 132.517H157.097C157.015 132.517 156.948 132.584 156.948 132.666V133.136C156.948 133.218 157.015 133.285 157.097 133.285Z" fill="#3F3D56"/>
<path d="M154.542 133.285H155.522C155.604 133.285 155.671 133.218 155.671 133.136V132.666C155.671 132.584 155.604 132.517 155.522 132.517H154.542C154.46 132.517 154.393 132.584 154.393 132.666V133.136C154.393 133.218 154.46 133.285 154.542 133.285Z" fill="#3F3D56"/>
<path d="M151.987 133.285H152.967C153.049 133.285 153.116 133.218 153.116 133.136V132.666C153.116 132.584 153.049 132.517 152.967 132.517H151.987C151.905 132.517 151.838 132.584 151.838 132.666V133.136C151.838 133.218 151.905 133.285 151.987 133.285Z" fill="#3F3D56"/>
<path d="M190.345 134.562H191.325C191.407 134.562 191.474 134.496 191.474 134.413V133.943C191.474 133.861 191.407 133.794 191.325 133.794H190.345C190.263 133.794 190.197 133.861 190.197 133.943V134.413C190.197 134.496 190.263 134.562 190.345 134.562Z" fill="#3F3D56"/>
<path d="M187.79 134.562H188.77C188.852 134.562 188.919 134.496 188.919 134.413V133.943C188.919 133.861 188.852 133.794 188.77 133.794H187.79C187.708 133.794 187.641 133.861 187.641 133.943V134.413C187.641 134.496 187.708 134.562 187.79 134.562Z" fill="#3F3D56"/>
<path d="M185.235 134.562H186.215C186.297 134.562 186.364 134.496 186.364 134.413V133.943C186.364 133.861 186.297 133.794 186.215 133.794H185.235C185.153 133.794 185.086 133.861 185.086 133.943V134.413C185.086 134.496 185.153 134.562 185.235 134.562Z" fill="#3F3D56"/>
<path d="M182.68 134.562H183.66C183.742 134.562 183.809 134.496 183.809 134.413V133.943C183.809 133.861 183.742 133.794 183.66 133.794H182.68C182.598 133.794 182.531 133.861 182.531 133.943V134.413C182.531 134.496 182.598 134.562 182.68 134.562Z" fill="#3F3D56"/>
<path d="M180.124 134.562H181.104C181.186 134.562 181.253 134.496 181.253 134.413V133.943C181.253 133.861 181.186 133.794 181.104 133.794H180.124C180.042 133.794 179.975 133.861 179.975 133.943V134.413C179.975 134.496 180.042 134.562 180.124 134.562Z" fill="#3F3D56"/>
<path d="M177.569 134.562H178.549C178.631 134.562 178.698 134.496 178.698 134.413V133.943C178.698 133.861 178.631 133.794 178.549 133.794H177.569C177.487 133.794 177.42 133.861 177.42 133.943V134.413C177.42 134.496 177.487 134.562 177.569 134.562Z" fill="#3F3D56"/>
<path d="M175.014 134.562H175.994C176.076 134.562 176.143 134.496 176.143 134.413V133.943C176.143 133.861 176.076 133.794 175.994 133.794H175.014C174.932 133.794 174.865 133.861 174.865 133.943V134.413C174.865 134.496 174.932 134.562 175.014 134.562Z" fill="#3F3D56"/>
<path d="M172.459 134.562H173.438C173.521 134.562 173.587 134.496 173.587 134.413V133.943C173.587 133.861 173.521 133.794 173.438 133.794H172.459C172.376 133.794 172.31 133.861 172.31 133.943V134.413C172.31 134.496 172.376 134.562 172.459 134.562Z" fill="#3F3D56"/>
<path d="M169.904 134.562H170.883C170.966 134.562 171.032 134.496 171.032 134.413V133.943C171.032 133.861 170.966 133.794 170.883 133.794H169.904C169.821 133.794 169.755 133.861 169.755 133.943V134.413C169.755 134.496 169.821 134.562 169.904 134.562Z" fill="#3F3D56"/>
<path d="M167.348 134.562H168.328C168.41 134.562 168.477 134.496 168.477 134.413V133.943C168.477 133.861 168.41 133.794 168.328 133.794H167.348C167.266 133.794 167.199 133.861 167.199 133.943V134.413C167.199 134.496 167.266 134.562 167.348 134.562Z" fill="#3F3D56"/>
<path d="M164.793 134.562H165.773C165.855 134.562 165.922 134.496 165.922 134.413V133.943C165.922 133.861 165.855 133.794 165.773 133.794H164.793C164.711 133.794 164.644 133.861 164.644 133.943V134.413C164.644 134.496 164.711 134.562 164.793 134.562Z" fill="#3F3D56"/>
<path d="M162.238 134.562H163.218C163.3 134.562 163.367 134.496 163.367 134.413V133.943C163.367 133.861 163.3 133.794 163.218 133.794H162.238C162.156 133.794 162.089 133.861 162.089 133.943V134.413C162.089 134.496 162.156 134.562 162.238 134.562Z" fill="#3F3D56"/>
<path d="M159.683 134.562H160.663C160.745 134.562 160.812 134.496 160.812 134.413V133.943C160.812 133.861 160.745 133.794 160.663 133.794H159.683C159.601 133.794 159.534 133.861 159.534 133.943V134.413C159.534 134.496 159.601 134.562 159.683 134.562Z" fill="#3F3D56"/>
<path d="M157.128 134.562H158.107C158.19 134.562 158.256 134.496 158.256 134.413V133.943C158.256 133.861 158.19 133.794 158.107 133.794H157.128C157.045 133.794 156.979 133.861 156.979 133.943V134.413C156.979 134.496 157.045 134.562 157.128 134.562Z" fill="#3F3D56"/>
<path d="M154.572 134.562H155.552C155.635 134.562 155.701 134.496 155.701 134.413V133.943C155.701 133.861 155.635 133.794 155.552 133.794H154.572C154.49 133.794 154.424 133.861 154.424 133.943V134.413C154.424 134.496 154.49 134.562 154.572 134.562Z" fill="#3F3D56"/>
<path d="M152.017 134.562H152.997C153.079 134.562 153.146 134.496 153.146 134.413V133.943C153.146 133.861 153.079 133.794 152.997 133.794H152.017C151.935 133.794 151.868 133.861 151.868 133.943V134.413C151.868 134.496 151.935 134.562 152.017 134.562Z" fill="#3F3D56"/>
<path d="M169.137 136.102H179.06C179.142 136.102 179.209 136.035 179.209 135.952V135.482C179.209 135.4 179.142 135.333 179.06 135.333H169.137C169.055 135.333 168.988 135.4 168.988 135.482V135.952C168.988 136.035 169.055 136.102 169.137 136.102Z" fill="#3F3D56"/>
<path d="M158.624 110.199H157.756C157.493 110.199 157.28 110.413 157.28 110.677C157.28 110.94 157.493 111.154 157.756 111.154H158.624C158.887 111.154 159.1 110.94 159.1 110.677C159.1 110.413 158.887 110.199 158.624 110.199Z" fill="white"/>
<path d="M168.544 110.199H167.677C167.414 110.199 167.201 110.413 167.201 110.677C167.201 110.94 167.414 111.154 167.677 111.154H168.544C168.807 111.154 169.02 110.94 169.02 110.677C169.02 110.413 168.807 110.199 168.544 110.199Z" fill="white"/>
<path d="M171.355 110.199H170.488C170.225 110.199 170.012 110.413 170.012 110.677C170.012 110.94 170.225 111.154 170.488 111.154H171.355C171.618 111.154 171.831 110.94 171.831 110.677C171.831 110.413 171.618 110.199 171.355 110.199Z" fill="white"/>
<path d="M165.846 110.121H160.455C160.192 110.121 159.979 110.335 159.979 110.598C159.979 110.862 160.192 111.076 160.455 111.076H165.846C166.109 111.076 166.322 110.862 166.322 110.598C166.322 110.335 166.109 110.121 165.846 110.121Z" fill="white"/>
<path d="M179.073 110.121H173.682C173.419 110.121 173.206 110.335 173.206 110.598C173.206 110.862 173.419 111.076 173.682 111.076H179.073C179.336 111.076 179.549 110.862 179.549 110.598C179.549 110.335 179.336 110.121 179.073 110.121Z" fill="white"/>
<path d="M161.269 112.355H160.402C160.139 112.355 159.926 112.569 159.926 112.833C159.926 113.096 160.139 113.31 160.402 113.31H161.269C161.532 113.31 161.746 113.096 161.746 112.833C161.746 112.569 161.532 112.355 161.269 112.355Z" fill="white"/>
<path d="M171.19 112.355H170.322C170.059 112.355 169.846 112.569 169.846 112.833C169.846 113.096 170.059 113.31 170.322 113.31H171.19C171.453 113.31 171.666 113.096 171.666 112.833C171.666 112.569 171.453 112.355 171.19 112.355Z" fill="white"/>
<path d="M174.001 112.355H173.133C172.87 112.355 172.657 112.569 172.657 112.833C172.657 113.096 172.87 113.31 173.133 113.31H174.001C174.264 113.31 174.477 113.096 174.477 112.833C174.477 112.569 174.264 112.355 174.001 112.355Z" fill="white"/>
<path d="M168.492 112.273H163.101C162.838 112.273 162.625 112.487 162.625 112.751C162.625 113.014 162.838 113.228 163.101 113.228H168.492C168.755 113.228 168.968 113.014 168.968 112.751C168.968 112.487 168.755 112.273 168.492 112.273Z" fill="white"/>
<path d="M181.719 112.273H176.328C176.065 112.273 175.852 112.487 175.852 112.751C175.852 113.014 176.065 113.228 176.328 113.228H181.719C181.982 113.228 182.195 113.014 182.195 112.751C182.195 112.487 181.982 112.273 181.719 112.273Z" fill="white"/>
<path d="M163.915 114.508H163.047C162.784 114.508 162.571 114.722 162.571 114.985C162.571 115.249 162.784 115.462 163.047 115.462H163.915C164.178 115.462 164.391 115.249 164.391 114.985C164.391 114.722 164.178 114.508 163.915 114.508Z" fill="white"/>
<path d="M173.835 114.508H172.968C172.705 114.508 172.492 114.722 172.492 114.985C172.492 115.249 172.705 115.462 172.968 115.462H173.835C174.098 115.462 174.311 115.249 174.311 114.985C174.311 114.722 174.098 114.508 173.835 114.508Z" fill="white"/>
<path d="M176.646 114.508H175.779C175.516 114.508 175.303 114.722 175.303 114.985C175.303 115.249 175.516 115.462 175.779 115.462H176.646C176.909 115.462 177.122 115.249 177.122 114.985C177.122 114.722 176.909 114.508 176.646 114.508Z" fill="white"/>
<path d="M171.137 114.43H165.746C165.483 114.43 165.27 114.643 165.27 114.907C165.27 115.171 165.483 115.384 165.746 115.384H171.137C171.4 115.384 171.613 115.171 171.613 114.907C171.613 114.643 171.4 114.43 171.137 114.43Z" fill="white"/>
<path d="M184.364 114.43H178.973C178.71 114.43 178.497 114.643 178.497 114.907C178.497 115.171 178.71 115.384 178.973 115.384H184.364C184.627 115.384 184.84 115.171 184.84 114.907C184.84 114.643 184.627 114.43 184.364 114.43Z" fill="white"/>
<path d="M166.56 116.664H165.693C165.43 116.664 165.217 116.878 165.217 117.141C165.217 117.405 165.43 117.619 165.693 117.619H166.56C166.823 117.619 167.037 117.405 167.037 117.141C167.037 116.878 166.823 116.664 166.56 116.664Z" fill="white"/>
<path d="M176.481 116.664H175.613C175.35 116.664 175.137 116.878 175.137 117.141C175.137 117.405 175.35 117.619 175.613 117.619H176.481C176.744 117.619 176.957 117.405 176.957 117.141C176.957 116.878 176.744 116.664 176.481 116.664Z" fill="white"/>
<path d="M179.291 116.664H178.424C178.161 116.664 177.948 116.878 177.948 117.141C177.948 117.405 178.161 117.619 178.424 117.619H179.291C179.554 117.619 179.767 117.405 179.767 117.141C179.767 116.878 179.554 116.664 179.291 116.664Z" fill="white"/>
<path d="M173.782 116.586H168.391C168.128 116.586 167.915 116.8 167.915 117.063C167.915 117.327 168.128 117.541 168.391 117.541H173.782C174.045 117.541 174.258 117.327 174.258 117.063C174.258 116.8 174.045 116.586 173.782 116.586Z" fill="white"/>
<path d="M168.544 125.23H167.677C167.414 125.23 167.201 125.444 167.201 125.708C167.201 125.971 167.414 126.185 167.677 126.185H168.544C168.807 126.185 169.02 125.971 169.02 125.708C169.02 125.444 168.807 125.23 168.544 125.23Z" fill="white"/>
<path d="M171.355 125.23H170.488C170.225 125.23 170.012 125.444 170.012 125.708C170.012 125.971 170.225 126.185 170.488 126.185H171.355C171.618 126.185 171.831 125.971 171.831 125.708C171.831 125.444 171.618 125.23 171.355 125.23Z" fill="white"/>
<path d="M179.073 125.312H173.682C173.419 125.312 173.206 125.526 173.206 125.79C173.206 126.053 173.419 126.267 173.682 126.267H179.073C179.336 126.267 179.549 126.053 179.549 125.79C179.549 125.526 179.336 125.312 179.073 125.312Z" fill="white"/>
<path d="M158.624 125.23H157.756C157.493 125.23 157.28 125.444 157.28 125.708C157.28 125.971 157.493 126.185 157.756 126.185H158.624C158.887 126.185 159.1 125.971 159.1 125.708C159.1 125.444 158.887 125.23 158.624 125.23Z" fill="white"/>
<path d="M165.846 125.312H160.455C160.192 125.312 159.979 125.526 159.979 125.79C159.979 126.053 160.192 126.267 160.455 126.267H165.846C166.109 126.267 166.322 126.053 166.322 125.79C166.322 125.526 166.109 125.312 165.846 125.312Z" fill="white"/>
<path d="M161.269 123.078H160.402C160.139 123.078 159.926 123.292 159.926 123.555C159.926 123.819 160.139 124.033 160.402 124.033H161.269C161.532 124.033 161.746 123.819 161.746 123.555C161.746 123.292 161.532 123.078 161.269 123.078Z" fill="white"/>
<path d="M171.19 123.078H170.322C170.059 123.078 169.846 123.292 169.846 123.555C169.846 123.819 170.059 124.033 170.322 124.033H171.19C171.453 124.033 171.666 123.819 171.666 123.555C171.666 123.292 171.453 123.078 171.19 123.078Z" fill="white"/>
<path d="M174.001 123.078H173.133C172.87 123.078 172.657 123.292 172.657 123.555C172.657 123.819 172.87 124.033 173.133 124.033H174.001C174.264 124.033 174.477 123.819 174.477 123.555C174.477 123.292 174.264 123.078 174.001 123.078Z" fill="white"/>
<path d="M168.492 123.156H163.101C162.838 123.156 162.625 123.37 162.625 123.634C162.625 123.897 162.838 124.111 163.101 124.111H168.492C168.755 124.111 168.968 123.897 168.968 123.634C168.968 123.37 168.755 123.156 168.492 123.156Z" fill="white"/>
<path d="M163.915 120.922H163.047C162.784 120.922 162.571 121.136 162.571 121.399C162.571 121.663 162.784 121.877 163.047 121.877H163.915C164.178 121.877 164.391 121.663 164.391 121.399C164.391 121.136 164.178 120.922 163.915 120.922Z" fill="white"/>
<path d="M173.835 120.922H172.968C172.705 120.922 172.492 121.136 172.492 121.399C172.492 121.663 172.705 121.877 172.968 121.877H173.835C174.098 121.877 174.311 121.663 174.311 121.399C174.311 121.136 174.098 120.922 173.835 120.922Z" fill="white"/>
<path d="M176.646 120.922H175.779C175.516 120.922 175.303 121.136 175.303 121.399C175.303 121.663 175.516 121.877 175.779 121.877H176.646C176.909 121.877 177.122 121.663 177.122 121.399C177.122 121.136 176.909 120.922 176.646 120.922Z" fill="white"/>
<path d="M171.137 121.004H165.746C165.483 121.004 165.27 121.218 165.27 121.481C165.27 121.745 165.483 121.959 165.746 121.959H171.137C171.4 121.959 171.613 121.745 171.613 121.481C171.613 121.218 171.4 121.004 171.137 121.004Z" fill="white"/>
<path d="M166.56 118.77H165.693C165.43 118.77 165.217 118.983 165.217 119.247C165.217 119.51 165.43 119.724 165.693 119.724H166.56C166.823 119.724 167.037 119.51 167.037 119.247C167.037 118.983 166.823 118.77 166.56 118.77Z" fill="white"/>
<path d="M176.481 118.77H175.613C175.35 118.77 175.137 118.983 175.137 119.247C175.137 119.51 175.35 119.724 175.613 119.724H176.481C176.744 119.724 176.957 119.51 176.957 119.247C176.957 118.983 176.744 118.77 176.481 118.77Z" fill="white"/>
<path d="M179.291 118.77H178.424C178.161 118.77 177.948 118.983 177.948 119.247C177.948 119.51 178.161 119.724 178.424 119.724H179.291C179.554 119.724 179.767 119.51 179.767 119.247C179.767 118.983 179.554 118.77 179.291 118.77Z" fill="white"/>
<path d="M173.782 118.848H168.391C168.128 118.848 167.915 119.061 167.915 119.325C167.915 119.589 168.128 119.802 168.391 119.802H173.782C174.045 119.802 174.258 119.589 174.258 119.325C174.258 119.061 174.045 118.848 173.782 118.848Z" fill="white"/>
<path d="M154.012 150.485L149.94 144.033L162.722 133.819L167.997 127.96C168.683 127.199 169.555 126.632 170.528 126.315C171.501 125.998 172.539 125.942 173.54 126.153C174.541 126.364 175.469 126.835 176.232 127.519C176.994 128.202 177.565 129.075 177.885 130.048C178.361 131.491 178.259 133.063 177.6 134.431C176.942 135.8 175.779 136.859 174.356 137.384L166.014 140.464L154.012 150.485Z" fill="#FFB6B6"/>
<path d="M58.4702 103.703V135.062H80.3863V103.703C80.3867 103.477 80.3149 103.257 80.1814 103.076C80.048 102.894 79.86 102.76 79.6451 102.694C79.5438 102.66 79.4376 102.643 79.3309 102.645H59.5287C59.3898 102.644 59.2523 102.671 59.124 102.725C58.9956 102.778 58.879 102.855 58.7807 102.954C58.6824 103.052 58.6044 103.169 58.5511 103.297C58.4978 103.426 58.4703 103.563 58.4702 103.703ZM67.0231 114.478C67.0288 113.859 67.2779 113.268 67.716 112.833C68.1541 112.398 68.7459 112.154 69.3627 112.154C69.9794 112.154 70.5712 112.398 71.0094 112.833C71.4475 113.268 71.6965 113.859 71.7022 114.478V118.116C71.6991 118.736 71.4512 119.33 71.0128 119.767C70.5744 120.204 69.9811 120.449 69.3627 120.449C68.7442 120.449 68.151 120.204 67.7126 119.767C67.2742 119.33 67.0263 118.736 67.0231 118.116V114.478Z" fill="#2F2E41"/>
<path d="M58.4033 134.059V137.083C58.4038 137.239 58.4659 137.389 58.5761 137.5C58.6863 137.611 58.8358 137.674 58.992 137.676H79.8649C80.0213 137.675 80.1711 137.612 80.2814 137.501C80.3917 137.39 80.4536 137.239 80.4536 137.083V134.059H58.4033Z" fill="#3F3D56"/>
<path d="M23.9932 56.4558V113.713C23.9937 114.443 24.2832 115.142 24.7979 115.658C25.3126 116.174 26.0105 116.464 26.7384 116.465H111.383C112.111 116.464 112.809 116.174 113.323 115.658C113.838 115.142 114.128 114.443 114.128 113.713V56.4558C114.126 55.7268 113.837 55.0282 113.322 54.513C112.807 53.9978 112.11 53.708 111.383 53.707H26.7384C26.0111 53.708 25.3139 53.9978 24.7993 54.513C24.2848 55.0282 23.9949 55.7268 23.9932 56.4558Z" fill="#3F3D56"/>
<path d="M25.979 57.1652V113.004C25.9797 113.394 26.1345 113.767 26.4095 114.043C26.6845 114.319 27.0573 114.474 27.4462 114.474H110.678C111.067 114.474 111.44 114.319 111.715 114.043C111.99 113.767 112.145 113.394 112.146 113.004V57.1652C112.146 56.7749 111.991 56.4005 111.716 56.1242C111.441 55.8479 111.068 55.6923 110.678 55.6914H27.4462C27.0568 55.6923 26.6836 55.8479 26.4086 56.1242C26.1335 56.4005 25.979 56.7749 25.979 57.1652Z" fill="white"/>
<path d="M41.4256 137.47C41.5103 137.577 41.618 137.663 41.7405 137.721C41.8631 137.78 41.9974 137.81 42.1332 137.81H91.651C91.7865 137.809 91.9202 137.779 92.0424 137.721C92.1646 137.662 92.2723 137.577 92.3576 137.472C92.4429 137.366 92.5037 137.243 92.5355 137.111C92.5674 136.979 92.5695 136.842 92.5417 136.709L91.7731 133.049C91.7412 132.9 91.6726 132.761 91.5735 132.645C91.4744 132.529 91.348 132.44 91.2057 132.385C91.1027 132.345 90.993 132.324 90.8824 132.324H42.8988C42.7882 132.324 42.6785 132.345 42.5755 132.385C42.4332 132.44 42.3068 132.529 42.2077 132.645C42.1086 132.761 42.04 132.9 42.0082 133.049L41.2395 136.709C41.2122 136.842 41.2147 136.979 41.2469 137.111C41.279 137.242 41.3401 137.365 41.4256 137.47Z" fill="#2F2E41"/>
<path d="M107.977 63.3865H30.0973C30.0164 63.3847 29.9394 63.3512 29.8827 63.2932C29.8261 63.2352 29.7944 63.1572 29.7944 63.0761C29.7944 62.9949 29.8261 62.917 29.8827 62.859C29.9394 62.8009 30.0164 62.7674 30.0973 62.7656H107.977C108.058 62.7674 108.135 62.8009 108.192 62.859C108.249 62.917 108.28 62.9949 108.28 63.0761C108.28 63.1572 108.249 63.2352 108.192 63.2932C108.135 63.3512 108.058 63.3847 107.977 63.3865Z" fill="#3F3D56"/>
<path d="M35.3985 61.1809C36.4009 61.1809 37.2136 60.3481 37.2136 59.3209C37.2136 58.2937 36.4009 57.4609 35.3985 57.4609C34.3961 57.4609 33.5835 58.2937 33.5835 59.3209C33.5835 60.3481 34.3961 61.1809 35.3985 61.1809Z" fill="#3F3D56"/>
<path d="M41.6685 61.1809C42.671 61.1809 43.4836 60.3481 43.4836 59.3209C43.4836 58.2937 42.671 57.4609 41.6685 57.4609C40.6661 57.4609 39.8535 58.2937 39.8535 59.3209C39.8535 60.3481 40.6661 61.1809 41.6685 61.1809Z" fill="#3F3D56"/>
<path d="M47.9386 61.1809C48.941 61.1809 49.7536 60.3481 49.7536 59.3209C49.7536 58.2937 48.941 57.4609 47.9386 57.4609C46.9362 57.4609 46.1235 58.2937 46.1235 59.3209C46.1235 60.3481 46.9362 61.1809 47.9386 61.1809Z" fill="#3F3D56"/>
<path d="M104.202 57.918H99.7482C99.6602 57.92 99.5765 57.9565 99.5149 58.0197C99.4534 58.0828 99.4189 58.1676 99.4189 58.2558C99.4189 58.3441 99.4534 58.4289 99.5149 58.492C99.5765 58.5552 99.6602 58.5916 99.7482 58.5937H104.202C104.29 58.5925 104.375 58.5563 104.437 58.4931C104.499 58.4298 104.534 58.3446 104.534 58.2558C104.534 58.167 104.499 58.0818 104.437 58.0186C104.375 57.9554 104.29 57.9192 104.202 57.918Z" fill="#3F3D56"/>
<path d="M104.202 59.1875H99.7482C99.66 59.1895 99.5762 59.2259 99.5146 59.2891C99.453 59.3522 99.4185 59.437 99.4185 59.5254C99.4185 59.6137 99.453 59.6985 99.5146 59.7617C99.5762 59.8248 99.66 59.8613 99.7482 59.8632H104.202C104.29 59.8622 104.375 59.8261 104.437 59.7628C104.5 59.6996 104.535 59.6143 104.535 59.5254C104.535 59.4365 104.5 59.3511 104.437 59.2879C104.375 59.2246 104.29 59.1886 104.202 59.1875Z" fill="#3F3D56"/>
<path d="M104.202 60.457H99.7482C99.6602 60.4591 99.5765 60.4956 99.5149 60.5587C99.4534 60.6219 99.4189 60.7066 99.4189 60.7949C99.4189 60.8832 99.4534 60.9679 99.5149 61.0311C99.5765 61.0942 99.6602 61.1307 99.7482 61.1328H104.202C104.29 61.1315 104.375 61.0954 104.437 61.0321C104.499 60.9689 104.534 60.8837 104.534 60.7949C104.534 60.7061 104.499 60.6209 104.437 60.5577C104.375 60.4944 104.29 60.4583 104.202 60.457Z" fill="#3F3D56"/>
<path d="M211.564 135.383C211.699 135.775 211.954 136.115 212.292 136.353C212.631 136.591 213.037 136.715 213.45 136.707L221.531 136.499C221.948 136.491 222.351 136.348 222.679 136.091C223.008 135.834 223.245 135.478 223.355 135.075L224.499 122.818C224.905 123.002 225.346 123.093 225.792 123.084C226.178 123.074 226.56 122.988 226.913 122.831C227.267 122.673 227.586 122.448 227.853 122.167C228.12 121.886 228.329 121.555 228.468 121.193C228.607 120.831 228.673 120.445 228.664 120.057C228.654 119.669 228.568 119.287 228.411 118.932C228.254 118.578 228.029 118.258 227.748 117.99C227.468 117.723 227.138 117.514 226.777 117.374C226.415 117.235 226.03 117.168 225.644 117.178C225.466 117.177 225.288 117.196 225.114 117.233C224.925 117.028 224.695 116.864 224.439 116.754C224.183 116.643 223.906 116.587 223.627 116.59L211.197 116.912C211.094 116.916 210.992 116.928 210.891 116.95C210.618 117.001 210.36 117.11 210.133 117.269C209.905 117.429 209.715 117.635 209.574 117.875C209.433 118.114 209.345 118.381 209.316 118.657C209.287 118.934 209.317 119.213 209.404 119.477L211.564 135.383ZM224.733 121.986L225.547 119.065C225.64 118.727 225.642 118.371 225.553 118.033C225.593 118.033 225.628 118.014 225.667 118.014C226.225 118.002 226.765 118.213 227.168 118.6C227.571 118.986 227.805 119.518 227.818 120.077C227.831 120.636 227.622 121.178 227.238 121.583C226.853 121.988 226.324 122.224 225.766 122.239C225.405 122.25 225.048 122.162 224.733 121.986Z" fill="#2F2E41"/>
<path d="M210.891 116.95C211.155 118.468 214.133 119.535 217.713 119.35C221.005 119.198 223.697 118.039 224.19 116.665C224.007 116.611 223.817 116.586 223.627 116.59L211.197 116.912C211.094 116.916 210.992 116.929 210.891 116.95Z" fill="#3F3D56"/>
<path d="M218.369 128.65C218.385 128.646 218.401 128.639 218.415 128.63L220.17 127.479C220.191 127.465 220.208 127.446 220.221 127.424C220.233 127.401 220.239 127.376 220.239 127.351C220.239 127.325 220.233 127.3 220.221 127.278C220.209 127.256 220.191 127.237 220.17 127.223L218.346 126.025C218.329 126.014 218.31 126.007 218.291 126.003C218.271 125.999 218.251 125.999 218.231 126.003C218.211 126.007 218.193 126.015 218.176 126.026C218.16 126.038 218.145 126.052 218.134 126.069C218.123 126.086 218.116 126.105 218.112 126.124C218.108 126.144 218.109 126.165 218.113 126.184C218.117 126.204 218.125 126.223 218.136 126.239C218.147 126.256 218.162 126.27 218.179 126.281L219.808 127.351L218.248 128.374C218.218 128.394 218.196 128.424 218.185 128.459C218.175 128.493 218.177 128.53 218.192 128.564C218.206 128.597 218.232 128.624 218.265 128.639C218.297 128.655 218.334 128.659 218.369 128.65Z" fill="#3D88ED"/>
<path d="M215.597 128.779C215.627 128.771 215.653 128.755 215.674 128.733C215.694 128.71 215.707 128.682 215.711 128.651C215.715 128.621 215.71 128.591 215.697 128.563C215.683 128.536 215.662 128.513 215.636 128.498L214.018 127.568L215.582 126.404C215.598 126.392 215.611 126.377 215.622 126.36C215.632 126.343 215.639 126.324 215.642 126.304C215.645 126.284 215.644 126.264 215.639 126.244C215.634 126.225 215.625 126.207 215.613 126.191C215.601 126.174 215.586 126.161 215.569 126.151C215.552 126.14 215.533 126.133 215.513 126.131C215.493 126.128 215.473 126.129 215.454 126.134C215.434 126.138 215.416 126.147 215.4 126.159L213.65 127.462C213.629 127.478 213.613 127.497 213.602 127.52C213.592 127.543 213.587 127.569 213.588 127.594C213.59 127.619 213.597 127.644 213.611 127.666C213.624 127.687 213.643 127.705 213.665 127.718L215.484 128.763C215.518 128.783 215.559 128.789 215.597 128.779Z" fill="#3D88ED"/>
<path d="M218.195 129.659C218.209 129.655 218.223 129.649 218.236 129.641C218.254 129.63 218.268 129.617 218.28 129.601C218.292 129.584 218.301 129.566 218.305 129.546C218.31 129.527 218.311 129.507 218.308 129.487C218.305 129.467 218.298 129.448 218.287 129.431L215.8 125.331C215.779 125.296 215.745 125.272 215.706 125.262C215.666 125.253 215.625 125.259 215.59 125.28C215.556 125.301 215.531 125.335 215.521 125.375C215.512 125.414 215.518 125.455 215.539 125.49L218.027 129.59C218.044 129.618 218.069 129.64 218.099 129.652C218.13 129.664 218.163 129.667 218.195 129.659Z" fill="#3D88ED"/>
<path d="M78.3427 80.2617H64.8633C64.3134 80.2617 63.8677 80.7086 63.8677 81.2598V82.5799C63.8677 83.1311 64.3134 83.5779 64.8633 83.5779H78.3427C78.8925 83.5779 79.3383 83.1311 79.3383 82.5799V81.2598C79.3383 80.7086 78.8925 80.2617 78.3427 80.2617Z" fill="#3D88ED"/>
<path d="M86.1997 86.8945H57.0064C56.4565 86.8945 56.0107 87.3414 56.0107 87.8926V89.2127C56.0107 89.7639 56.4565 90.2107 57.0064 90.2107H86.1997C86.7496 90.2107 87.1954 89.7639 87.1954 89.2127V87.8926C87.1954 87.3414 86.7496 86.8945 86.1997 86.8945Z" fill="#E6E6E6"/>
<path d="M86.1997 93.5273H57.0064C56.4565 93.5273 56.0107 93.9742 56.0107 94.5254V95.8455C56.0107 96.3967 56.4565 96.8436 57.0064 96.8436H86.1997C86.7496 96.8436 87.1954 96.3967 87.1954 95.8455V94.5254C87.1954 93.9742 86.7496 93.5273 86.1997 93.5273Z" fill="#E6E6E6"/>
<path d="M88.6743 115.737L88.7404 115.946L88.7439 115.953L90.7342 122.019L93.0238 129.009L97.3316 142.145L97.3734 144.185V144.192L97.6935 160.607L96.8062 162.832L97.8048 166.481C97.8048 166.481 97.3455 160.966 94.882 164.133C93.4866 165.933 91.8547 167.775 90.515 169.501C92.4671 170.293 94.4505 171.009 96.4652 171.65C96.9002 171.789 97.3386 171.922 97.777 172.054C97.871 172.082 97.9649 172.11 98.0589 172.138C104.737 174.118 111.642 175.23 118.603 175.448C118.964 175.459 119.319 175.466 119.664 175.473C119.786 175.476 119.904 175.48 120.022 175.48C120.412 175.483 120.798 175.487 121.188 175.487C121.974 175.487 122.757 175.475 123.537 175.452C129.306 175.289 135.041 174.511 140.646 173.132C140.608 170.813 140.503 168.102 140.354 165.207C140.284 163.788 138.722 162.249 138.628 160.764C138.562 159.647 139.964 158.597 139.891 157.464C139.418 150.484 138.826 153.164 138.388 148.221C138.343 147.736 138.301 147.272 138.262 146.829C137.981 143.655 137.786 141.67 137.786 141.67L139.658 129.842L142.598 111.272L142.372 110.899L142.118 110.773L126.609 103.079L125.767 100.916C125.522 100.293 125.096 99.7579 124.545 99.3793C123.994 99.0008 123.342 98.7962 122.674 98.7919L112.458 98.75C111.927 98.7476 111.404 98.872 110.932 99.1128C110.459 99.3537 110.05 99.704 109.74 100.135L106.974 103.975L88.6743 115.737Z" fill="#3F3D56"/>
<path d="M99.6871 139.223L97.3732 144.186L95.7934 147.577L93.0758 161.839L91.7153 163.287L90.5496 158.163L78.3493 160.878C77.9491 158.649 78.2422 160.953 77.9951 158.508C78.0647 158.439 78.1378 158.369 78.2109 158.299C78.4057 158.118 78.5693 157.947 78.5658 157.783C78.4266 149.349 78.8441 134.995 82.3307 126.3C82.8768 124.88 83.5968 123.534 84.4742 122.292C84.5438 122.198 84.6099 122.104 84.676 122.009C86.2836 119.753 87.2996 117.531 88.7402 115.951V115.947C88.7492 115.94 88.7573 115.932 88.7646 115.923C88.7698 115.92 88.7745 115.917 88.7785 115.912L98.6745 110.652L99.0991 122.609L99.4018 131.204L99.6871 139.223Z" fill="#3F3D56"/>
<path d="M135.371 140.632L138.261 146.831L139.27 148.99L141.987 163.252L143.343 164.695L144.511 159.572L145.06 159.459L154.961 157.404L157.846 166.591C158.497 165.505 158.753 164.227 158.572 162.973C158.391 161.719 157.783 160.566 156.852 159.71C156.655 159.531 156.49 159.357 156.495 159.192C156.659 149.272 156.054 131.159 150.588 123.704C148.851 121.338 147.81 118.981 146.294 117.335C146.289 117.33 146.289 117.326 146.285 117.326L142.597 111.272L142.371 110.9L142.118 110.773L135.371 140.632Z" fill="#3F3D56"/>
<path d="M117.861 95.8345C125.367 95.8345 131.452 89.7347 131.452 82.2102C131.452 74.6857 125.367 68.5859 117.861 68.5859C110.355 68.5859 104.27 74.6857 104.27 82.2102C104.27 89.7347 110.355 95.8345 117.861 95.8345Z" fill="#FFB6B6"/>
<path d="M136.231 72.6965C136.126 72.5836 135.999 72.4933 135.858 72.4307C135.717 72.3682 135.565 72.3348 135.411 72.3326L135.615 71.7639C135.682 71.5847 135.7 71.391 135.667 71.2026C135.635 71.0142 135.553 70.8379 135.43 70.6917C135.307 70.5454 135.147 70.4346 134.968 70.3705C134.788 70.3064 134.594 70.2913 134.407 70.3268L133.663 70.4705L133.733 69.9721C133.76 69.7865 133.738 69.597 133.67 69.4224C133.602 69.2478 133.489 69.094 133.343 68.9761C133.198 68.8583 133.024 68.7804 132.84 68.7503C132.655 68.7201 132.466 68.7386 132.29 68.8041C132.131 68.867 131.959 68.8934 131.788 68.8812C131.617 68.869 131.451 68.8187 131.302 68.7338C131.152 68.6515 131.022 68.5374 130.921 68.3996C130.82 68.2617 130.75 68.1034 130.716 67.9357L130.457 66.6821L130.43 66.6148C129.167 64.505 126.739 62.9701 123.768 62.4075C121.123 61.903 118.412 62.1598 115.797 62.4014C114.76 62.4992 113.589 62.6093 112.613 63.2086C111.783 63.7223 111.082 64.7497 111.225 65.7862C108.648 64.9943 105.884 66.5751 104.515 68.5686C102.892 70.9414 102.626 73.9134 102.584 76.2372C102.468 81.7348 103.599 86.2326 105.939 89.6082C106.11 89.8528 106.153 90.3634 106.491 90.5347L106.421 90.4215C106.799 90.6111 107.184 90.9169 107.04 91.244C106.628 92.1858 109.364 94.268 111.292 94.956C114.809 96.2127 119.485 96.1057 122.773 95.6531L122.889 94.8734C124.076 94.7114 124.912 94.4026 125.146 93.9195C125.561 93.5648 125.915 93.2468 126.223 92.9532L126.226 92.9502C126.232 92.9441 126.245 92.9349 126.251 92.9288C127.736 91.5009 128.081 90.6876 128.236 89.4492C128.386 88.2353 128.12 87.0031 127.849 85.8932C133.565 86.7799 125.598 79.7902 130.924 78.4387C130.985 78.4198 131.047 78.4045 131.11 78.3928C131.265 78.3561 131.421 78.3194 131.57 78.2766C132.291 78.0806 132.981 77.7853 133.62 77.3991C135.109 76.491 135.6 75.2863 136.368 73.9287C136.479 73.7354 136.526 73.5116 136.501 73.29C136.476 73.0684 136.382 72.8605 136.231 72.6965Z" fill="#2F2E41"/>
<path d="M165.932 141.602C165.928 142.137 165.922 142.887 165.898 143.813C165.895 143.941 165.892 144.073 165.889 144.207C165.849 145.91 165.81 147.338 165.745 148.925C165.742 149.035 165.739 149.142 165.733 149.252C165.648 151.466 165.514 154.044 165.282 158.126C164.852 165.666 164.101 159.162 163.348 161.807C163.311 161.939 163.272 162.095 163.235 162.278C163.121 162.944 162.929 163.593 162.662 164.213C162.262 164.452 161.85 164.681 161.445 164.911C160.289 165.556 159.114 166.176 157.931 166.767C157.266 167.097 156.598 167.421 155.927 167.733C155.82 167.782 155.716 167.831 155.613 167.877C152.176 169.47 148.635 170.825 145.013 171.931C144.305 172.145 143.601 172.353 142.887 172.546C142.143 172.753 141.398 172.949 140.645 173.133C135.04 174.512 129.305 175.29 123.536 175.453C122.758 175.478 121.974 175.487 121.187 175.487C120.797 175.487 120.413 175.484 120.022 175.481C119.903 175.481 119.784 175.478 119.665 175.475C119.321 175.466 118.964 175.459 118.604 175.45C111.643 175.233 104.739 174.12 98.0604 172.139L97.7767 172.056C97.3375 171.922 96.9013 171.79 96.4651 171.65C94.4519 171.011 92.4682 170.295 90.514 169.503C89.0225 168.901 87.5482 168.255 86.0912 167.565C86.0779 167.561 86.0654 167.555 86.0546 167.546C85.7495 167.406 85.4415 167.259 85.1365 167.109C85.0968 167.088 85.0541 167.066 85.0114 167.045C83.8736 166.488 82.7481 165.905 81.6348 165.296C80.6983 163.14 79.3806 162.727 78.5632 160.832C78.3252 160.269 78.1533 159.68 78.0507 159.077C78.0507 159.071 78.0477 159.064 78.0477 159.055C78.1331 160.193 77.6847 157.037 78.0446 159.043C78.0416 159.006 78.0385 158.967 78.0355 158.921C78.0263 158.811 78.0141 158.676 77.9958 158.508C76.9496 148.268 77.0167 136.557 76.5622 126.907C76.5317 126.284 76.5002 125.686 76.4676 125.116C76.4585 124.926 76.4463 124.739 76.4341 124.556C76.4554 124.501 76.4798 124.443 76.5073 124.388C76.5131 124.372 76.5203 124.357 76.5286 124.342C76.5376 124.323 76.5478 124.305 76.5591 124.287C76.5652 124.278 76.5744 124.266 76.5805 124.256C76.585 124.246 76.59 124.236 76.5957 124.226C76.6232 124.183 76.6537 124.137 76.6872 124.094C76.7025 124.076 76.7147 124.061 76.73 124.045C76.7405 124.03 76.7528 124.015 76.7666 124.003C76.7759 123.988 76.7872 123.975 76.8001 123.963C76.8123 123.951 76.8245 123.935 76.8398 123.92C76.8463 123.91 76.8546 123.902 76.8642 123.896C76.8883 123.868 76.9148 123.842 76.9435 123.819C77.0523 123.719 77.1685 123.627 77.2912 123.544C77.3339 123.516 77.3797 123.489 77.4224 123.458C77.7298 123.274 78.0534 123.118 78.3893 122.994C78.5052 122.951 78.6211 122.911 78.7462 122.868C78.7919 122.856 78.8346 122.841 78.8804 122.825C78.9475 122.804 79.0146 122.783 79.0848 122.767C79.4325 122.663 79.8077 122.575 80.2133 122.492C80.2621 122.483 80.314 122.474 80.3659 122.462C80.4391 122.446 80.5153 122.434 80.5916 122.422C80.6953 122.403 80.802 122.385 80.9088 122.367C81.8147 122.223 82.8427 122.116 83.9774 122.046C84.0841 122.04 84.1909 122.033 84.2976 122.027C84.4227 122.021 84.5478 122.015 84.6759 122.009C84.7826 122.003 84.8924 122 85.0022 121.997C85.109 121.991 85.2188 121.988 85.3317 121.985C85.6397 121.975 85.957 121.966 86.2803 121.96C87.2015 121.942 88.1715 121.948 89.1902 121.969C89.663 121.981 90.145 121.994 90.6391 122.015C90.6727 122.015 90.7032 122.018 90.7337 122.018C91.1638 122.033 91.5969 122.052 92.0422 122.076C92.3533 122.092 92.6675 122.107 92.9817 122.125C93.2776 122.144 93.5765 122.162 93.8785 122.183C94.1133 122.196 94.3482 122.214 94.5861 122.229C94.7874 122.244 94.9888 122.26 95.1901 122.272L95.4646 122.29C95.6141 122.303 95.7635 122.312 95.916 122.327C96.2516 122.355 96.5871 122.382 96.9287 122.41C97.2673 122.44 97.612 122.471 97.9567 122.501C98.3013 122.532 98.6491 122.565 98.9968 122.599C99.0334 122.602 99.067 122.605 99.1005 122.608C99.4177 122.642 99.735 122.673 100.055 122.706C100.128 122.712 100.205 122.718 100.278 122.728C100.583 122.758 100.895 122.794 101.203 122.827C101.297 122.837 101.391 122.847 101.486 122.858C101.728 122.884 101.966 122.907 102.209 122.935C102.529 122.972 102.855 123.006 103.173 123.049C103.42 123.076 103.667 123.104 103.914 123.134C104.301 123.18 104.695 123.229 105.088 123.281C105.238 123.299 105.387 123.318 105.537 123.339C106.659 123.48 107.794 123.636 108.947 123.798C110.694 124.045 112.47 124.314 114.257 124.605C116.048 124.895 117.848 125.202 119.659 125.525C120.117 125.608 120.574 125.69 121.035 125.776C121.242 125.816 121.45 125.855 121.657 125.895C122.011 125.959 122.365 126.027 122.719 126.094C123.072 126.161 123.426 126.229 123.78 126.299C124.201 126.381 124.625 126.464 125.046 126.547C127.819 127.097 130.576 127.684 133.266 128.299C133.709 128.399 134.151 128.503 134.59 128.604C135.469 128.809 136.339 129.017 137.201 129.228C137.439 129.283 137.674 129.341 137.909 129.399C138.495 129.546 139.08 129.693 139.657 129.843L139.757 129.87C140.181 129.974 140.596 130.081 141.011 130.191C141.99 130.448 142.953 130.708 143.9 130.971C144.528 131.145 145.149 131.322 145.763 131.5C146.681 131.766 147.581 132.035 148.457 132.307C148.673 132.374 148.89 132.442 149.103 132.506C149.744 132.705 150.375 132.906 150.988 133.108C151.476 133.267 151.952 133.429 152.422 133.591C152.892 133.753 153.352 133.915 153.804 134.077C154.093 134.181 154.38 134.292 154.667 134.395C155.079 134.548 155.484 134.701 155.881 134.854C156.003 134.9 156.122 134.949 156.241 134.995C156.317 135.028 156.39 135.056 156.464 135.086C156.607 135.145 156.753 135.2 156.894 135.258C157.037 135.313 157.177 135.371 157.318 135.432C157.455 135.487 157.595 135.545 157.729 135.603C157.867 135.658 158.001 135.716 158.135 135.777C158.248 135.823 158.358 135.872 158.465 135.921C158.681 136.016 158.898 136.111 159.108 136.209C159.212 136.258 159.316 136.303 159.419 136.352L159.657 136.462C159.691 136.481 159.724 136.496 159.758 136.511C159.834 136.548 159.913 136.588 159.99 136.624C160.167 136.707 160.34 136.796 160.511 136.878C160.74 136.994 160.963 137.111 161.176 137.224C161.393 137.34 161.603 137.456 161.805 137.569C161.838 137.588 161.869 137.606 161.902 137.624C161.948 137.649 161.994 137.676 162.039 137.701C162.195 137.789 162.344 137.881 162.494 137.97C162.787 138.15 163.064 138.328 163.324 138.505C163.382 138.545 163.436 138.584 163.494 138.621C163.687 138.759 163.87 138.893 164.04 139.031C164.04 139.034 164.04 139.034 164.043 139.034C164.101 139.077 164.156 139.123 164.211 139.165C164.257 139.208 164.306 139.245 164.351 139.288C164.51 139.425 164.657 139.557 164.791 139.691C164.836 139.733 164.878 139.777 164.919 139.823C164.937 139.837 164.953 139.854 164.968 139.872C165.029 139.933 165.084 139.994 165.135 140.055C165.143 140.064 165.151 140.073 165.157 140.083C165.23 140.168 165.297 140.254 165.361 140.339C165.392 140.382 165.425 140.425 165.453 140.468C165.489 140.52 165.526 140.575 165.556 140.627C165.584 140.67 165.608 140.716 165.633 140.758C165.697 140.869 165.752 140.984 165.797 141.104C165.832 141.185 165.859 141.269 165.88 141.355C165.903 141.436 165.92 141.519 165.932 141.602Z" fill="#2F2E41"/>
<path opacity="0.2" d="M165.931 141.604C165.928 142.139 165.922 142.888 165.898 143.815C165.895 143.943 165.888 144.074 165.885 144.209C165.855 145.508 165.809 147.114 165.745 148.927C165.742 149.037 165.739 149.144 165.733 149.254C165.648 151.468 165.513 154.045 165.281 158.127C164.851 165.667 164.101 159.164 163.348 161.809C161.255 160.518 158.961 159.167 156.509 157.779C156.067 157.528 155.62 157.276 155.17 157.023C150.265 154.281 144.787 151.407 139.068 148.56C138.842 148.447 138.613 148.334 138.387 148.224C125.287 141.732 110.987 135.418 99.4021 131.205C97.1663 130.392 95.0311 129.658 93.024 129.013C88.7964 127.658 85.1422 126.71 82.3299 126.3C79.4016 125.872 77.3793 126.025 76.5618 126.909C76.5313 126.285 76.4998 125.688 76.4673 125.117C76.4551 124.928 76.4429 124.741 76.4307 124.558C76.4495 124.507 76.4739 124.459 76.4976 124.411C76.501 124.404 76.5034 124.396 76.5069 124.389C76.5128 124.374 76.5199 124.358 76.5283 124.344C76.5373 124.325 76.5475 124.306 76.5588 124.288C76.5687 124.267 76.581 124.246 76.5954 124.227C76.6228 124.185 76.6533 124.139 76.6869 124.096C76.7116 124.064 76.738 124.033 76.7662 124.004C76.7756 123.989 76.7868 123.976 76.7998 123.964C76.812 123.952 76.8241 123.937 76.8394 123.922C76.8459 123.912 76.8542 123.904 76.8638 123.897C76.8879 123.869 76.9145 123.844 76.9431 123.821C77.0519 123.72 77.1682 123.628 77.2908 123.545C77.3335 123.518 77.3793 123.49 77.422 123.46C77.7294 123.276 78.0531 123.12 78.3889 122.995C78.5048 122.952 78.6207 122.913 78.7458 122.87C78.7916 122.857 78.8343 122.842 78.88 122.827C78.9471 122.806 79.0142 122.784 79.0844 122.769C79.4321 122.665 79.8073 122.576 80.213 122.494C80.335 122.469 80.4631 122.445 80.5912 122.423C80.6949 122.405 80.8017 122.387 80.9084 122.368C81.8144 122.225 82.8423 122.118 83.977 122.047C84.0838 122.041 84.1905 122.035 84.2973 122.029C84.4223 122.023 84.5474 122.017 84.6755 122.011C84.7823 122.004 84.8921 122.001 85.0019 121.998C85.1086 121.992 85.2185 121.989 85.3313 121.986C85.6394 121.977 85.9566 121.968 86.2799 121.962C87.2011 121.946 88.1711 121.952 89.1899 121.974C89.6627 121.983 90.1446 121.998 90.6387 122.02C90.6693 122.02 90.7028 122.023 90.7333 122.023C91.1634 122.035 91.5996 122.056 92.0419 122.078C92.353 122.093 92.6672 122.108 92.9813 122.127C93.2772 122.145 93.5761 122.163 93.8781 122.185C94.113 122.197 94.3478 122.215 94.5857 122.231C94.7871 122.246 94.9884 122.261 95.1897 122.273C95.4307 122.292 95.6717 122.31 95.9157 122.329C96.2512 122.356 96.5867 122.384 96.9284 122.411C97.2669 122.442 97.6116 122.472 97.9563 122.503C98.301 122.533 98.6487 122.567 98.9964 122.601C99.033 122.604 99.0666 122.607 99.1001 122.61C99.4174 122.643 99.7346 122.674 100.055 122.708C101.83 122.888 103.657 123.099 105.536 123.341C106.659 123.484 107.795 123.638 108.946 123.802C110.694 124.05 112.469 124.319 114.257 124.606C116.047 124.897 117.848 125.204 119.659 125.527C120.116 125.609 120.574 125.692 121.035 125.778C121.596 125.881 122.157 125.987 122.718 126.096C123.072 126.163 123.426 126.23 123.78 126.3C124.201 126.383 124.625 126.466 125.046 126.548C127.818 127.098 130.576 127.686 133.266 128.3C133.708 128.401 134.151 128.505 134.59 128.606C135.468 128.811 136.339 129.019 137.201 129.23C137.439 129.288 137.674 129.346 137.909 129.404C138.497 129.551 139.08 129.697 139.656 129.844V129.847C139.69 129.853 139.723 129.863 139.757 129.872C140.178 129.979 140.596 130.086 141.011 130.196C141.99 130.453 142.953 130.712 143.899 130.972C144.528 131.15 145.15 131.324 145.763 131.501C146.681 131.771 147.581 132.04 148.456 132.309C148.673 132.376 148.889 132.443 149.103 132.507C149.743 132.709 150.372 132.91 150.988 133.11C151.476 133.269 151.952 133.431 152.422 133.593C152.891 133.755 153.352 133.917 153.803 134.079C154.096 134.183 154.383 134.29 154.667 134.394C155.081 134.547 155.484 134.7 155.881 134.856C156.003 134.902 156.122 134.95 156.241 134.996C156.463 135.082 156.68 135.171 156.893 135.259C157.037 135.314 157.177 135.372 157.317 135.434C157.455 135.489 157.595 135.547 157.729 135.605C157.866 135.66 158.001 135.718 158.135 135.779C158.248 135.825 158.357 135.874 158.464 135.923C158.681 136.018 158.897 136.112 159.108 136.21C159.211 136.259 159.315 136.305 159.419 136.354L159.657 136.464C159.69 136.482 159.724 136.498 159.757 136.513C160.017 136.635 160.267 136.757 160.511 136.88C160.74 136.996 160.962 137.112 161.176 137.225C161.429 137.36 161.67 137.491 161.902 137.626C161.948 137.65 161.993 137.678 162.039 137.702C162.195 137.791 162.344 137.883 162.494 137.971C162.786 138.152 163.064 138.329 163.323 138.506C163.579 138.684 163.817 138.858 164.04 139.032C164.04 139.035 164.04 139.035 164.043 139.035C164.15 139.121 164.254 139.207 164.351 139.289C164.51 139.427 164.656 139.558 164.79 139.693C164.835 139.734 164.878 139.778 164.918 139.824C164.936 139.839 164.953 139.855 164.967 139.873C165.031 139.944 165.095 140.014 165.156 140.084C165.23 140.17 165.297 140.255 165.361 140.341C165.391 140.384 165.425 140.427 165.452 140.469C165.489 140.521 165.526 140.576 165.556 140.628C165.583 140.671 165.608 140.717 165.632 140.76C165.697 140.87 165.752 140.986 165.797 141.105C165.83 141.187 165.858 141.271 165.879 141.356C165.902 141.437 165.92 141.52 165.931 141.604Z" fill="black"/>
</g>
<defs>
<clipPath id="clip0_8079_44216">
<rect width="240" height="174.975" fill="white" transform="translate(0 0.511719)"/>
</clipPath>
</defs>
</svg>
