<svg width="32" height="32" viewBox="0 0 32 32" fill="none" xmlns="http://www.w3.org/2000/svg">
<rect width="32" height="32" rx="16" fill="#3D87ED"/>
<path d="M20.9335 12.8934L19.1069 11.0667C18.8685 10.8428 18.5561 10.7143 18.2291 10.7057C17.9021 10.6971 17.5834 10.8089 17.3335 11.02L11.3335 17.02C11.118 17.2373 10.9839 17.5222 10.9535 17.8267L10.6669 20.6067C10.6579 20.7043 10.6706 20.8028 10.704 20.895C10.7374 20.9871 10.7907 21.0708 10.8602 21.14C10.9225 21.2018 10.9964 21.2507 11.0776 21.2839C11.1588 21.3171 11.2458 21.3339 11.3335 21.3334H11.3935L14.1735 21.08C14.4781 21.0497 14.7629 20.9155 14.9802 20.7L20.9802 14.7C21.2131 14.454 21.3389 14.1257 21.3302 13.7871C21.3214 13.4484 21.1788 13.127 20.9335 12.8934ZM14.0535 19.7467L12.0535 19.9334L12.2335 17.9334L16.0002 14.2134L17.8002 16.0134L14.0535 19.7467ZM18.6669 15.12L16.8802 13.3334L18.1802 12L20.0002 13.82L18.6669 15.12Z" fill="white"/>
</svg>
