<svg width="224" height="162" viewBox="0 0 224 162" fill="none" xmlns="http://www.w3.org/2000/svg">
<mask id="mask0_1404_2941" style="mask-type:luminance" maskUnits="userSpaceOnUse" x="0" y="0" width="224" height="162">
<path d="M189.12 161.355C208.332 161.782 223.65 145.997 223.65 123.488C223.65 96.7818 208.392 89.6606 203.543 74.612C199.246 61.2784 206.76 50.4957 197.897 35.9653C188.982 21.3518 171.503 4.62449 156.275 10.7689C128.745 21.8762 118.558 0.65364 93.8053 0.0136371C78.5853 -0.378884 63.7688 7.74945 53.1627 18.2775C44.8173 26.5621 44.4521 38.428 38.398 48.243C32.1328 58.3999 20.4698 67.4705 12.6609 76.2186C-9.20563 100.716 0.534372 142.464 22.5156 160.642C22.5156 160.642 189.055 161.353 189.12 161.355Z" fill="white"/>
</mask>
<g mask="url(#mask0_1404_2941)">
<path d="M189.12 161.355C208.332 161.782 223.65 145.997 223.65 123.488C223.65 96.7818 208.392 89.6606 203.543 74.612C199.246 61.2784 206.76 50.4957 197.897 35.9653C188.982 21.3518 171.503 4.62449 156.275 10.7689C128.745 21.8762 118.558 0.65364 93.8053 0.0136371C78.5853 -0.378884 63.7688 7.74945 53.1627 18.2775C44.8173 26.5621 44.4521 38.428 38.398 48.243C32.1328 58.3999 20.4698 67.4705 12.6609 76.2186C-9.20563 100.716 0.534372 142.464 22.5156 160.642C22.5156 160.642 189.055 161.353 189.12 161.355Z" fill="#C5DCFA"/>
<path d="M80.9228 120.17C80.9228 120.17 80.5577 121.143 80.371 121.434C79.7929 122.327 79.9004 128.45 74.04 131.924C73.3888 132.311 72.8178 132.79 72.2204 133.177C67.501 136.234 68.3621 136.581 65.7139 140.504C65.6632 140.579 65.5851 140.811 65.4826 141.181C65.1408 142.408 64.5191 145.153 63.6498 148.765C62.7928 152.323 61.6984 156.72 60.393 161.332C60.1435 162.212 59.891 163.116 59.6323 164.037C49.2361 165.681 39.6908 166.852 31.3789 167.469C33.4348 162.764 35.4268 158.203 37.2586 154.006C39.274 149.384 40.985 145.439 42.3817 142.212C44.7571 136.72 46.2197 133.3 46.7177 132.148C47.3922 130.585 48.376 126.223 49.4876 121.357C50.9938 114.763 52.7373 107.247 54.2709 104.538C54.8906 103.443 56.3187 102.293 58.0338 101.2C59.4477 100.298 63.5291 100.931 67.3468 98.6663C69.7517 97.2392 74.6009 102.178 74.3007 104.358C74.3007 104.365 74.2986 104.372 74.2976 104.379C74.1769 105.267 74.0664 106.094 73.9741 106.821C73.8006 108.178 73.6901 109.186 73.685 109.585C73.685 109.671 73.688 109.729 73.6982 109.755C73.7529 109.916 73.8087 110.074 73.8635 110.23C74.0735 110.836 74.2733 111.414 74.4589 111.953C74.466 111.972 74.4711 111.992 74.4781 112.01C74.5704 112.279 74.6587 112.537 74.7419 112.785C74.7571 112.829 74.7713 112.874 74.7875 112.918C75.1445 113.96 75.4214 114.784 75.5857 115.271C75.5989 115.309 75.6121 115.347 75.6222 115.379C75.7064 115.632 75.7521 115.767 75.7521 115.767C75.7521 115.767 77.0858 115.094 78.4399 115.346C78.8649 115.424 79.2888 115.593 79.6753 115.901C79.7767 115.981 79.8771 116.073 79.9745 116.174C80.0678 116.272 80.4076 116.724 80.8589 117.356C80.867 117.368 80.8751 117.379 80.8843 117.392C82.2353 119.292 81.3255 119.73 80.9279 120.169L80.9228 120.17Z" fill="#F9A58F"/>
<path d="M143.076 121.623C143.076 121.623 143.442 122.598 143.628 122.887C144.206 123.781 144.099 129.904 149.959 133.378C150.61 133.764 151.181 134.244 151.779 134.63C156.498 137.687 155.637 138.034 158.285 141.957C158.336 142.032 158.414 142.265 158.517 142.635C158.858 143.861 159.48 146.607 160.349 150.218C161.206 153.777 162.301 158.173 163.606 162.785C163.856 163.666 164.108 164.569 164.367 165.49C174.763 167.134 184.308 168.306 192.62 168.923C190.564 164.217 188.572 159.656 186.741 155.459C184.725 150.837 183.014 146.893 181.618 143.665C179.242 138.173 177.78 134.754 177.282 133.602C176.607 132.039 175.623 127.676 174.512 122.811C173.005 116.216 171.262 108.7 169.728 105.991C169.109 104.897 167.681 103.747 165.965 102.653C164.552 101.752 160.47 102.385 156.652 100.12C154.248 98.6927 149.398 103.631 149.699 105.812C149.699 105.819 149.701 105.825 149.702 105.832C149.822 106.721 149.933 107.547 150.025 108.274C150.199 109.632 150.309 110.64 150.314 111.038C150.314 111.125 150.311 111.182 150.301 111.209C150.246 111.369 150.191 111.527 150.136 111.683C149.926 112.29 149.726 112.867 149.54 113.407C149.533 113.426 149.528 113.445 149.521 113.463C149.429 113.732 149.341 113.991 149.257 114.238C149.242 114.283 149.228 114.328 149.212 114.371C148.855 115.414 148.578 116.237 148.414 116.724C148.4 116.763 148.387 116.8 148.377 116.833C148.293 117.085 148.247 117.22 148.247 117.22C148.247 117.22 146.913 116.548 145.559 116.799C145.134 116.877 144.71 117.047 144.324 117.354C144.223 117.434 144.122 117.527 144.025 117.627C143.931 117.725 143.592 118.178 143.14 118.81C143.132 118.822 143.124 118.833 143.115 118.845C141.764 120.746 142.674 121.183 143.071 121.622L143.076 121.623Z" fill="#F9A58F"/>
<path d="M160.742 150.036C162.605 149.233 165.208 148.893 168.423 149.196C174.907 149.808 177.195 145.98 181.618 143.665C182.36 143.276 183.674 142.651 185.514 142.287C186.933 142.009 188.219 142.896 189.434 144.603C192.389 148.751 206.376 186.381 209.543 195.645C207.148 195.544 204.98 195.4 203.252 195.272C192.182 194.456 186.922 206.247 177.839 204.748C176.461 201.194 158.273 157.527 157.836 156.389C156.307 152.415 159.44 150.602 160.741 150.037L160.742 150.036Z" fill="#3D87ED"/>
<path d="M163.941 127.001L163.991 126.788C163.976 126.785 162.529 126.429 161.213 124.664C159.994 123.028 158.642 119.815 159.127 113.794L158.909 113.777C158.638 117.145 158.789 121.794 161.05 124.811C162.413 126.631 163.88 126.987 163.941 127.001Z" fill="#E87765"/>
<path d="M63.2575 148.582C61.3943 147.779 58.7907 147.439 55.5765 147.743C49.0923 148.354 46.8041 144.526 42.3809 142.212C41.6394 141.822 40.3249 141.198 38.4851 140.833C37.0661 140.555 35.78 141.443 34.5649 143.15C31.6103 147.297 17.6236 184.928 14.4561 194.192C16.8507 194.091 19.0192 193.946 20.7476 193.819C31.8173 193.002 37.0773 204.793 46.16 203.295C47.5384 199.741 65.7262 156.074 66.1634 154.936C67.6919 150.962 64.5588 149.148 63.2585 148.583L63.2575 148.582Z" fill="#3D87ED"/>
<path d="M64.7471 65.4561L111.621 41.2384C112.81 40.6248 114.222 40.6248 115.411 41.2384L162.285 65.4561V101.823C162.285 104.102 160.437 105.95 158.158 105.95H68.8751C66.5961 105.95 64.7481 104.102 64.7481 101.823V65.4561H64.7471Z" fill="#97B6E8"/>
<path d="M155.757 30.6821L67.3083 36.3088C66.6553 36.3504 66.1596 36.9134 66.2012 37.5663L70.0184 97.5708C70.0599 98.2237 70.6229 98.7194 71.2759 98.6778L159.725 93.0511C160.378 93.0095 160.873 92.4466 160.832 91.7936L157.015 31.7892C156.973 31.1362 156.41 30.6406 155.757 30.6821Z" fill="#F2F2F2"/>
<g filter="url(#filter0_d_1404_2941)">
<path d="M162.284 65.4562V122.267H64.7471V65.4562L109.906 96.0171H117.904L162.284 65.4562Z" fill="white"/>
</g>
<path d="M78.542 122.267V114.554L113.515 93.8617L147.599 113.714V122.029L78.542 122.267Z" fill="white"/>
<path d="M64.7503 122.282L64.7432 122.252C66.5607 121.845 104.698 99.1084 112.324 94.5544C112.69 94.3363 113.507 93.8485 113.507 93.8485L113.515 93.8434L113.523 93.8485L114.714 94.5422L162.291 122.254L162.275 122.281L113.515 93.8809C113.43 93.9316 112.685 94.3769 112.341 94.5828C104.713 99.1368 66.5729 121.876 64.7503 122.283V122.282Z" fill="#060633"/>
<path d="M112.383 61.0311C109.422 61.2224 106.585 62.2874 104.23 64.0912C101.874 65.8951 100.107 68.3569 99.1506 71.1653C98.1944 73.9737 98.0925 77.0025 98.8577 79.8689C99.6229 82.7352 101.221 85.3103 103.45 87.2684C105.678 89.2266 108.438 90.4798 111.379 90.8698C114.32 91.2597 117.31 90.7688 119.972 89.4591C122.634 88.1494 124.848 86.0798 126.334 83.5119C127.819 80.944 128.51 77.9932 128.319 75.0326C128.192 73.0669 127.679 71.1455 126.809 69.378C125.94 67.6105 124.73 66.0316 123.251 64.7314C121.771 63.4313 120.049 62.4353 118.185 61.8004C116.32 61.1655 114.349 60.9041 112.383 61.0311ZM119.556 72.0064L113.295 81.4298C113.167 81.6199 112.998 81.7783 112.799 81.8927C112.601 82.0072 112.379 82.0746 112.15 82.09C111.923 82.1059 111.695 82.0698 111.484 81.9845C111.273 81.8992 111.084 81.7668 110.931 81.5976L106.978 77.1783C106.847 77.0308 106.746 76.859 106.682 76.6726C106.617 76.4863 106.59 76.289 106.602 76.0922C106.614 75.8953 106.664 75.7027 106.75 75.5253C106.836 75.3479 106.956 75.1892 107.104 75.0582C107.402 74.7938 107.792 74.6586 108.19 74.6822C108.387 74.6939 108.58 74.7443 108.757 74.8304C108.934 74.9166 109.093 75.0368 109.224 75.1843L111.865 78.1401L117.04 70.2901C117.149 70.1251 117.291 69.9833 117.455 69.8729C117.62 69.7624 117.804 69.6855 117.999 69.6464C118.193 69.6073 118.393 69.6069 118.587 69.6452C118.782 69.6834 118.967 69.7596 119.132 69.8693C119.297 69.9791 119.439 70.1202 119.549 70.2848C119.66 70.4493 119.736 70.634 119.776 70.8283C119.815 71.0226 119.815 71.2226 119.777 71.4171C119.739 71.6115 119.662 71.7965 119.553 71.9615L119.556 72.0064Z" fill="#50C878"/>
<path d="M49.4854 121.356C52.587 120.747 60.0125 127.459 62.7865 123.211C65.24 119.452 64.8607 115.104 65.1355 111.755C65.4337 108.119 66.2948 105.599 66.8415 104.651C68.2027 102.295 71.5163 97.796 73.4251 96.2979C77.541 93.0705 79.6892 91.7145 79.8302 88.9891C79.9104 87.4505 78.7135 87.0002 77.7855 87.1269C76.9325 87.2426 75.8391 87.9079 74.4181 88.8908C74.128 89.0926 68.1307 91.68 67.8142 91.9041C64.2491 94.4297 55.6116 101.509 55.6116 101.509C52.3679 104.918 49.4844 121.356 49.4844 121.356H49.4854Z" fill="#F9A58F"/>
<path d="M74.418 88.8908C74.5164 89.1829 74.708 89.5196 75.0813 89.8198C76.0063 90.5663 78.1413 88.7001 78.4061 88.3999C78.5886 88.1929 78.1028 87.5215 77.7853 87.127C76.9323 87.2426 75.839 87.9079 74.418 88.8908Z" fill="#FFB0A1"/>
<path d="M174.515 122.811C171.413 122.201 163.988 128.914 161.214 124.665C158.76 120.906 159.139 116.559 158.865 113.21C158.566 109.574 157.705 107.053 157.159 106.106C155.797 103.75 152.484 99.2505 150.575 97.7524C146.459 94.525 144.311 93.1689 144.17 90.4436C144.09 88.905 145.287 88.4546 146.215 88.5814C147.068 88.697 148.161 89.3624 149.582 90.3452C149.872 90.5471 155.869 93.1345 156.186 93.3586C159.751 95.8841 168.389 102.964 168.389 102.964C171.632 106.373 174.516 122.811 174.516 122.811H174.515Z" fill="#F9A58F"/>
<path d="M149.581 90.3442C149.482 90.6364 149.291 90.9731 148.917 91.2733C147.992 92.0198 145.857 90.1536 145.593 89.8533C145.41 89.6464 145.896 88.975 146.213 88.5804C147.066 88.6961 148.16 89.3614 149.581 90.3442Z" fill="#FFB0A1"/>
<path d="M60.0585 125.547L60.0088 125.334C60.023 125.331 61.4703 124.975 62.7859 123.211C64.005 121.574 65.357 118.361 64.8722 112.341L65.0903 112.323C65.3611 115.692 65.2099 120.34 62.9491 123.358C61.586 125.177 60.1193 125.533 60.0585 125.547Z" fill="#E87765"/>
<path d="M77.837 57.7203L72.4474 46.7777L75.2439 46.6368L79.9618 56.3316L78.3159 56.4145L82.0992 46.2913L84.6719 46.1616L80.3938 57.5914L77.837 57.7203ZM88.2139 50.5008L93.5991 50.2294L93.7006 52.2429L88.3154 52.5143L88.2139 50.5008ZM88.6376 55.0933L94.7259 54.7865L94.8306 56.8638L86.1696 57.3003L85.6058 46.1145L94.0591 45.6885L94.1638 47.7659L88.2833 48.0622L88.6376 55.0933ZM96.8904 56.76L96.3266 45.5742L101.168 45.3302C102.17 45.2797 103.041 45.4014 103.782 45.6951C104.523 45.9782 105.105 46.4134 105.53 47.0008C105.955 47.5881 106.188 48.3026 106.231 49.1442C106.273 49.9751 106.112 50.7042 105.748 51.3313C105.384 51.9477 104.848 52.434 104.14 52.7901C103.431 53.1462 102.577 53.3495 101.575 53.3999L98.1715 53.5715L99.2648 52.3789L99.4791 56.6296L96.8904 56.76ZM104.001 56.4016L101 52.4837L103.765 52.3444L106.798 56.2607L104.001 56.4016ZM99.2793 52.6666L98.0676 51.5101L101.327 51.3458C102.126 51.3055 102.714 51.105 103.091 50.7443C103.468 50.3728 103.641 49.8835 103.61 49.2763C103.579 48.6584 103.358 48.1889 102.946 47.8679C102.535 47.5469 101.93 47.4065 101.131 47.4468L97.8711 47.6111L98.9596 46.3226L99.2793 52.6666ZM108.641 56.1678L108.077 44.982L110.666 44.8515L111.23 56.0373L108.641 56.1678ZM115.971 49.6305L121.34 49.3599L121.445 51.4373L116.076 51.7079L115.971 49.6305ZM116.473 55.7731L113.884 55.9035L113.321 44.7177L121.774 44.2917L121.879 46.369L116.014 46.6646L116.473 55.7731ZM124.09 55.3892L123.526 44.2033L126.115 44.0729L126.679 55.2587L124.09 55.3892ZM131.378 48.3254L136.763 48.054L136.865 50.0674L131.479 50.3388L131.378 48.3254ZM131.802 52.9179L137.89 52.611L137.995 54.6884L129.334 55.1249L128.77 43.9391L137.223 43.513L137.328 45.5904L131.447 45.8868L131.802 52.9179ZM140.054 54.5846L139.491 43.3988L144.572 43.1427C145.787 43.0814 146.869 43.2619 147.819 43.6839C148.769 44.0953 149.526 44.7033 150.09 45.5079C150.654 46.3125 150.965 47.2848 151.022 48.4247C151.079 49.5539 150.868 50.5525 150.388 51.4204C149.908 52.2776 149.216 52.964 148.313 53.4794C147.409 53.9842 146.35 54.2672 145.136 54.3285L140.054 54.5846ZM142.536 52.3288L144.901 52.2096C145.647 52.172 146.284 52.001 146.814 51.6967C147.353 51.3811 147.759 50.9548 148.031 50.4178C148.313 49.8802 148.437 49.2599 148.401 48.5568C148.366 47.843 148.18 47.2382 147.845 46.7424C147.521 46.2355 147.075 45.8575 146.507 45.6084C145.949 45.3481 145.297 45.2368 144.551 45.2744L142.186 45.3936L142.536 52.3288Z" fill="#333333"/>
</g>
<defs>
<filter id="filter0_d_1404_2941" x="60.7471" y="60.4562" width="105.537" height="64.8112" filterUnits="userSpaceOnUse" color-interpolation-filters="sRGB">
<feFlood flood-opacity="0" result="BackgroundImageFix"/>
<feColorMatrix in="SourceAlpha" type="matrix" values="0 0 0 0 0 0 0 0 0 0 0 0 0 0 0 0 0 0 127 0" result="hardAlpha"/>
<feOffset dy="-1"/>
<feGaussianBlur stdDeviation="2"/>
<feColorMatrix type="matrix" values="0 0 0 0 0 0 0 0 0 0 0 0 0 0 0 0 0 0 0.15 0"/>
<feBlend mode="normal" in2="BackgroundImageFix" result="effect1_dropShadow_1404_2941"/>
<feBlend mode="normal" in="SourceGraphic" in2="effect1_dropShadow_1404_2941" result="shape"/>
</filter>
</defs>
</svg>
