<svg width="241" height="158" viewBox="0 0 241 158" fill="none" xmlns="http://www.w3.org/2000/svg">
<g clip-path="url(#clip0_8795_33436)">
<path d="M160.305 144.605L160.004 144.16C160.448 143.861 160.889 143.558 161.326 143.25L161.635 143.689C161.195 143.999 160.751 144.304 160.305 144.605Z" fill="#CCCCCC"/>
<path d="M116.978 157.982L116.974 157.445C118.06 157.437 119.157 157.407 120.236 157.355L120.262 157.891C119.176 157.944 118.071 157.974 116.978 157.982ZM113.692 157.938C112.602 157.901 111.498 157.841 110.411 157.759L110.452 157.224C111.531 157.305 112.627 157.365 113.71 157.401L113.692 157.938ZM123.539 157.665L123.491 157.13C124.569 157.033 125.66 156.912 126.734 156.771L126.804 157.303C125.723 157.446 124.624 157.568 123.539 157.665ZM107.141 157.444C106.055 157.317 104.96 157.165 103.886 156.994L103.971 156.463C105.038 156.634 106.125 156.785 107.203 156.911L107.141 157.444ZM130.051 156.805L129.959 156.276C131.024 156.09 132.101 155.878 133.16 155.646L133.275 156.171C132.209 156.404 131.124 156.617 130.051 156.805ZM100.653 156.407C99.5845 156.19 98.506 155.947 97.4474 155.685L97.5763 155.164C98.6276 155.424 99.6988 155.665 100.76 155.881L100.653 156.407ZM136.469 155.403L136.332 154.883C137.38 154.608 138.435 154.306 139.47 153.987L139.628 154.501C138.586 154.822 137.523 155.125 136.469 155.403ZM94.2675 154.827C93.2199 154.52 92.1634 154.187 91.1276 153.836L91.3 153.327C92.3288 153.676 93.3779 154.007 94.4183 154.311L94.2675 154.827ZM142.747 153.466L142.567 152.96C143.587 152.598 144.614 152.208 145.618 151.803L145.819 152.301C144.808 152.709 143.774 153.101 142.747 153.466ZM88.0328 152.713C87.0132 152.319 85.9891 151.898 84.989 151.461L85.2036 150.969C86.1969 151.402 87.214 151.82 88.2266 152.212L88.0328 152.713ZM148.84 151.009L148.618 150.519C149.606 150.072 150.596 149.598 151.562 149.111L151.804 149.59C150.832 150.081 149.834 150.558 148.84 151.009ZM82.001 150.083C81.0196 149.605 80.0349 149.1 79.0742 148.581L79.3293 148.109C80.2835 148.624 81.2615 149.126 82.2362 149.6L82.001 150.083ZM154.706 148.048L154.444 147.58C155.39 147.051 156.337 146.496 157.259 145.929L157.541 146.387C156.612 146.957 155.658 147.516 154.706 148.048ZM76.2133 146.958C75.2766 146.4 74.3379 145.814 73.4233 145.217L73.7172 144.767C74.6255 145.361 75.5577 145.943 76.488 146.496L76.2133 146.958ZM70.7089 143.361C69.8221 142.727 68.9358 142.066 68.0745 141.394L68.4047 140.971C69.2601 141.638 70.1404 142.295 71.0212 142.924L70.7089 143.361ZM65.5246 139.32C64.6922 138.613 63.8641 137.881 63.0633 137.142L63.4275 136.747C64.2229 137.481 65.0454 138.209 65.872 138.91L65.5246 139.32ZM60.6951 134.863C59.9249 134.091 59.1606 133.292 58.4236 132.489L58.8194 132.126C59.5513 132.924 60.3103 133.717 61.0753 134.484L60.6951 134.863ZM56.253 130.023C55.5506 129.191 54.8555 128.332 54.1869 127.47L54.6114 127.14C55.2754 127.997 55.9658 128.85 56.6634 129.677L56.253 130.023ZM52.2291 124.832C51.5977 123.944 50.9766 123.03 50.383 122.117L50.8334 121.824C51.4229 122.731 52.0397 123.639 52.6669 124.521L52.2291 124.832ZM48.652 119.327C48.0968 118.389 47.5542 117.427 47.0392 116.468L47.5124 116.214C48.0239 117.167 48.5628 118.122 49.1142 119.053L48.652 119.327ZM45.5478 113.544C45.0733 112.564 44.6132 111.561 44.1803 110.562L44.6731 110.348C45.103 111.34 45.5599 112.337 46.0312 113.31L45.5478 113.544ZM42.9395 107.525C42.5485 106.508 42.174 105.469 41.8265 104.437L42.3354 104.266C42.6806 105.29 43.0525 106.322 43.4408 107.333L42.9395 107.525Z" fill="#CCCCCC"/>
<path d="M40.835 101.274C40.685 100.758 40.5402 100.238 40.4006 99.7171L40.9193 99.5781C41.058 100.096 41.2018 100.611 41.3508 101.125L40.835 101.274Z" fill="#CCCCCC"/>
<path d="M194.06 70.5508C194.001 70.018 193.936 69.4868 193.866 68.9573L194.398 68.8867C194.469 69.42 194.534 69.9548 194.594 70.4913L194.06 70.5508Z" fill="#CCCCCC"/>
<path d="M187.112 113.853L186.629 113.616C187.091 112.674 187.539 111.709 187.962 110.748L188.453 110.964C188.028 111.932 187.576 112.904 187.112 113.853ZM189.677 108.023L189.177 107.827C189.56 106.85 189.928 105.851 190.272 104.859L190.779 105.034C190.434 106.034 190.063 107.039 189.677 108.023ZM191.759 102.004L191.244 101.849C191.547 100.842 191.833 99.817 192.094 98.8015L192.614 98.9351C192.351 99.9575 192.064 100.99 191.759 102.004ZM193.343 95.8343L192.818 95.7221C193.037 94.6956 193.239 93.6503 193.416 92.6153L193.946 92.7061C193.767 93.7483 193.564 94.8009 193.343 95.8343ZM194.421 89.556L193.888 89.4868C194.023 88.4473 194.139 87.3891 194.233 86.3415L194.768 86.3892C194.674 87.444 194.557 88.5095 194.421 89.556ZM194.987 83.2107L194.451 83.1845C194.502 82.1377 194.533 81.0734 194.542 80.0215L195.079 80.0262C195.07 81.0853 195.039 82.1568 194.987 83.2107ZM194.508 76.857C194.476 75.807 194.422 74.7442 194.347 73.6982L194.883 73.6602C194.958 74.7134 195.012 75.7834 195.045 76.8405L194.508 76.857Z" fill="#CCCCCC"/>
<path d="M184.875 118.09L184.408 117.825C184.672 117.36 184.931 116.893 185.185 116.422L185.658 116.677C185.402 117.151 185.141 117.622 184.875 118.09Z" fill="#CCCCCC"/>
<path d="M45.8297 45.7222L45.3449 45.4912C45.577 45.0043 45.8139 44.5203 46.0556 44.0391L46.5355 44.2801C46.2955 44.7581 46.0602 45.2388 45.8297 45.7222Z" fill="#CCCCCC"/>
<path d="M48.0351 41.4415L47.5656 41.1808C48.0862 40.2427 48.6334 39.3031 49.1917 38.3878L49.6502 38.6676C49.0956 39.5765 48.5523 40.5098 48.0351 41.4415ZM183.388 39.0446C182.84 38.1339 182.264 37.2209 181.677 36.3311L182.125 36.0354C182.716 36.9313 183.296 37.8505 183.848 38.7674L183.388 39.0446ZM51.3781 35.9617L50.9315 35.6635C51.5274 34.7714 52.1498 33.8794 52.7816 33.0126L53.2156 33.3289C52.5881 34.1899 51.9699 35.0757 51.3781 35.9617ZM179.856 33.6899C179.233 32.8258 178.585 31.9629 177.928 31.1253L178.351 30.7939C179.012 31.6372 179.665 32.506 180.292 33.3761L179.856 33.6899ZM55.1593 30.7738L54.7386 30.44C55.4056 29.5994 56.0988 28.7616 56.7989 27.9497L57.2056 28.3006C56.5102 29.1068 55.8218 29.9389 55.1593 30.7738ZM175.897 28.6414C175.205 27.8302 174.488 27.0229 173.765 26.2421L174.159 25.8773C174.887 26.6635 175.609 27.4761 176.305 28.2929L175.897 28.6414ZM59.3511 25.913L58.9591 25.5459C59.6916 24.7635 60.4507 23.9851 61.2154 23.2325L61.5921 23.6151C60.8327 24.3627 60.0787 25.1359 59.3511 25.913ZM171.538 23.9317C170.783 23.1804 170.002 22.4343 169.217 21.7139L169.58 21.3182C170.371 22.0435 171.157 22.7948 171.917 23.5512L171.538 23.9317ZM63.9249 21.4109L63.564 21.0131C64.358 20.293 65.178 19.5793 66.0012 18.8917L66.3455 19.3039C65.5278 19.9867 64.7135 20.6957 63.9249 21.4109ZM166.808 19.5926C165.994 18.9049 165.155 18.2248 164.314 17.5712L164.644 17.1472C165.491 17.8053 166.335 18.4901 167.155 19.1825L166.808 19.5926ZM68.8499 17.2976L68.5228 16.8717C69.3725 16.219 70.2479 15.5747 71.1246 14.9567L71.434 15.3956C70.5633 16.0095 69.6939 16.6495 68.8499 17.2976ZM161.739 15.6533C160.872 15.0343 159.98 14.425 159.088 13.8423L159.382 13.3927C160.28 13.9795 161.178 14.5928 162.051 15.2161L161.739 15.6533ZM74.0936 13.6012L73.8024 13.1499C74.7028 12.5689 75.6278 11.9986 76.5517 11.4547L76.8242 11.9175C75.9066 12.4577 74.9878 13.0241 74.0936 13.6012ZM156.364 12.1416C155.45 11.5962 154.51 11.062 153.573 10.5541L153.828 10.0818C154.773 10.5933 155.718 11.1311 156.639 11.6803L156.364 12.1416ZM79.6214 10.3473L79.3682 9.87372C80.3141 9.36814 81.2826 8.8758 82.247 8.41034L82.4804 8.8939C81.5227 9.3562 80.5608 9.84527 79.6214 10.3473ZM150.718 9.08256C149.758 8.61291 148.778 8.15793 147.804 7.73024L148.02 7.23856C149 7.66914 149.987 8.12725 150.954 8.60032L150.718 9.08256ZM85.3963 7.55992L85.183 7.06693C86.1659 6.64172 87.1714 6.23094 88.1719 5.84611L88.3646 6.3475C87.3711 6.72957 86.3724 7.13747 85.3963 7.55992ZM144.837 6.4992C143.844 6.11136 142.829 5.73874 141.82 5.39193L141.995 4.88399C143.011 5.23328 144.033 5.6084 145.032 5.99899L144.837 6.4992ZM91.3799 5.25885L91.208 4.75012C92.224 4.40686 93.2598 4.08065 94.2865 3.78053L94.4371 4.29607C93.4175 4.5941 92.3889 4.91808 91.3799 5.25885ZM138.76 4.4104C137.738 4.10569 136.696 3.81829 135.662 3.55632L135.794 3.03579C136.835 3.2996 137.884 3.58884 138.914 3.89565L138.76 4.4104ZM97.5309 3.46034L97.4016 2.93903C98.442 2.68113 99.5007 2.44158 100.548 2.22734L100.656 2.75338C99.6155 2.96631 98.5641 3.20415 97.5309 3.46034ZM132.53 2.83139C131.49 2.61321 130.429 2.41339 129.376 2.2373L129.465 1.7076C130.525 1.88487 131.594 2.08613 132.64 2.30587L132.53 2.83139ZM103.813 2.17502L103.727 1.64479C104.785 1.4733 105.862 1.32159 106.927 1.19389L106.991 1.727C105.933 1.85392 104.864 2.0047 103.813 2.17502ZM126.2 1.77368C125.146 1.64178 124.072 1.52968 123.009 1.44078L123.053 0.905567C124.124 0.995117 125.206 1.10788 126.267 1.24083L126.2 1.77368ZM110.184 1.40983L110.142 0.874358C111.21 0.79031 112.296 0.726982 113.368 0.686204L113.388 1.22286C112.323 1.26338 111.245 1.32618 110.184 1.40983ZM119.806 1.23833C118.742 1.19297 117.663 1.16858 116.597 1.16595L116.599 0.628906C117.671 0.63153 118.758 0.656051 119.829 0.70181L119.806 1.23833Z" fill="#CCCCCC"/>
<path d="M185.756 43.2678C185.509 42.7928 185.257 42.3207 185 41.8515L185.471 41.5938C185.73 42.0662 185.983 42.5415 186.232 43.0198L185.756 43.2678Z" fill="#CCCCCC"/>
<path d="M99.2195 53.2578H94.2518V95.2818C94.2505 96.3496 93.8257 97.3734 93.0706 98.1285C92.3156 98.8835 91.2918 99.3083 90.224 99.3096H8.99554V102.935C8.99726 104.145 9.47875 105.305 10.3345 106.161C11.1902 107.016 12.3503 107.498 13.5604 107.5H99.2195C100.43 107.498 101.59 107.016 102.445 106.161C103.301 105.305 103.783 104.145 103.784 102.935V57.8227C103.783 56.6126 103.301 55.4524 102.445 54.5967C101.59 53.741 100.43 53.2595 99.2195 53.2578Z" fill="#F2F2F2"/>
<path d="M90.224 45.6055H4.5649C3.35474 45.6072 2.19463 46.0887 1.33892 46.9444C0.483204 47.8001 0.00171194 48.9602 0 50.1704V95.2823C0.00171265 96.4925 0.483208 97.6526 1.33892 98.5083C2.19464 99.364 3.35474 99.8455 4.5649 99.8472H90.224C91.4341 99.8455 92.5942 99.364 93.4499 98.5083C94.3056 97.6526 94.7871 96.4925 94.7889 95.2823V50.1704C94.7871 48.9602 94.3056 47.8001 93.4499 46.9444C92.5942 46.0887 91.4341 45.6072 90.224 45.6055ZM94.2518 95.2823C94.2505 96.3502 93.8257 97.3739 93.0706 98.129C92.3156 98.8841 91.2918 99.3089 90.224 99.3102H4.5649C3.49705 99.3089 2.4733 98.8841 1.71821 98.129C0.963126 97.3739 0.538346 96.3502 0.537047 95.2823V50.1704C0.538346 49.1025 0.963126 48.0788 1.71821 47.3237C2.4733 46.5686 3.49705 46.1438 4.5649 46.1425H90.224C91.2918 46.1438 92.3156 46.5686 93.0706 47.3237C93.8257 48.0788 94.2505 49.1025 94.2518 50.1704V95.2823Z" fill="#3F3D56"/>
<path d="M83.7635 78.9018H53.6889C53.1192 78.9018 52.5728 78.6755 52.1699 78.2727C51.767 77.8698 51.5407 77.3234 51.5407 76.7537C51.5407 76.1839 51.767 75.6375 52.1699 75.2347C52.5728 74.8318 53.1192 74.6055 53.6889 74.6055H83.7635C84.3333 74.6055 84.8797 74.8318 85.2825 75.2347C85.6854 75.6375 85.9117 76.1839 85.9117 76.7537C85.9117 77.3234 85.6854 77.8698 85.2825 78.2727C84.8797 78.6755 84.3333 78.9018 83.7635 78.9018Z" fill="#CCCCCC"/>
<path d="M64.9669 69.7729H53.6889C53.1192 69.7729 52.5728 69.5466 52.1699 69.1438C51.767 68.7409 51.5407 68.1945 51.5407 67.6248C51.5407 67.055 51.767 66.5086 52.1699 66.1058C52.5728 65.7029 53.1192 65.4766 53.6889 65.4766H64.9669C65.5366 65.4766 66.083 65.7029 66.4859 66.1058C66.8888 66.5086 67.1151 67.055 67.1151 67.6248C67.1151 68.1945 66.8888 68.7409 66.4859 69.1438C66.083 69.5466 65.5366 69.7729 64.9669 69.7729Z" fill="#CCCCCC"/>
<path d="M40.1443 89.6425H12.7549C12.1497 89.6418 11.5696 89.4011 11.1417 88.9732C10.7138 88.5453 10.4731 87.9651 10.4724 87.36V57.0168C10.4731 56.4117 10.7138 55.8315 11.1417 55.4036C11.5696 54.9757 12.1497 54.7351 12.7549 54.7344H40.1443C40.7494 54.7351 41.3296 54.9757 41.7575 55.4036C42.1854 55.8315 42.426 56.4117 42.4267 57.0168V87.36C42.426 87.9651 42.1854 88.5453 41.7575 88.9732C41.3296 89.4011 40.7494 89.6418 40.1443 89.6425Z" fill="#3D88ED"/>
<path d="M26.8641 83.3244C26.2601 83.3076 25.5085 83.2864 24.9298 82.8637C24.7574 82.7326 24.6158 82.5653 24.5148 82.3737C24.4138 82.1821 24.3559 81.9708 24.3453 81.7544C24.3348 81.6007 24.36 81.4466 24.419 81.3043C24.4779 81.1619 24.569 81.0351 24.6851 80.9338C24.8576 80.805 25.0596 80.7215 25.2726 80.6908C25.4857 80.6601 25.7031 80.6833 25.9049 80.7582L25.4119 77.1551L25.7738 77.1055L26.3534 81.3414L26.0512 81.2027C25.7008 81.042 25.2198 80.9603 24.9209 81.2128C24.8475 81.2788 24.7903 81.3608 24.7538 81.4525C24.7173 81.5442 24.7024 81.6431 24.7104 81.7415C24.7192 81.9025 24.7626 82.0597 24.8377 82.2025C24.9127 82.3452 25.0177 82.4701 25.1453 82.5686C25.5957 82.8977 26.1948 82.9402 26.8743 82.9593L26.8641 83.3244Z" fill="#F2F2F2"/>
<path d="M23.622 77.4648H21.6544V77.8302H23.622V77.4648Z" fill="#F2F2F2"/>
<path d="M29.8324 77.4648H27.8648V77.8302H29.8324V77.4648Z" fill="#F2F2F2"/>
<path d="M18.2362 72.4213C16.6517 72.2406 15.4246 70.7225 15.2899 69.1822C15.1295 67.3497 16.1967 65.6093 17.6607 64.581C19.1918 63.5057 21.0994 63.0566 22.9451 62.9578C26.5455 62.7786 30.0839 63.9449 32.8722 66.2298C34.2552 67.3785 35.5468 68.8416 36.0364 70.609C36.4615 72.1438 36.1155 73.8826 34.8811 74.9576C34.5757 75.221 34.2191 75.4183 33.8336 75.5369C33.4482 75.6556 33.0424 75.6931 32.6417 75.647C31.6839 75.5476 30.8001 75.0439 30.0351 74.4877C28.547 73.4058 27.3253 71.8985 25.5124 71.3331C24.183 70.9185 22.458 71.2834 21.6456 72.4856C21.4613 72.7608 21.3418 73.0742 21.2963 73.4023C21.2795 73.4722 21.2899 73.546 21.3254 73.6086C21.361 73.6711 21.4189 73.7179 21.4876 73.7393C21.5577 73.7582 21.6323 73.7487 21.6954 73.7128C21.7585 73.677 21.805 73.6178 21.8247 73.5479C22.0379 72.0338 23.8997 71.4688 25.2061 71.8146C27.111 72.3188 28.3897 74.0186 29.9526 75.0985C30.7616 75.7018 31.7146 76.0822 32.7166 76.2018C33.5854 76.27 34.4476 76.0051 35.1283 75.4609C36.4635 74.4066 36.9741 72.5933 36.6789 70.9607C36.337 69.0701 35.0645 67.4497 33.6683 66.1953C30.8378 63.6789 27.1632 62.3215 23.3766 62.3933C21.4452 62.4377 19.43 62.8364 17.7662 63.8572C16.1523 64.8474 14.9048 66.5039 14.7418 68.4295C14.5983 70.1244 15.5076 71.8971 17.0686 72.6397C17.4366 72.814 17.8313 72.9254 18.2362 72.9692C18.5859 73.0091 18.5831 72.4608 18.2362 72.4213Z" fill="#F2F2F2"/>
<path d="M235.898 124.418H231.586V138.467C231.584 139.677 231.102 140.837 230.247 141.693C229.391 142.549 228.231 143.03 227.021 143.032H119.359V145.094C119.36 146.447 119.898 147.744 120.854 148.701C121.811 149.657 123.108 150.195 124.461 150.196H235.898C237.251 150.195 238.548 149.657 239.504 148.701C240.461 147.744 240.999 146.447 241 145.094V129.52C240.999 128.167 240.461 126.87 239.504 125.914C238.548 124.957 237.251 124.419 235.898 124.418Z" fill="#F2F2F2"/>
<path d="M227.021 117.789H115.583C114.231 117.79 112.934 118.328 111.977 119.285C111.021 120.241 110.483 121.538 110.481 122.891V138.465C110.483 139.818 111.021 141.115 111.977 142.072C112.934 143.028 114.231 143.566 115.583 143.567H227.021C228.373 143.566 229.67 143.028 230.627 142.072C231.583 141.115 232.121 139.818 232.123 138.465V122.891C232.121 121.538 231.583 120.241 230.627 119.285C229.67 118.328 228.373 117.79 227.021 117.789ZM231.586 138.465C231.584 139.676 231.102 140.836 230.247 141.691C229.391 142.547 228.231 143.029 227.021 143.03H115.583C114.373 143.029 113.213 142.547 112.357 141.691C111.502 140.836 111.02 139.676 111.018 138.465V122.891C111.02 121.681 111.502 120.521 112.357 119.665C113.213 118.809 114.373 118.328 115.583 118.326H227.021C228.231 118.328 229.391 118.809 230.247 119.665C231.102 120.521 231.584 121.681 231.586 122.891V138.465Z" fill="#3F3D56"/>
<path d="M135.14 122.09C133.441 122.09 131.779 122.594 130.366 123.538C128.953 124.482 127.852 125.824 127.202 127.394C126.551 128.964 126.381 130.692 126.713 132.359C127.044 134.026 127.863 135.557 129.064 136.759C130.266 137.96 131.797 138.779 133.464 139.11C135.131 139.442 136.858 139.272 138.429 138.621C139.999 137.971 141.341 136.87 142.285 135.456C143.229 134.043 143.733 132.382 143.733 130.683C143.73 128.404 142.824 126.22 141.213 124.609C139.603 122.999 137.418 122.092 135.14 122.09Z" fill="#3D88ED"/>
<path d="M213.909 137.929H152.417C151.847 137.929 151.301 137.703 150.898 137.3C150.495 136.897 150.269 136.351 150.269 135.781C150.269 135.211 150.495 134.665 150.898 134.262C151.301 133.859 151.847 133.633 152.417 133.633H213.909C214.478 133.633 215.025 133.859 215.428 134.262C215.831 134.665 216.057 135.211 216.057 135.781C216.057 136.351 215.831 136.897 215.428 137.3C215.025 137.703 214.478 137.929 213.909 137.929Z" fill="#CCCCCC"/>
<path d="M183.029 128.8H152.417C151.847 128.8 151.301 128.574 150.898 128.171C150.495 127.768 150.269 127.222 150.269 126.652C150.269 126.082 150.495 125.536 150.898 125.133C151.301 124.73 151.847 124.504 152.417 124.504H183.029C183.598 124.504 184.145 124.73 184.548 125.133C184.95 125.536 185.177 126.082 185.177 126.652C185.177 127.222 184.95 127.768 184.548 128.171C184.145 128.574 183.598 128.8 183.029 128.8Z" fill="#CCCCCC"/>
<path d="M134.558 134.44C134.336 134.44 134.119 134.368 133.942 134.235L133.931 134.227L131.611 132.453C131.394 132.286 131.252 132.041 131.217 131.77C131.181 131.499 131.254 131.224 131.42 131.007C131.587 130.79 131.832 130.648 132.103 130.613C132.375 130.577 132.649 130.65 132.866 130.817L134.368 131.969L137.918 127.337C138 127.23 138.103 127.14 138.22 127.072C138.337 127.004 138.467 126.96 138.601 126.942C138.735 126.925 138.871 126.934 139.002 126.969C139.133 127.004 139.255 127.064 139.363 127.146L139.363 127.146L139.341 127.177L139.364 127.146C139.58 127.313 139.722 127.559 139.758 127.829C139.793 128.1 139.72 128.374 139.554 128.591L135.378 134.037C135.282 134.162 135.158 134.264 135.015 134.333C134.873 134.403 134.717 134.439 134.559 134.439L134.558 134.44Z" fill="white"/>
<path d="M220.055 47.8906H219.486C219.497 48.0061 219.502 48.1242 219.502 48.2451V63.8195C219.5 65.0296 219.019 66.1897 218.163 67.0454C217.307 67.9011 216.147 68.3826 214.937 68.3844H161.517V68.5669C161.517 68.6851 161.522 68.8032 161.53 68.9214C161.62 70.2098 162.196 71.4161 163.14 72.2971C164.084 73.1782 165.327 73.6684 166.619 73.6689H220.055C221.408 73.6677 222.705 73.1298 223.661 72.1732C224.618 71.2167 225.156 69.9197 225.157 68.5669V52.9926C225.156 51.6398 224.618 50.3428 223.661 49.3863C222.705 48.4298 221.408 47.8918 220.055 47.8906Z" fill="#F2F2F2"/>
<path d="M220.026 47.8881C219.936 46.5997 219.361 45.3934 218.416 44.5124C217.472 43.6313 216.229 43.1411 214.937 43.1406H161.501C160.148 43.1418 158.851 43.6798 157.895 44.6363C156.938 45.5928 156.4 46.8898 156.399 48.2426V63.8169C156.4 65.1697 156.938 66.4667 157.895 67.4232C158.851 68.3798 160.148 68.9177 161.501 68.9189H214.937C216.29 68.9177 217.587 68.3798 218.543 67.4232C219.5 66.4667 220.038 65.1697 220.039 63.8169V48.2426C220.039 48.1244 220.034 48.0063 220.026 47.8881ZM219.502 63.8169C219.5 65.0271 219.019 66.1872 218.163 67.0429C217.307 67.8986 216.147 68.3801 214.937 68.3818H161.501C160.291 68.3801 159.131 67.8986 158.275 67.0429C157.419 66.1872 156.938 65.0271 156.936 63.8169V48.2426C156.938 47.0324 157.419 45.8723 158.275 45.0166C159.131 44.1609 160.291 43.6794 161.501 43.6777H214.937C216.086 43.6793 217.192 44.1134 218.035 44.8937C218.877 45.6739 219.396 46.743 219.486 47.8881C219.497 48.0036 219.502 48.1217 219.502 48.2426V63.8169Z" fill="#3F3D56"/>
<path d="M201.377 62.7456H175.062C174.492 62.7456 173.945 62.5193 173.543 62.1164C173.14 61.7135 172.913 61.1671 172.913 60.5974C172.913 60.0277 173.14 59.4813 173.543 59.0784C173.945 58.6755 174.492 58.4492 175.062 58.4492H201.377C201.947 58.4492 202.493 58.6755 202.896 59.0784C203.299 59.4813 203.525 60.0277 203.525 60.5974C203.525 61.1671 203.299 61.7135 202.896 62.1164C202.493 62.5193 201.947 62.7456 201.377 62.7456Z" fill="#CCCCCC"/>
<path d="M193.321 53.6128H175.062C174.492 53.6128 173.945 53.3865 173.543 52.9836C173.14 52.5807 172.913 52.0343 172.913 51.4646C172.913 50.8949 173.14 50.3485 173.543 49.9456C173.945 49.5427 174.492 49.3164 175.062 49.3164H193.321C193.891 49.3164 194.437 49.5427 194.84 49.9456C195.243 50.3485 195.469 50.8949 195.469 51.4646C195.469 52.0343 195.243 52.5807 194.84 52.9836C194.437 53.3865 193.891 53.6128 193.321 53.6128Z" fill="#CCCCCC"/>
</g>
<defs>
<clipPath id="clip0_8795_33436">
<rect width="241" height="157.353" fill="white" transform="translate(0 0.628906)"/>
</clipPath>
</defs>
</svg>
