            <svg width="374" height="120" viewBox="0 0 374 120" fill="none" xmlns="http://www.w3.org/2000/svg">
<g clip-path="url(#clip0_4775_28602)">
<path d="M362.949 107.49H349.275C348.967 107.49 348.662 107.556 348.382 107.686C348.102 107.815 347.853 108.004 347.654 108.24C347.15 108.147 346.631 108.175 346.139 108.322C345.648 108.469 345.199 108.73 344.828 109.084C344.457 109.439 344.176 109.876 344.006 110.36C343.837 110.844 343.786 111.361 343.855 111.869C343.925 112.377 344.114 112.862 344.407 113.282C344.7 113.703 345.089 114.048 345.541 114.29C345.994 114.531 346.497 114.662 347.01 114.671C347.522 114.68 348.03 114.568 348.491 114.343L349.625 118.028C349.759 118.465 350.03 118.847 350.398 119.119C350.765 119.39 351.21 119.537 351.667 119.537H360.557C361.014 119.537 361.459 119.39 361.826 119.119C362.194 118.847 362.465 118.465 362.599 118.028L364.991 110.255C365.089 109.936 365.111 109.597 365.055 109.268C364.999 108.938 364.866 108.626 364.668 108.358C364.469 108.089 364.21 107.87 363.911 107.719C363.613 107.569 363.283 107.49 362.949 107.49ZM347.077 113.745C346.463 113.745 345.874 113.501 345.439 113.067C345.005 112.632 344.761 112.043 344.761 111.428C344.761 110.814 345.005 110.225 345.439 109.79C345.874 109.356 346.463 109.112 347.077 109.112C347.12 109.112 347.159 109.122 347.201 109.124C347.109 109.497 347.12 109.888 347.233 110.255L348.212 113.436C347.867 113.636 347.476 113.743 347.077 113.745Z" fill="#F0F0F0"/>
<path d="M29.821 97.7607H16.1471C15.8387 97.76 15.5338 97.8267 15.2538 97.9562C14.9738 98.0856 14.7255 98.2747 14.5262 98.5101C14.0219 98.4174 13.5027 98.4457 13.0114 98.5925C12.5201 98.7394 12.0706 99.0006 11.6998 99.3549C11.3291 99.7091 11.0476 100.146 10.8786 100.63C10.7095 101.114 10.6577 101.632 10.7273 102.14C10.7969 102.648 10.9861 103.132 11.2792 103.553C11.5723 103.974 11.961 104.319 12.4134 104.56C12.8658 104.802 13.369 104.933 13.8817 104.942C14.3944 104.951 14.902 104.838 15.3628 104.613L16.9602 118.029C17.0946 118.465 17.3654 118.847 17.733 119.119C18.1005 119.39 18.5455 119.537 19.0024 119.537H27.8926C28.3495 119.537 28.7944 119.39 29.1619 119.119C29.5294 118.847 29.8002 118.465 29.9345 118.029L31.8632 100.526C31.9615 100.206 31.9834 99.8679 31.9272 99.5384C31.871 99.2088 31.7383 98.897 31.5396 98.628C31.341 98.3591 31.082 98.1405 30.7835 97.9899C30.485 97.8392 30.1553 97.7608 29.821 97.7607ZM13.9493 104.016C13.3349 104.016 12.7457 103.771 12.3112 103.337C11.8768 102.903 11.6327 102.313 11.6327 101.699C11.6327 101.085 11.8768 100.495 12.3112 100.061C12.7457 99.6264 13.3349 99.3824 13.9493 99.3824C13.9916 99.3824 14.031 99.3926 14.0728 99.3948C13.9807 99.7677 13.9919 100.159 14.1052 100.526L15.0836 103.706C14.7389 103.906 14.3479 104.013 13.9493 104.016Z" fill="#F0F0F0"/>
<path d="M191.361 86.6411C191.361 85.908 191.144 85.1914 190.737 84.5819C190.329 83.9723 189.751 83.4973 189.073 83.2167C188.396 82.9362 187.651 82.8628 186.932 83.0058C186.213 83.1488 185.552 83.5018 185.034 84.0202C184.516 84.5386 184.162 85.199 184.019 85.918C183.876 86.637 183.95 87.3823 184.23 88.0596C184.511 88.7369 184.986 89.3157 185.596 89.723C186.205 90.1303 186.922 90.3477 187.655 90.3477C187.701 90.3477 187.746 90.3425 187.791 90.3408C188.708 93.32 189.198 96.414 189.246 99.5307C189.281 101.084 189.192 102.638 188.98 104.178C188.819 105.271 188.518 106.524 187.433 107.034C186.625 107.415 187.329 108.613 188.135 108.234C189.358 107.659 189.953 106.369 190.22 105.108C190.524 103.483 190.664 101.831 190.638 100.177C190.653 96.7399 190.151 93.3199 189.149 90.0317C189.807 89.7421 190.366 89.2673 190.759 88.6653C191.152 88.0633 191.361 87.36 191.361 86.6411Z" fill="#E6E6E6"/>
<path d="M190.229 108.976C190.229 108.976 185.259 96.7425 200.169 87.5674L190.229 108.976Z" fill="#E6E6E6"/>
<path d="M189.962 108.754C189.962 108.754 188.446 100.034 176.712 100.109L189.962 108.754Z" fill="#E6E6E6"/>
<path d="M198.277 119.463H177.9C177.509 119.463 177.126 119.353 176.794 119.145C176.463 118.938 176.196 118.642 176.025 118.29L171.589 109.171C171.434 108.853 171.363 108.501 171.382 108.148C171.401 107.796 171.509 107.453 171.696 107.154C171.884 106.854 172.144 106.607 172.453 106.436C172.762 106.265 173.11 106.175 173.463 106.175H202.713C203.066 106.175 203.414 106.265 203.723 106.436C204.032 106.607 204.293 106.854 204.48 107.154C204.667 107.453 204.775 107.795 204.794 108.148C204.813 108.501 204.742 108.853 204.587 109.171L200.151 118.29C199.98 118.642 199.713 118.938 199.382 119.145C199.05 119.353 198.667 119.463 198.277 119.463Z" fill="#F0F0F0"/>
<path d="M372.56 120H1.43988C1.317 120 1.19916 119.951 1.11227 119.864C1.02538 119.777 0.976562 119.659 0.976562 119.537C0.976562 119.414 1.02538 119.296 1.11227 119.209C1.19916 119.122 1.317 119.073 1.43988 119.073H372.56C372.682 119.073 372.8 119.122 372.887 119.209C372.974 119.296 373.023 119.414 373.023 119.537C373.023 119.659 372.974 119.777 372.887 119.864C372.8 119.951 372.682 120 372.56 120Z" fill="#3F3D56"/>
<path d="M78.386 93.0939L69.3813 59.0468L68.3389 55.1165L69.3165 54.2088L86.0989 45.8945L110.08 46.4918L124.159 53.7196L124.235 59.0468L124.93 107.043L127.739 118.823H76.2288L80.2281 100.061L78.386 93.0939Z" fill="#3D88ED"/>
<path d="M137.623 118.823H124.199L120.493 92.0617L121.463 59.0464L121.597 54.5548L124.159 53.7188C126.091 55.1293 127.687 56.9484 128.836 59.0464C130.482 61.9128 131.851 66.0208 131.51 71.5438C131.51 71.5438 131.814 78.0658 131.525 82.409C131.326 85.3769 134.789 104.136 137.623 118.823Z" fill="#3D88ED"/>
<path d="M78.4325 92.7531L78.3855 93.0934L74.824 118.823H59.3877C60.6255 104.244 62.0804 86.0176 61.885 83.0968C61.5955 78.7573 61.8995 72.2316 61.8995 72.2316C61.5303 66.2489 63.1699 61.9347 64.9904 59.0465C65.9063 57.5783 67.0344 56.2537 68.3382 55.1159C68.6274 54.8621 68.932 54.6264 69.2503 54.4102L71.8128 55.2426L72.4824 59.0465L78.4325 92.7531Z" fill="#3D88ED"/>
<path d="M80.212 23.5212C80.212 26.8091 81.1869 30.0231 83.0136 32.7569C84.8402 35.4906 87.4365 37.6213 90.474 38.8795C93.5116 40.1377 96.8541 40.4669 100.079 39.8255C103.303 39.1841 106.266 37.6008 108.59 35.276C110.915 32.9511 112.499 29.989 113.14 26.7644C113.781 23.5397 113.452 20.1972 112.194 17.1596C110.936 14.122 108.805 11.5257 106.071 9.69911C103.338 7.87247 100.124 6.89751 96.8357 6.89751C92.4378 6.88653 88.2156 8.62305 85.0981 11.7251C81.9806 14.8271 80.223 19.0405 80.212 23.4384C80.2119 23.466 80.2119 23.4936 80.212 23.5212Z" fill="#FFB7B7"/>
<path d="M149.934 116.172C149.934 117.121 149.557 118.031 148.886 118.702C148.215 119.373 147.305 119.75 146.357 119.75H50.6548C49.706 119.75 48.796 119.373 48.125 118.702C47.4541 118.031 47.0772 117.121 47.0771 116.172C47.0771 115.224 47.4541 114.314 48.125 113.643C48.796 112.972 49.706 112.595 50.6548 112.595H51.717C51.6563 112.382 51.6246 112.161 51.623 111.94V63.0808C51.623 62.2567 51.9504 61.4664 52.5331 60.8837C53.1158 60.301 53.9061 59.9736 54.7302 59.9736H142.281C143.105 59.9736 143.896 60.301 144.478 60.8837C145.061 61.4664 145.388 62.2567 145.388 63.0807V111.94C145.389 112.161 145.357 112.382 145.294 112.595H146.357C146.826 112.595 147.292 112.687 147.726 112.867C148.16 113.047 148.554 113.31 148.886 113.643C149.219 113.975 149.482 114.369 149.662 114.803C149.842 115.237 149.934 115.703 149.934 116.172Z" fill="#3F3D56"/>
<path d="M100.359 87.878C99.2656 87.878 98.1964 87.5537 97.287 86.946C96.3775 86.3383 95.6687 85.4746 95.2501 84.4641C94.8315 83.4536 94.722 82.3416 94.9354 81.2688C95.1487 80.1961 95.6754 79.2107 96.4489 78.4372C97.2223 77.6638 98.2077 77.1371 99.2804 76.9237C100.353 76.7103 101.465 76.8198 102.476 77.2383C103.486 77.6569 104.35 78.3657 104.958 79.2751C105.565 80.1846 105.89 81.2538 105.89 82.3476C105.888 83.8138 105.305 85.2196 104.268 86.2564C103.231 87.2932 101.826 87.8764 100.359 87.878ZM100.359 77.744C99.4489 77.744 98.5588 78.014 97.8017 78.5199C97.0447 79.0258 96.4546 79.7448 96.1062 80.586C95.7577 81.4272 95.6666 82.3529 95.8442 83.2459C96.0219 84.1389 96.4603 84.9592 97.1042 85.6031C97.748 86.2469 98.5683 86.6853 99.4614 86.863C100.354 87.0406 101.28 86.9494 102.121 86.6009C102.962 86.2525 103.681 85.6624 104.187 84.9053C104.693 84.1482 104.963 83.2581 104.963 82.3476C104.962 81.1271 104.476 79.9569 103.613 79.0939C102.75 78.2309 101.58 77.7454 100.359 77.744Z" fill="white"/>
<path d="M98.5055 85.5618C101.304 85.5618 103.573 83.2932 103.573 80.4948C103.573 77.6963 101.304 75.4277 98.5055 75.4277C95.7071 75.4277 93.4385 77.6963 93.4385 80.4948C93.4385 83.2932 95.7071 85.5618 98.5055 85.5618Z" fill="white"/>
<path d="M253.949 37.845V28.0314C253.949 22.1331 256.292 16.4764 260.463 12.3058C264.634 8.13506 270.29 5.79199 276.189 5.79199C282.087 5.79199 287.744 8.13506 291.914 12.3058C296.085 16.4764 298.428 22.1331 298.428 28.0314V37.845C298.426 39.174 297.898 40.4481 296.958 41.3878C296.018 42.3275 294.744 42.8561 293.415 42.8576H263.355L260.899 37.6392V42.8576H258.962C257.633 42.8561 256.359 42.3275 255.419 41.3878C254.479 40.4481 253.951 39.174 253.949 37.845Z" fill="#2F2E41"/>
<path d="M292.409 69.2559L293.367 79.6355L293.802 84.3516L294.496 91.8608L294.584 92.8292L295.149 98.9279L295.163 98.9945C295.519 100.135 296.234 101.131 297.202 101.833C298.169 102.536 299.337 102.907 300.532 102.893L326.33 102.447L333.611 102.321C333.751 102.532 333.888 102.721 334.025 102.889C334.665 103.666 335.46 104.299 336.36 104.749C337.26 105.198 338.245 105.453 339.25 105.497C340.26 105.543 341.268 105.373 342.207 104.999C343.147 104.624 343.995 104.053 344.696 103.325C344.836 103.181 344.973 103.03 345.099 102.872C346.053 101.698 346.612 100.253 346.695 98.7433C346.778 97.2333 346.382 95.7356 345.563 94.4644C345.017 93.6133 344.296 92.8887 343.447 92.3391C342.599 91.7896 341.643 91.4279 340.643 91.2783C339.649 91.1259 338.635 91.1842 337.665 91.4496C336.695 91.715 335.792 92.1815 335.015 92.8187C334.768 93.022 334.537 93.2437 334.323 93.4819L326.33 92.3169L306.199 89.3869L305.339 77.7722C305.336 77.7196 305.332 77.6669 305.329 77.6108L304.634 68.2383C304.518 66.6787 303.811 65.2222 302.657 64.1664C301.503 63.1105 299.99 62.535 298.426 62.5573C297.912 62.5625 297.4 62.6344 296.904 62.7713C296.348 62.9219 295.816 63.1512 295.325 63.4521C294.343 64.0486 293.549 64.9092 293.034 65.9355C292.518 66.9618 292.301 68.1124 292.409 69.2559Z" fill="#9E616A"/>
<path d="M277.088 43.3954C285.141 43.3954 291.67 36.867 291.67 28.8139C291.67 20.7608 285.141 14.2324 277.088 14.2324C269.035 14.2324 262.507 20.7608 262.507 28.8139C262.507 36.867 269.035 43.3954 277.088 43.3954Z" fill="#9E616A"/>
<path d="M296.531 53.1161L299.182 52.2324C299.182 52.2324 304.484 54.4417 304.484 58.4185C304.484 62.3953 305.368 78.3024 305.368 78.3024L293.438 79.628L296.531 53.1161Z" fill="#3D88ED"/>
<path d="M240.128 119.286H250.641L254.238 89.1477L255.54 78.2628L255.718 76.761L256.68 68.7044C256.732 67.6928 256.506 66.6862 256.027 65.7936C255.548 64.9009 254.835 64.156 253.963 63.6394C253.092 63.1228 252.096 62.8542 251.083 62.8625C250.07 62.8708 249.079 63.1557 248.216 63.6866C247.999 63.8203 247.791 63.9693 247.595 64.1322C246.992 64.6283 246.5 65.2466 246.153 65.9463C245.806 66.6461 245.611 67.4115 245.581 68.1921L244.634 77.0522L240.128 119.286Z" fill="#9E616A"/>
<path d="M255.896 78.3028L243.966 76.9772C243.966 76.9772 244.85 61.0701 244.85 57.0933C244.85 53.1165 250.152 50.9072 250.152 50.9072L252.803 51.791L255.896 78.3028Z" fill="#3D88ED"/>
<path d="M252.027 119.286H301.9C300.32 113.247 298.164 107.373 295.462 101.745C295.023 100.85 294.763 100.373 294.763 100.373C294.763 100.373 273.555 99.9554 260.298 105.257C259.452 105.623 258.694 106.163 258.073 106.844C255.778 109.216 253.771 113.669 252.027 119.286Z" fill="#2F2E41"/>
<path d="M262.508 48.2561C262.508 48.2561 262.087 48.0302 287.251 48.9468L297.783 51.8473L299.182 52.2328C299.182 52.2328 297.857 78.7446 294.322 83.6051C290.787 88.4656 291.671 91.1168 292.554 91.5587C293.438 92.0005 295.647 91.1168 294.322 93.3261C292.996 95.5354 291.229 94.2099 292.996 95.5354C294.764 96.861 295.647 101.722 295.647 101.722L256.764 107.024C256.764 107.024 255.438 89.7912 251.903 80.954C248.368 72.1167 247.484 68.5818 247.484 68.5818L250.136 50.9072L262.508 48.2561Z" fill="#3D88ED"/>
<path d="M261.362 20.6178C261.362 16.8085 262.876 13.1553 265.569 10.4617C268.263 7.76811 271.916 6.25488 275.725 6.25488C279.535 6.25488 283.188 7.76811 285.881 10.4617C288.575 13.1553 290.088 16.8085 290.088 20.6178V27.1043H261.362V20.6178Z" fill="#2F2E41"/>
<path d="M324.606 115.641V116.922C324.606 117.672 324.308 118.391 323.778 118.922C323.247 119.452 322.528 119.75 321.778 119.75H227.713C226.963 119.75 226.244 119.452 225.713 118.922C225.183 118.391 224.885 117.672 224.885 116.922V115.641C224.885 114.891 225.183 114.172 225.713 113.641C226.244 113.111 226.963 112.813 227.713 112.813H229.383C229.324 112.606 229.294 112.393 229.292 112.178V64.168C229.292 63.539 229.542 62.9359 229.987 62.4911C230.432 62.0464 231.035 61.7963 231.664 61.7959H317.827C318.456 61.7963 319.059 62.0464 319.504 62.4911C319.949 62.9359 320.199 63.539 320.199 64.168V112.178C320.199 112.393 320.169 112.607 320.108 112.813H321.778C322.528 112.813 323.247 113.111 323.778 113.641C324.308 114.172 324.606 114.891 324.606 115.641Z" fill="#3F3D56"/>
<path d="M276.599 88.9208C275.535 88.9208 274.496 88.6055 273.612 88.0148C272.728 87.4241 272.039 86.5845 271.632 85.6021C271.225 84.6198 271.119 83.5389 271.326 82.4961C271.533 81.4532 272.045 80.4954 272.797 79.7435C273.549 78.9917 274.507 78.4797 275.55 78.2722C276.593 78.0648 277.674 78.1713 278.656 78.5782C279.638 78.9851 280.478 79.6741 281.068 80.5582C281.659 81.4422 281.974 82.4816 281.974 83.5449C281.973 84.9701 281.406 86.3366 280.398 87.3444C279.39 88.3523 278.024 88.9192 276.599 88.9208ZM276.599 79.0956C275.719 79.0956 274.858 79.3565 274.127 79.8454C273.395 80.3343 272.825 81.0292 272.488 81.8422C272.151 82.6552 272.063 83.5498 272.235 84.4129C272.406 85.2759 272.83 86.0687 273.452 86.691C274.075 87.3132 274.867 87.737 275.731 87.9086C276.594 88.0803 277.488 87.9922 278.301 87.6554C279.114 87.3187 279.809 86.7484 280.298 86.0167C280.787 85.2851 281.048 84.4248 281.048 83.5449C281.046 82.3653 280.577 81.2343 279.743 80.4002C278.909 79.5661 277.778 79.0969 276.599 79.0956Z" fill="white"/>
<path d="M274.746 86.6044C277.459 86.6044 279.658 84.405 279.658 81.6919C279.658 78.9787 277.459 76.7793 274.746 76.7793C272.032 76.7793 269.833 78.9787 269.833 81.6919C269.833 84.405 272.032 86.6044 274.746 86.6044Z" fill="white"/>
<path d="M115.666 9.71226C114.326 8.67748 113.236 7.35371 112.479 5.83953C112.208 5.26401 111.835 4.74258 111.378 4.30076L108.235 6.71815L110.156 3.3724C105.236 0.398537 95.6288 1.978 95.6288 1.978C85.6348 -3.34374 81.9651 3.29929 80.6858 7.51216C80.179 9.03675 79.2853 10.4037 78.092 11.4795C75.6268 13.8302 79.5089 18.4025 79.5089 18.4025V18.7256L80.4356 25.0193C80.4356 25.0193 81.3622 20.8494 83.8075 17.9192C85.3493 16.0718 87.8585 14.9733 89.024 14.9961C104.065 15.2896 106.912 15.8852 106.912 15.8852C106.912 15.8852 109.459 17.2532 110.584 17.8278C114.218 19.6849 113.331 26.4093 113.331 26.4093L116.047 14.4746C116.674 11.5816 116.326 10.2542 115.666 9.71226Z" fill="#2F2E41"/>
</g>
<defs>
<clipPath id="clip0_4775_28602">
<rect width="372.046" height="120" fill="white" transform="translate(0.976562)"/>
</clipPath>
</defs>
</svg>