<svg width="96" height="96" viewBox="0 0 96 96" fill="none" xmlns="http://www.w3.org/2000/svg">
<rect x="2" y="2" width="92" height="92" rx="46" fill="#F2F2F2"/>
<rect x="2" y="2" width="92" height="92" rx="46" stroke="#FAFAFA" stroke-width="4"/>
<path fill-rule="evenodd" clip-rule="evenodd" d="M41.4636 30.7196C41.8435 30.2636 42.4064 30 43 30H53C53.5936 30 54.1565 30.2636 54.5364 30.7196L58.9367 36H64C65.5913 36 67.1174 36.6321 68.2426 37.7574C69.3679 38.8826 70 40.4087 70 42V60C70 61.5913 69.3679 63.1174 68.2426 64.2426C67.1174 65.3679 65.5913 66 64 66H32C30.4087 66 28.8826 65.3679 27.7574 64.2426C26.6321 63.1174 26 61.5913 26 60V42C26 40.4087 26.6321 38.8826 27.7574 37.7574C28.8826 36.6321 30.4087 36 32 36H37.0632L41.4636 30.7196ZM40 50C40 45.5817 43.5817 42 48 42C52.4183 42 56 45.5817 56 50C56 54.4183 52.4183 58 48 58C43.5817 58 40 54.4183 40 50Z" fill="#B3B3B3"/>
<path d="M68.0859 26.8438L67.7891 29.9453L70.875 29.0469L71.0781 30.4141L68.125 30.7188L70.0312 33.2578L68.7656 33.9531L67.3516 31.1719L66.0547 33.9531L64.7422 33.2578L66.6328 30.7188L63.6953 30.4141L63.9141 29.0469L66.9531 29.9453L66.6484 26.8438H68.0859Z" fill="#FF3333"/>
</svg>
