<svg width="241" height="176" viewBox="0 0 241 176" fill="none" xmlns="http://www.w3.org/2000/svg">
<g clip-path="url(#clip0_4745_28856)">
<path d="M234.317 156.73C233.512 150.648 229.692 144.68 223.871 142.745C226.21 148.993 226.264 155.867 224.023 162.15C223.15 164.57 221.927 167.171 222.785 169.597C223.319 171.106 224.606 172.254 226.039 172.966C227.473 173.679 229.06 174.012 230.627 174.337L230.937 174.59C233.377 168.961 235.123 162.812 234.317 156.73Z" fill="#F0F0F0"/>
<path d="M223.813 142.861C227.224 146.623 229.363 151.363 229.927 156.41C230.067 157.494 230.036 158.594 229.834 159.668C229.604 160.708 229.099 161.668 228.372 162.447C227.709 163.188 226.945 163.868 226.473 164.756C226.239 165.215 226.104 165.718 226.077 166.232C226.05 166.746 226.133 167.26 226.318 167.74C226.751 168.949 227.591 169.93 228.447 170.861C229.396 171.895 230.399 172.953 230.81 174.331C230.86 174.497 231.116 174.41 231.066 174.244C230.351 171.848 228.009 170.502 226.88 168.348C226.354 167.343 226.127 166.173 226.604 165.104C227.022 164.169 227.81 163.466 228.487 162.723C229.208 161.973 229.733 161.058 230.018 160.059C230.274 158.998 230.348 157.901 230.236 156.816C230.023 154.368 229.426 151.969 228.468 149.707C227.388 147.119 225.874 144.734 223.991 142.657C223.874 142.528 223.697 142.733 223.813 142.861Z" fill="white"/>
<path d="M229.841 154.774C230.675 154.565 231.407 154.066 231.907 153.366C232.407 152.667 232.642 151.812 232.57 150.956C232.555 150.782 232.285 150.798 232.3 150.971C232.368 151.769 232.149 152.565 231.683 153.215C231.216 153.866 230.532 154.328 229.754 154.518C229.585 154.56 229.673 154.815 229.841 154.774Z" fill="white"/>
<path d="M228.758 162.116C227.242 161.227 226.116 159.799 225.606 158.117C225.556 157.95 225.3 158.037 225.35 158.204C225.884 159.953 227.058 161.436 228.638 162.358C228.789 162.446 228.908 162.203 228.758 162.116Z" fill="white"/>
<path d="M227.14 147.376C226.834 147.525 226.496 147.595 226.157 147.58C225.817 147.565 225.487 147.467 225.195 147.293C225.045 147.203 224.927 147.446 225.075 147.535C225.399 147.726 225.764 147.834 226.139 147.851C226.514 147.868 226.887 147.793 227.227 147.632C227.26 147.62 227.287 147.595 227.303 147.563C227.319 147.531 227.322 147.495 227.311 147.461C227.3 147.427 227.275 147.399 227.243 147.383C227.211 147.367 227.174 147.365 227.14 147.376Z" fill="white"/>
<path d="M206.26 153.759C206.351 153.817 206.443 153.876 206.535 153.937C207.764 154.731 208.927 155.624 210.011 156.606C210.096 156.681 210.181 156.758 210.264 156.835C212.851 159.23 214.972 162.085 216.517 165.254C217.131 166.516 217.648 167.822 218.063 169.162C218.637 171.013 219.112 173.065 220.231 174.574C220.346 174.733 220.47 174.884 220.604 175.027L230.606 174.948C230.628 174.937 230.651 174.927 230.674 174.916L231.073 174.931C231.057 174.86 231.038 174.787 231.021 174.717C231.012 174.676 231 174.635 230.991 174.594C230.984 174.566 230.976 174.539 230.972 174.514C230.969 174.505 230.967 174.496 230.965 174.489C230.96 174.464 230.953 174.441 230.948 174.418C230.844 174.011 230.738 173.603 230.628 173.195C230.628 173.193 230.628 173.193 230.626 173.191C229.82 170.077 228.647 167.07 227.132 164.232C227.085 164.148 227.039 164.062 226.988 163.978C226.287 162.722 225.485 161.525 224.589 160.4C224.096 159.786 223.573 159.196 223.021 158.635C221.591 157.187 219.943 155.972 218.136 155.036C214.534 153.17 210.376 152.478 206.551 153.665C206.453 153.695 206.358 153.726 206.26 153.759Z" fill="#F0F0F0"/>
<path d="M206.283 153.886C211.271 154.835 215.833 157.333 219.321 161.023C220.086 161.804 220.723 162.701 221.209 163.68C221.651 164.65 221.826 165.72 221.715 166.78C221.631 167.77 221.431 168.773 221.589 169.766C221.678 170.274 221.872 170.756 222.161 171.183C222.449 171.61 222.824 171.971 223.262 172.242C224.334 172.947 225.596 173.224 226.84 173.453C228.221 173.706 229.659 173.947 230.816 174.8C230.956 174.903 231.108 174.679 230.968 174.576C228.955 173.094 226.275 173.429 224.076 172.389C223.051 171.904 222.165 171.106 221.903 169.965C221.673 168.966 221.879 167.932 221.973 166.93C222.096 165.898 221.965 164.851 221.591 163.881C221.157 162.88 220.555 161.96 219.812 161.161C218.168 159.335 216.248 157.779 214.12 156.549C211.7 155.133 209.056 154.141 206.301 153.616C206.131 153.584 206.113 153.854 206.283 153.886Z" fill="white"/>
<path d="M218.268 159.769C218.808 159.099 219.092 158.26 219.07 157.401C219.048 156.541 218.721 155.717 218.148 155.077C218.032 154.947 217.825 155.122 217.942 155.252C218.477 155.847 218.781 156.615 218.8 157.415C218.819 158.215 218.551 158.996 218.045 159.616C217.935 159.751 218.159 159.903 218.268 159.769Z" fill="white"/>
<path d="M221.824 166.283C220.078 166.486 218.32 166.023 216.9 164.987C216.76 164.885 216.608 165.108 216.748 165.211C218.228 166.286 220.058 166.763 221.875 166.548C222.048 166.528 221.996 166.262 221.824 166.283Z" fill="white"/>
<path d="M211.658 155.489C211.503 155.791 211.275 156.05 210.995 156.243C210.715 156.436 210.392 156.556 210.054 156.593C209.881 156.611 209.933 156.877 210.105 156.859C210.478 156.816 210.835 156.683 211.144 156.471C211.454 156.258 211.707 155.973 211.881 155.641C211.9 155.611 211.907 155.575 211.9 155.54C211.894 155.505 211.874 155.474 211.845 155.453C211.816 155.433 211.779 155.425 211.744 155.432C211.709 155.439 211.678 155.459 211.658 155.489Z" fill="white"/>
<path d="M168.407 95.5471C168.581 95.7759 168.803 95.9637 169.057 96.0973C169.311 96.231 169.592 96.3073 169.879 96.3208C170.166 96.3344 170.452 96.2848 170.718 96.1756C170.984 96.0665 171.222 95.9004 171.417 95.689L177.821 98.4744L177.198 94.8992L171.211 92.8023C170.835 92.4989 170.36 92.3442 169.877 92.3675C169.393 92.3909 168.936 92.5907 168.59 92.929C168.244 93.2673 168.035 93.7207 168.001 94.2033C167.967 94.6858 168.112 95.164 168.407 95.5471Z" fill="#A0616A"/>
<path d="M174.234 93.5275L186.468 95.1131L199.085 87.5128C199.76 87.1063 200.513 86.8474 201.295 86.7531C202.077 86.6587 202.871 86.731 203.623 86.9653C204.375 87.1996 205.069 87.5905 205.659 88.1122C206.249 88.634 206.722 89.2749 207.046 89.9926C207.632 91.2916 207.699 92.7654 207.233 94.1121C206.768 95.4588 205.805 96.5766 204.542 97.2366L187.588 103.278L187.556 103.29L172.681 96.6636L174.234 93.5275Z" fill="#3F3D56"/>
<path d="M205.501 172.65H202.9L201.663 162.618L205.502 162.618L205.501 172.65Z" fill="#A0616A"/>
<path d="M206.164 175.171L197.778 175.171V175.065C197.778 174.199 198.122 173.369 198.734 172.757C199.347 172.145 200.177 171.801 201.042 171.801L202.574 170.639L205.432 171.801L206.165 171.801L206.164 175.171Z" fill="#2F2E41"/>
<path d="M195.422 171.011L192.885 171.584L189.469 162.071L193.213 161.226L195.422 171.011Z" fill="#A0616A"/>
<path d="M196.624 173.324L188.444 175.171L188.421 175.067C188.23 174.223 188.383 173.337 188.845 172.605C189.307 171.873 190.041 171.355 190.886 171.164L192.124 169.693L195.168 170.198L195.882 170.036L196.624 173.324Z" fill="#2F2E41"/>
<path d="M208.795 111.321C210.014 114.999 209.885 118.991 208.502 123.275L207.91 147.398C207.91 147.398 208.791 163.217 205.948 168.784H201.824L199.782 145.953L199.526 130.629L190.685 143.558L196.316 168.411L191.24 168.864L182.103 141.893L193.377 115.726L208.795 111.321Z" fill="#2F2E41"/>
<path d="M192.102 114.877L193.119 112.334L192.446 110.148L192.293 88.9677L192.293 88.9516L194.733 85.0601L194.753 82.5988L201.567 82.4326L202.306 84.3093L203.769 85.1837C205.363 86.1399 206.678 87.4991 207.58 89.1246C208.482 90.7502 208.94 92.5846 208.909 94.4435L208.644 108.734L209.324 110.094C209.509 110.464 209.612 110.869 209.625 111.281C209.639 111.694 209.563 112.105 209.403 112.485C209.242 112.866 209.002 113.207 208.697 113.486C208.392 113.765 208.031 113.975 207.638 114.101L192.642 116.499L192.102 114.877Z" fill="#3F3D56"/>
<path d="M197.535 80.099C200.955 80.099 203.727 77.3269 203.727 73.9074C203.727 70.4879 200.955 67.7158 197.535 67.7158C194.116 67.7158 191.344 70.4879 191.344 73.9074C191.344 77.3269 194.116 80.099 197.535 80.099Z" fill="#A0616A"/>
<path d="M203.983 75.2572C204.167 74.4793 204.083 73.3845 203.978 72.6011C203.845 71.5682 203.495 70.5749 202.953 69.6856C202.411 68.7962 201.688 68.0307 200.831 67.4386C200.503 67.1891 200.112 67.0339 199.702 66.9899C199.497 66.9726 199.292 67.0207 199.116 67.1271C198.94 67.2336 198.802 67.3931 198.722 67.5827C198.619 67.325 198.464 67.0911 198.267 66.8956C198.07 66.7001 197.834 66.5471 197.576 66.446C197.056 66.247 196.498 66.1717 195.944 66.2262C194.871 66.3146 193.842 66.6919 192.966 67.318C192.09 67.9442 191.4 68.7957 190.969 69.7824C190.804 70.1752 190.342 68.7241 190.132 69.0953C189.94 69.4811 189.604 69.7763 189.197 69.9176C188.786 70.0322 188.619 71.7237 188.458 71.3293C188.332 71.6208 188.283 71.9393 188.314 72.2551C188.344 72.5709 188.455 72.8738 188.634 73.1355C188.814 73.3972 189.056 73.6093 189.34 73.7519C189.623 73.8945 189.938 73.9631 190.255 73.9512C190.67 73.8976 191.081 73.819 191.486 73.7157C192.229 73.622 192.982 73.8038 193.6 74.2268C194.219 74.6498 194.662 75.2846 194.844 76.0116C194.957 75.5889 195.138 75.1872 195.379 74.822C195.501 74.6404 195.665 74.4906 195.857 74.3852C196.049 74.2797 196.264 74.2216 196.482 74.2157C196.692 74.2397 196.894 74.3062 197.077 74.4112C197.259 74.5162 197.418 74.6574 197.544 74.8261C197.817 75.1462 198.022 75.5196 198.296 75.8379C199.102 76.772 200.192 78.9503 201.34 78.7914C202.246 78.666 203.731 76.3195 203.983 75.2572Z" fill="#2F2E41"/>
<path d="M174.454 111.98C174.718 112.094 175.003 112.15 175.29 112.142C175.578 112.134 175.86 112.064 176.117 111.935C176.373 111.807 176.599 111.623 176.778 111.398C176.956 111.173 177.083 110.911 177.149 110.632L184.098 109.93L181.805 107.116L175.559 108.214C175.082 108.134 174.592 108.231 174.182 108.488C173.772 108.744 173.47 109.142 173.334 109.607C173.198 110.071 173.237 110.569 173.443 111.006C173.65 111.444 174.009 111.79 174.454 111.98Z" fill="#A0616A"/>
<path d="M178.55 107.369L189.997 102.769L197.286 89.9699C197.676 89.2854 198.207 88.6913 198.843 88.2266C199.479 87.7618 200.206 87.4371 200.976 87.2737C201.747 87.1103 202.543 87.1119 203.313 87.2785C204.083 87.4451 204.809 87.7729 205.443 88.2402C206.589 89.087 207.368 90.3399 207.621 91.7423C207.873 93.1447 207.58 94.5905 206.801 95.7837L194.966 109.344L194.944 109.37L178.728 110.864L178.55 107.369Z" fill="#3F3D56"/>
<path d="M240.147 175.525H136.803C136.756 175.525 136.71 175.516 136.667 175.498C136.624 175.48 136.585 175.454 136.552 175.421C136.519 175.389 136.493 175.35 136.475 175.307C136.457 175.264 136.448 175.218 136.448 175.171C136.448 175.124 136.457 175.078 136.475 175.035C136.493 174.992 136.519 174.953 136.552 174.921C136.585 174.888 136.624 174.862 136.667 174.844C136.71 174.826 136.756 174.817 136.803 174.817H240.147C240.193 174.817 240.239 174.826 240.282 174.844C240.325 174.862 240.364 174.888 240.397 174.921C240.43 174.953 240.456 174.992 240.474 175.035C240.492 175.078 240.501 175.124 240.501 175.171C240.501 175.218 240.492 175.264 240.474 175.307C240.456 175.35 240.43 175.389 240.397 175.421C240.364 175.454 240.325 175.48 240.282 175.498C240.239 175.516 240.193 175.525 240.147 175.525Z" fill="#CCCCCC"/>
<path d="M173.359 118.018H126.396C126.068 118.017 125.755 117.887 125.523 117.656C125.292 117.424 125.162 117.111 125.161 116.783V97.7276C125.162 97.4003 125.292 97.0866 125.523 96.8551C125.755 96.6237 126.068 96.4935 126.396 96.4932H173.359C173.686 96.4935 174 96.6237 174.232 96.8551C174.463 97.0865 174.593 97.4003 174.593 97.7276V116.783C174.593 117.111 174.463 117.424 174.232 117.656C174 117.887 173.686 118.017 173.359 118.018Z" fill="#3D88ED"/>
<path d="M168.887 127.159H130.867C130.672 127.159 130.48 127.121 130.3 127.047C130.12 126.973 129.956 126.864 129.818 126.726C129.681 126.588 129.571 126.425 129.497 126.245C129.422 126.065 129.384 125.872 129.384 125.678C129.384 125.483 129.422 125.29 129.497 125.11C129.571 124.931 129.681 124.767 129.818 124.63C129.956 124.492 130.12 124.383 130.3 124.309C130.48 124.234 130.672 124.196 130.867 124.196H168.887C170.797 124.17 170.816 127.186 168.887 127.159Z" fill="#E4E4E4"/>
<path d="M168.887 133.948H130.867C130.474 133.948 130.097 133.792 129.82 133.514C129.542 133.236 129.386 132.86 129.386 132.467C129.386 132.074 129.542 131.697 129.82 131.419C130.097 131.142 130.474 130.986 130.867 130.986H168.887C170.797 130.959 170.816 133.975 168.887 133.948Z" fill="#E4E4E4"/>
<path d="M168.887 140.737H130.867C130.672 140.737 130.48 140.699 130.3 140.625C130.12 140.551 129.956 140.442 129.818 140.304C129.681 140.166 129.571 140.003 129.497 139.823C129.422 139.643 129.384 139.451 129.384 139.256C129.384 139.061 129.422 138.868 129.497 138.689C129.571 138.509 129.681 138.345 129.818 138.208C129.956 138.07 130.12 137.961 130.3 137.887C130.48 137.812 130.672 137.774 130.867 137.775H168.887C170.797 137.748 170.816 140.764 168.887 140.737Z" fill="#E4E4E4"/>
<path d="M9.1155 67.4751C0.848142 56.6126 -2.48231 41.2004 3.67147 29.0156C9.77806 42.5462 20.4738 53.4806 33.8662 59.8844C39.0401 62.3353 45.0499 64.5227 47.499 69.6974C49.023 72.9173 48.7924 76.7465 47.6475 80.1196C46.5024 83.4929 44.5184 86.5073 42.5552 89.4799L42.4616 90.3642C29.7827 85.3058 17.3828 78.3375 9.1155 67.4751Z" fill="#F0F0F0"/>
<path d="M3.94228 29.1094C4.44899 40.2779 8.52702 51.3569 15.5424 60.0833C17.0591 61.9699 18.7619 63.7518 20.7989 65.0813C22.7944 66.362 25.0964 67.0849 27.4657 67.175C29.6732 67.3034 31.9462 67.1792 34.084 67.8419C36.3374 68.5406 38.0168 70.196 39.0085 72.3091C40.222 74.8945 40.434 77.7618 40.544 80.5729C40.6661 83.6941 40.7434 86.9381 42.2543 89.7566C42.4374 90.0981 41.8968 90.3622 41.714 90.0212C39.0853 85.1174 40.6715 79.3203 39.0748 74.1496C38.3297 71.7369 36.853 69.534 34.4217 68.5958C32.2956 67.7754 29.9516 67.9015 27.7154 67.7908C25.3672 67.6746 23.1683 67.178 21.1204 65.9865C19.0254 64.7676 17.2494 63.0486 15.6911 61.209C12.1886 57.0112 9.36789 52.2888 7.33233 47.2148C4.97704 41.4367 3.62753 35.2983 3.34217 29.0651C3.32467 28.6793 3.92489 28.7261 3.94228 29.1094Z" fill="white"/>
<path d="M13.1129 57.3666C11.4682 58.3438 9.52968 58.7046 7.64356 58.3845C5.75743 58.0644 4.04651 57.0842 2.81632 55.6191C2.56842 55.3218 3.01878 54.9226 3.26701 55.2203C4.41003 56.5868 6.00386 57.4996 7.76083 57.7941C9.51779 58.0886 11.3222 57.7453 12.8483 56.8263C13.1801 56.627 13.4428 57.1684 13.1129 57.3666Z" fill="white"/>
<path d="M26.3379 67.2575C27.3365 63.4764 26.8734 59.4578 25.0408 56.003C24.8589 55.6609 25.3995 55.3967 25.5811 55.7384C27.4815 59.3371 27.9549 63.5201 26.907 67.4525C26.8069 67.8272 26.2383 67.6302 26.3379 67.2575Z" fill="white"/>
<path d="M5.77446 41.4534C6.48961 41.2079 7.13259 40.7886 7.64566 40.2332C8.15872 39.6777 8.52581 39.0036 8.71394 38.2713C8.80927 37.8954 9.37784 38.0928 9.28312 38.4662C9.07149 39.2744 8.66517 40.0184 8.09968 40.6333C7.53418 41.2482 6.8267 41.7153 6.03906 41.9937C5.96702 42.0261 5.88532 42.03 5.81056 42.0044C5.7358 41.9787 5.6736 41.9256 5.63659 41.8558C5.60192 41.7841 5.59695 41.7016 5.62276 41.6262C5.64858 41.5509 5.70309 41.4887 5.77446 41.4534Z" fill="white"/>
<path d="M48.7424 18.7793C48.6896 19.0157 48.6367 19.252 48.5872 19.4922C47.8931 22.6737 47.4585 25.9063 47.2878 29.1582C47.2707 29.4094 47.257 29.6642 47.2471 29.9154C46.9194 37.7542 48.05 45.5858 50.5813 53.0119C51.5912 55.966 52.8245 58.839 54.2703 61.606C56.2673 65.4272 58.7366 69.4115 59.337 73.5475C59.4044 73.9783 59.4452 74.4129 59.4589 74.8488L43.5479 90.4101C43.494 90.4273 43.4435 90.4483 43.3894 90.4657L42.7825 91.1161C42.698 90.9786 42.6133 90.8342 42.5287 90.6967C42.4794 90.6171 42.4335 90.5341 42.3842 90.4545C42.3524 90.4004 42.3207 90.3461 42.289 90.299C42.2783 90.2811 42.2678 90.2629 42.2607 90.2485C42.229 90.2015 42.2044 90.1544 42.1762 90.111C41.7004 89.305 41.2294 88.4943 40.7633 87.6788C40.7597 87.6752 40.7597 87.6752 40.7597 87.6681C37.2239 81.4455 34.1765 74.8731 32.2236 68.047C32.1649 67.8416 32.1025 67.6328 32.051 67.4203C31.1878 64.3385 30.5779 61.1914 30.2274 58.0103C30.0411 56.2678 29.9431 54.517 29.9338 52.7646C29.9186 48.2366 30.6156 43.7344 31.9994 39.423C34.7593 30.8287 40.237 23.2127 48.1358 19.0885C48.338 18.9831 48.5367 18.881 48.7424 18.7793Z" fill="#F0F0F0"/>
<path d="M48.9042 19.0156C42.5845 28.2382 39.1703 39.5394 39.5178 50.7307C39.5929 53.1502 39.8797 55.5981 40.7057 57.886C41.5279 60.11 42.9306 62.0732 44.7682 63.5717C46.4535 65.0033 48.3431 66.2725 49.651 68.0888C51.0296 70.0034 51.3738 72.3362 50.8934 74.6205C50.3057 77.4154 48.7487 79.8324 47.144 82.1431C45.3623 84.7088 43.471 87.3454 42.9804 90.5055C42.9209 90.8884 42.3303 90.7738 42.3896 90.3915C43.2432 84.8935 48 81.2198 49.8382 76.1299C50.6959 73.7549 50.8432 71.107 49.4667 68.8941C48.2631 66.9589 46.3157 65.6484 44.5968 64.2137C42.7919 62.7071 41.3351 60.9867 40.4174 58.8023C39.4785 56.5679 39.0954 54.126 38.9588 51.719C38.6896 46.2586 39.2806 40.7897 40.7103 35.5128C42.3085 29.4813 44.9267 23.7677 48.4517 18.619C48.67 18.3005 49.121 18.6991 48.9042 19.0156Z" fill="white"/>
<path d="M39.2125 47.0997C37.311 46.8898 35.546 46.0107 34.2327 44.6195C32.9195 43.2284 32.1435 41.4157 32.0434 39.5052C32.0245 39.1186 32.6244 39.071 32.6434 39.4581C32.7333 41.2374 33.4563 42.9258 34.6818 44.2188C35.9074 45.5117 37.5547 46.324 39.3266 46.509C39.7115 46.5497 39.5953 47.1402 39.2125 47.0997Z" fill="white"/>
<path d="M43.8179 62.9592C46.8917 60.5414 48.9414 57.054 49.5582 53.1922C49.619 52.8095 50.2096 52.924 50.1489 53.3062C49.4996 57.3237 47.3592 60.9486 44.1549 63.4575C43.8493 63.6964 43.5139 63.1968 43.8179 62.9592Z" fill="white"/>
<path d="M42.9344 29.9754C43.6532 30.2099 44.4191 30.2623 45.1631 30.1277C45.9072 29.9932 46.6061 29.6759 47.1973 29.2044C47.4997 28.9618 47.8348 29.4617 47.5343 29.7028C46.8788 30.2206 46.1064 30.5701 45.2847 30.7206C44.463 30.8711 43.6169 30.818 42.8204 30.5661C42.7433 30.5487 42.6758 30.5025 42.6315 30.4371C42.5872 30.3716 42.5695 30.2917 42.582 30.2137C42.5975 30.1356 42.6432 30.0667 42.7092 30.0221C42.7752 29.9775 42.8561 29.9607 42.9344 29.9754Z" fill="white"/>
<path d="M52.986 49.1137C56.6674 49.1137 59.6518 46.1293 59.6518 42.4479C59.6518 38.7666 56.6674 35.7822 52.986 35.7822C49.3047 35.7822 46.3203 38.7666 46.3203 42.4479C46.3203 46.1293 49.3047 49.1137 52.986 49.1137Z" fill="#2F2E41"/>
<path d="M89.4587 106.593H42.4952C42.1679 106.593 41.8541 106.462 41.6227 106.231C41.3913 106 41.2611 105.686 41.2607 105.359V86.3028C41.2611 85.9755 41.3913 85.6617 41.6227 85.4303C41.8541 85.1989 42.1679 85.0687 42.4952 85.0684H89.4587C89.7859 85.0687 90.0997 85.1989 90.3311 85.4303C90.5625 85.6617 90.6927 85.9755 90.6931 86.3028V105.359C90.6927 105.686 90.5625 106 90.3311 106.231C90.0997 106.462 89.7859 106.593 89.4587 106.593Z" fill="#D1D3D4"/>
<path d="M84.9868 115.734H46.9669C46.5752 115.732 46.2001 115.576 45.9237 115.298C45.6473 115.02 45.4922 114.645 45.4922 114.253C45.4922 113.861 45.6473 113.485 45.9237 113.208C46.2001 112.93 46.5752 112.773 46.9669 112.772H84.9868C86.8971 112.745 86.9162 115.761 84.9868 115.734Z" fill="#E4E4E4"/>
<path d="M84.9867 122.523H46.9668C46.7721 122.524 46.5792 122.485 46.3993 122.411C46.2193 122.337 46.0558 122.228 45.918 122.09C45.7802 121.953 45.6709 121.789 45.5964 121.609C45.5218 121.43 45.4834 121.237 45.4834 121.042C45.4834 120.847 45.5218 120.655 45.5964 120.475C45.6709 120.295 45.7802 120.131 45.918 119.994C46.0558 119.856 46.2193 119.747 46.3993 119.673C46.5792 119.599 46.7721 119.56 46.9668 119.561H84.9867C86.897 119.534 86.9161 122.55 84.9867 122.523Z" fill="#E4E4E4"/>
<path d="M84.9865 129.312H46.9666C46.5738 129.312 46.197 129.156 45.9192 128.879C45.6414 128.601 45.4854 128.224 45.4854 127.831C45.4854 127.438 45.6414 127.061 45.9192 126.784C46.197 126.506 46.5738 126.35 46.9666 126.35H84.9865C86.8968 126.323 86.916 129.339 84.9865 129.312Z" fill="#E4E4E4"/>
<path d="M88.1089 55.6116C87.9283 55.8853 87.6899 56.1161 87.4105 56.2877C87.1311 56.4594 86.8175 56.5676 86.4917 56.6049C86.1659 56.6422 85.8359 56.6076 85.525 56.5036C85.214 56.3995 84.9296 56.2286 84.6919 56.0027L68.0508 63.1063L68.4886 58.9875L84.7058 52.6998C85.1117 52.3256 85.6407 52.1132 86.1927 52.1029C86.7447 52.0927 87.2812 52.2853 87.7007 52.6442C88.1202 53.0031 88.3934 53.5034 88.4687 54.0504C88.5439 54.5973 88.4159 55.1528 88.1089 55.6116Z" fill="#FFB6B6"/>
<path d="M54.2365 55.2296C54.2365 55.2296 52.179 57.228 54.2208 59.7996C56.2627 62.3712 66.3583 64.0433 67.9774 64.3615C69.5966 64.6798 78.6029 58.5536 78.6029 58.5536L79.4752 54.1152L69.4221 57.5643L54.2365 55.2296Z" fill="#3D88ED"/>
<path d="M48.7119 70.3917L48.8739 73.4699C48.8739 73.4699 48.3957 76.1966 48.789 76.785C49.1793 77.3705 59.8302 77.4444 59.8302 77.4444C59.8302 77.4444 60.5339 73.6507 61.1401 70.3301L48.7119 70.3917Z" fill="#FFB6B6"/>
<path d="M79.3336 111.092L81.5603 110.643L80.923 101.648L77.6367 102.312L79.3336 111.092Z" fill="#FFB6B6"/>
<path d="M82.5231 99.3877L84.5931 98.457L81.9078 89.8516L78.8525 91.2257L82.5231 99.3877Z" fill="#FFB6B6"/>
<path d="M84.3265 94.5397L80.4288 96.7467L70.8163 81.3002C64.0683 85.8464 57.4696 88.0235 50.8175 89.1853C48.5685 89.5858 46.2754 89.3828 45.8436 87.0937C45.8234 86.9867 45.8074 86.8791 45.7954 86.7709C45.5298 84.2706 48.64 81.0657 49.0354 78.0065L57.5475 77.4955L58.5972 78.8414L68.4413 72.7892C68.9191 72.5018 69.4491 72.3118 70.0007 72.2301C70.5523 72.1485 71.1146 72.1768 71.6553 72.3135C72.1959 72.4502 72.7041 72.6925 73.1506 73.0265C73.5971 73.3605 73.9731 73.7796 74.257 74.2596C74.322 74.3667 74.3824 74.4765 74.4382 74.589L84.3265 94.5397Z" fill="#2F2E41"/>
<path d="M81.9406 104.93L77.4807 105.345L69.3942 88.8062C61.3753 90.1853 53.8103 90.6271 47.2668 88.9588C46.1926 88.6751 45.2731 87.9801 44.7071 87.024C44.1412 86.0679 43.9741 84.9276 44.2421 83.8493C44.2675 83.7434 44.297 83.6387 44.3304 83.5351C45.1135 81.1457 47.1635 79.4551 48.7786 76.8271L60.5758 77.0063L59.2581 81.5528L70.7182 80.0698C71.2719 80.0036 71.8332 80.0476 72.3698 80.1994C72.9064 80.3511 73.4076 80.6076 73.8446 80.9539C74.2816 81.3003 74.6458 81.7297 74.9161 82.2174C75.1863 82.7052 75.3574 83.2416 75.4194 83.7958C75.4348 83.9202 75.4449 84.0451 75.4496 84.1705L81.9406 104.93Z" fill="#2F2E41"/>
<path d="M53.3177 49.6764C55.9633 49.6764 58.108 47.5317 58.108 44.886C58.108 42.2404 55.9633 40.0957 53.3177 40.0957C50.6721 40.0957 48.5273 42.2404 48.5273 44.886C48.5273 47.5317 50.6721 49.6764 53.3177 49.6764Z" fill="#FFB6B6"/>
<path d="M50.5095 51.4053L54.9018 51.922C55.087 51.9438 55.2608 52.0228 55.399 52.1481C55.5372 52.2733 55.6328 52.4386 55.6726 52.6208L56.3712 55.8171L60.7255 60.9449C60.7255 60.9449 62.2891 63.8767 61.7027 67.1993C61.1164 70.522 60.8587 72.9909 60.8587 72.9909C60.8587 72.9909 49.1783 77.3703 48.7874 76.784C48.3965 76.1976 48.2696 73.5343 48.2696 73.5343L46.7061 56.1392C46.7061 56.1392 48.4651 53.2075 49.4424 53.2075C50.0731 53.1862 49.9922 51.7667 50.5095 51.4053Z" fill="#3D88ED"/>
<path d="M60.9776 74.0604C61.5935 74.0604 62.0928 73.4612 62.0928 72.7221C62.0928 71.983 61.5935 71.3838 60.9776 71.3838C60.3616 71.3838 59.8623 71.983 59.8623 72.7221C59.8623 73.4612 60.3616 74.0604 60.9776 74.0604Z" fill="#3D88ED"/>
<path d="M78.2295 108.776L81.6242 107.075L82.264 108.568L86.5568 109.436C86.7688 109.478 86.9616 109.588 87.107 109.748C87.2524 109.908 87.3428 110.111 87.3649 110.326C87.3871 110.541 87.34 110.758 87.2303 110.944C87.1207 111.131 86.9543 111.277 86.7555 111.362L82.6078 113.14L81.2601 111.97L81.6138 113.566L80.05 114.237L78.2295 108.776Z" fill="#2F2E41"/>
<path d="M81.5518 98.6719L84.916 96.9111L85.582 98.3923L89.8893 99.1844C90.1021 99.2235 90.2968 99.3296 90.445 99.4872C90.5932 99.6447 90.6871 99.8456 90.7131 100.06C90.7391 100.275 90.6957 100.492 90.5894 100.681C90.483 100.869 90.3192 101.019 90.1219 101.107L86.0062 102.958L84.638 101.812L85.0198 103.401L83.468 104.099L81.5518 98.6719Z" fill="#2F2E41"/>
<path d="M50.5813 43.3833C49.3158 43.3853 48.0806 42.9956 47.0453 42.2677L47.0107 42.2435V42.2013C47.0121 40.9771 47.499 39.8035 48.3647 38.9379C49.2303 38.0723 50.4039 37.5854 51.6281 37.584H53.5722C54.7964 37.5854 55.97 38.0723 56.8356 38.9379C57.7013 39.8035 58.1882 40.9771 58.1896 42.2013C58.1883 42.4815 58.0776 42.7501 57.8812 42.9499C57.6848 43.1498 57.4182 43.265 57.1381 43.2712L50.6906 43.3823C50.6542 43.383 50.6176 43.3833 50.5813 43.3833Z" fill="#2F2E41"/>
<path d="M69.8625 80.6455C69.536 80.6757 69.2068 80.6339 68.8982 80.5232C68.5895 80.4124 68.309 80.2353 68.0762 80.0044C67.8434 79.7734 67.6641 79.4942 67.5509 79.1865C67.4377 78.8788 67.3933 78.5499 67.4209 78.2232L51.4727 69.6768L54.9609 67.4434L70.0074 76.1691C70.5532 76.2518 71.0497 76.5319 71.4028 76.9563C71.7559 77.3807 71.9411 77.9199 71.9232 78.4716C71.9054 79.0234 71.6857 79.5495 71.3059 79.9501C70.9261 80.3508 70.4125 80.5982 69.8625 80.6455Z" fill="#FFB6B6"/>
<path d="M48.9839 53.9708C48.9839 53.9708 46.1379 53.6144 45.4075 56.8158C44.6771 60.0171 49.684 68.9417 50.4479 70.4044C51.2118 71.867 61.624 75.0659 61.624 75.0659L65.6332 72.9718L56.6561 67.2822L48.9839 53.9708Z" fill="#3D88ED"/>
<path d="M54.0592 38.2975C54.5074 37.7479 54.157 36.9339 53.7895 36.3274C52.9473 34.9378 52.0633 33.5746 51.1375 32.238C49.9806 30.5679 48.5789 28.8218 46.587 28.4214C44.7705 28.0562 42.9405 28.9194 41.3777 29.9149C39.8412 30.8936 38.3278 32.1264 37.743 33.8517C37.1834 35.5028 37.5764 37.3364 38.2728 38.9346C38.8692 40.3035 39.6715 41.9403 38.821 43.1675C38.4138 43.6718 37.8665 44.0443 37.2481 44.2381C35.6774 44.8482 33.9895 45.0972 32.3096 44.9667C34.6162 44.9419 36.6353 47.3104 38.8714 46.7438C40.1394 46.4225 40.9839 45.2403 41.5916 44.0819C42.0362 43.304 42.3369 42.4523 42.4794 41.5678C42.6271 40.3679 42.3076 39.1052 42.711 37.9656C43.1308 36.7795 44.247 35.9859 45.3736 35.4257C46.1216 35.0538 46.937 34.7431 47.77 34.8062C50.1313 34.9849 51.3543 37.8913 53.595 38.6576" fill="#2F2E41"/>
<path d="M134.313 54.5177H87.3496C87.0224 54.5174 86.7086 54.3872 86.4772 54.1558C86.2458 53.9244 86.1156 53.6106 86.1152 53.2833V34.2276C86.1156 33.9003 86.2458 33.5865 86.4772 33.3551C86.7086 33.1237 87.0224 32.9935 87.3496 32.9932H134.313C134.64 32.9935 134.954 33.1237 135.186 33.3551C135.417 33.5865 135.547 33.9003 135.548 34.2276V53.2833C135.547 53.6106 135.417 53.9244 135.186 54.1558C134.954 54.3872 134.64 54.5174 134.313 54.5177Z" fill="#3D88ED"/>
<path d="M129.842 63.6591H91.8221C91.4293 63.6591 91.0525 63.503 90.7747 63.2252C90.4969 62.9474 90.3408 62.5706 90.3408 62.1778C90.3408 61.7849 90.4969 61.4081 90.7747 61.1303C91.0525 60.8525 91.4293 60.6965 91.8221 60.6965H129.842C131.752 60.6698 131.771 63.686 129.842 63.6591Z" fill="#E4E4E4"/>
<path d="M129.842 70.4481H91.8223C91.6276 70.4484 91.4347 70.4103 91.2548 70.336C91.0748 70.2616 90.9112 70.1526 90.7735 70.015C90.6357 69.8774 90.5264 69.714 90.4518 69.5342C90.3773 69.3543 90.3389 69.1615 90.3389 68.9668C90.3389 68.7721 90.3773 68.5793 90.4518 68.3995C90.5264 68.2196 90.6357 68.0562 90.7735 67.9186C90.9112 67.7811 91.0748 67.672 91.2548 67.5977C91.4347 67.5234 91.6276 67.4853 91.8223 67.4855H129.842C131.752 67.4589 131.772 70.475 129.842 70.4481Z" fill="#E4E4E4"/>
<path d="M129.842 77.2372H91.8221C91.4293 77.2372 91.0525 77.0811 90.7747 76.8033C90.4969 76.5255 90.3408 76.1487 90.3408 75.7559C90.3408 75.363 90.4969 74.9862 90.7747 74.7085C91.0525 74.4307 91.4293 74.2746 91.8221 74.2746H129.842C131.752 74.2479 131.771 77.2641 129.842 77.2372Z" fill="#E4E4E4"/>
<path d="M184.429 7.42045H27.1087C26.8751 7.42019 26.6511 7.32727 26.4859 7.16207C26.3207 6.99687 26.2278 6.77288 26.2275 6.53925V1.3558C26.2278 1.12217 26.3207 0.898189 26.4859 0.732987C26.6511 0.567786 26.8751 0.474865 27.1087 0.474609H184.429C184.662 0.474865 184.886 0.567786 185.051 0.732987C185.217 0.898189 185.31 1.12217 185.31 1.3558V6.53925C185.31 6.77288 185.217 6.99687 185.051 7.16207C184.886 7.32727 184.662 7.42019 184.429 7.42045Z" fill="#E6E7E8"/>
<path d="M31.3419 4.94552C32.0329 4.94552 32.593 4.38539 32.593 3.69444C32.593 3.00349 32.0329 2.44336 31.3419 2.44336C30.6509 2.44336 30.0908 3.00349 30.0908 3.69444C30.0908 4.38539 30.6509 4.94552 31.3419 4.94552Z" fill="white"/>
<path d="M36.0909 4.94552C36.7819 4.94552 37.342 4.38539 37.342 3.69444C37.342 3.00349 36.7819 2.44336 36.0909 2.44336C35.4 2.44336 34.8398 3.00349 34.8398 3.69444C34.8398 4.38539 35.4 4.94552 36.0909 4.94552Z" fill="white"/>
<path d="M40.839 4.94552C41.5299 4.94552 42.0901 4.38539 42.0901 3.69444C42.0901 3.00349 41.5299 2.44336 40.839 2.44336C40.148 2.44336 39.5879 3.00349 39.5879 3.69444C39.5879 4.38539 40.148 4.94552 40.839 4.94552Z" fill="white"/>
<path d="M179.776 2.83356H174.308C174.201 2.83269 174.099 2.78963 174.024 2.71376C173.948 2.63789 173.906 2.53536 173.906 2.4285C173.906 2.32163 173.948 2.2191 174.024 2.14323C174.099 2.06736 174.201 2.02431 174.308 2.02344H179.776C179.883 2.02431 179.985 2.06736 180.061 2.14323C180.136 2.2191 180.178 2.32163 180.178 2.4285C180.178 2.53536 180.136 2.63789 180.061 2.71376C179.985 2.78963 179.883 2.83269 179.776 2.83356Z" fill="white"/>
<path d="M179.776 4.35212H174.307C174.2 4.35212 174.097 4.30945 174.021 4.23348C173.945 4.15752 173.902 4.05449 173.902 3.94706C173.902 3.83963 173.945 3.73661 174.021 3.66065C174.097 3.58468 174.2 3.54201 174.307 3.54201H179.776C179.829 3.54155 179.882 3.55169 179.932 3.57184C179.981 3.59199 180.026 3.62175 180.064 3.65941C180.102 3.69707 180.133 3.74188 180.153 3.79125C180.174 3.84062 180.184 3.89358 180.184 3.94706C180.184 4.00055 180.174 4.05351 180.153 4.10288C180.133 4.15225 180.102 4.19706 180.064 4.23472C180.026 4.27238 179.981 4.30214 179.932 4.32229C179.882 4.34244 179.829 4.35258 179.776 4.35212Z" fill="white"/>
<path d="M179.776 5.87164H174.307C174.2 5.87164 174.097 5.82897 174.021 5.753C173.945 5.67704 173.902 5.57401 173.902 5.46658C173.902 5.35915 173.945 5.25613 174.021 5.18017C174.097 5.1042 174.2 5.06152 174.307 5.06152H179.776C179.883 5.06152 179.986 5.1042 180.062 5.18017C180.138 5.25613 180.181 5.35915 180.181 5.46658C180.181 5.57401 180.138 5.67704 180.062 5.753C179.986 5.82897 179.883 5.87164 179.776 5.87164Z" fill="white"/>
</g>
<defs>
<clipPath id="clip0_4745_28856">
<rect width="240" height="175.05" fill="white" transform="translate(0.5 0.474609)"/>
</clipPath>
</defs>
</svg>
