<svg width="258" height="240" viewBox="0 0 258 240" fill="none" xmlns="http://www.w3.org/2000/svg">
<g clip-path="url(#clip0_5467_30591)">
<path d="M257.302 199.991C257.303 200.05 257.291 200.109 257.268 200.164C257.246 200.219 257.212 200.269 257.17 200.311C257.128 200.353 257.079 200.386 257.024 200.409C256.969 200.432 256.91 200.443 256.85 200.443H1.1492C1.02934 200.443 0.914389 200.395 0.829634 200.311C0.74488 200.226 0.697266 200.111 0.697266 199.991C0.697266 199.871 0.74488 199.756 0.829634 199.671C0.914389 199.587 1.02934 199.539 1.1492 199.539H256.85C256.91 199.539 256.969 199.55 257.024 199.573C257.079 199.596 257.128 199.629 257.17 199.671C257.212 199.713 257.246 199.763 257.268 199.818C257.291 199.873 257.303 199.932 257.302 199.991Z" fill="#CCCCCC"/>
<path d="M129.063 180.724C174.158 180.724 210.715 144.167 210.715 99.0714C210.715 53.976 174.158 17.4189 129.063 17.4189C83.9672 17.4189 47.4102 53.976 47.4102 99.0714C47.4102 144.167 83.9672 180.724 129.063 180.724Z" fill="#E6E6E6"/>
<path d="M199.322 99.0716C199.33 110.035 196.769 120.847 191.844 130.642C186.92 140.436 179.768 148.941 170.964 155.473C170.375 155.913 169.775 156.342 169.171 156.76C157.397 164.944 143.402 169.331 129.063 169.331C114.724 169.331 100.728 164.944 88.9543 156.76C88.3505 156.342 87.7504 155.913 87.1618 155.473C78.3633 148.935 71.2163 140.429 66.2923 130.636C61.3682 120.843 58.8037 110.033 58.8037 99.0716C58.8037 88.11 61.3682 77.3005 66.2923 67.5072C71.2163 57.7138 78.3633 49.2083 87.1618 42.6706C87.7504 42.2301 88.3505 41.8009 88.9543 41.3832C100.728 33.199 114.724 28.8125 129.063 28.8125C143.402 28.8125 157.397 33.199 169.171 41.3832C169.775 41.8009 170.375 42.2301 170.964 42.6706C179.768 49.2026 186.92 57.7069 191.844 67.5015C196.769 77.2962 199.33 88.1086 199.322 99.0716Z" fill="white"/>
<path d="M129.062 163.254C164.51 163.254 193.245 134.518 193.245 99.0713C193.245 63.6242 164.51 34.8887 129.062 34.8887C93.6154 34.8887 64.8799 63.6242 64.8799 99.0713C64.8799 134.518 93.6154 163.254 129.062 163.254Z" fill="#3D88ED"/>
<path opacity="0.2" d="M129.23 35.0684C128.257 35.0684 127.29 35.0938 126.327 35.1366C142.549 36.5621 157.622 44.1006 168.494 56.2247C179.365 68.3489 185.221 84.1522 184.875 100.433C184.53 116.713 178.008 132.254 166.633 143.906C155.257 155.558 139.877 162.45 123.609 163.186C125.462 163.347 127.335 163.434 129.23 163.434C146.252 163.434 162.577 156.671 174.614 144.635C186.65 132.598 193.412 116.273 193.412 99.251C193.412 82.2287 186.65 65.9036 174.614 53.867C162.577 41.8304 146.252 35.0684 129.23 35.0684Z" fill="black"/>
<path d="M129.253 30.332C128.699 30.333 128.168 30.5534 127.777 30.9449C127.385 31.3364 127.165 31.8671 127.164 32.4208V41.5355C127.164 42.0895 127.384 42.6208 127.776 43.0125C128.168 43.4042 128.699 43.6243 129.253 43.6243C129.807 43.6243 130.338 43.4042 130.73 43.0125C131.122 42.6208 131.342 42.0895 131.342 41.5355V32.4208C131.341 31.8671 131.12 31.3364 130.729 30.9449C130.337 30.5534 129.807 30.333 129.253 30.332Z" fill="white"/>
<path d="M170.964 42.6708C170.375 42.2302 169.775 41.8011 169.171 41.3833C168.809 41.3597 168.447 41.431 168.12 41.5902C167.794 41.7494 167.515 41.9909 167.31 42.291L162.18 49.822C161.868 50.2798 161.751 50.8427 161.854 51.3868C161.957 51.931 162.272 52.4118 162.73 52.7235C163.188 53.0353 163.751 53.1524 164.295 53.0491C164.839 52.9458 165.32 52.6306 165.632 52.1728L170.763 44.6418C170.958 44.3561 171.078 44.0261 171.114 43.6819C171.149 43.3376 171.097 42.9901 170.964 42.6708Z" fill="white"/>
<path d="M194.274 77.0099C194.171 76.756 194.018 76.5249 193.826 76.3298C193.633 76.1347 193.404 75.9795 193.152 75.873C192.899 75.7665 192.628 75.7107 192.354 75.709C192.08 75.7073 191.808 75.7596 191.555 75.8629L183.108 79.2923C182.596 79.5012 182.187 79.905 181.972 80.4151C181.757 80.9252 181.753 81.4999 181.961 82.0127C182.17 82.5256 182.573 82.9348 183.083 83.1504C183.593 83.3659 184.167 83.3702 184.681 83.1623L193.127 79.7329C193.639 79.523 194.048 79.1186 194.263 78.6082C194.478 78.0979 194.482 77.5232 194.274 77.0099Z" fill="white"/>
<path d="M95.9458 49.822L90.815 42.291C90.6105 41.9909 90.3313 41.7494 90.005 41.5902C89.6786 41.431 89.3164 41.3597 88.954 41.3833C88.3502 41.8011 87.7501 42.2302 87.1615 42.6708C87.0281 42.9901 86.9766 43.3376 87.0117 43.6819C87.0469 44.0261 87.1676 44.3561 87.3628 44.6418L92.4936 52.1728C92.8053 52.6306 93.2861 52.9458 93.8303 53.0491C94.3744 53.1524 94.9373 53.0353 95.3951 52.7235C95.8529 52.4118 96.1681 51.931 96.2713 51.3868C96.3746 50.8427 96.2575 50.2798 95.9458 49.822Z" fill="white"/>
<path d="M75.0159 79.2928L66.5697 75.8634C66.0565 75.655 65.4816 75.659 64.9714 75.8745C64.4611 76.09 64.0574 76.4993 63.8489 77.0124C63.6404 77.5255 63.6443 78.1004 63.8597 78.6107C64.0751 79.1209 64.4843 79.5248 64.9974 79.7333L73.4437 83.1627C73.9567 83.3706 74.5314 83.3663 75.0413 83.1508C75.5512 82.9352 75.9546 82.5261 76.163 82.0132C76.3714 81.5003 76.3676 80.9257 76.1525 80.4156C75.9374 79.9055 75.5286 79.5017 75.0159 79.2928Z" fill="white"/>
<path d="M129.253 154.52C128.699 154.521 128.168 154.741 127.777 155.132C127.385 155.524 127.165 156.055 127.164 156.608V165.723C127.164 166.277 127.384 166.808 127.776 167.2C128.168 167.592 128.699 167.812 129.253 167.812C129.807 167.812 130.338 167.592 130.73 167.2C131.122 166.808 131.342 166.277 131.342 165.723V156.608C131.341 156.055 131.12 155.524 130.729 155.132C130.337 154.741 129.807 154.521 129.253 154.52Z" fill="white"/>
<path d="M170.763 153.502L165.632 145.971C165.477 145.744 165.28 145.55 165.051 145.399C164.821 145.249 164.565 145.145 164.295 145.094C164.026 145.043 163.749 145.046 163.48 145.101C163.212 145.157 162.957 145.265 162.73 145.42C162.504 145.574 162.31 145.772 162.159 146.001C162.009 146.23 161.905 146.487 161.854 146.757C161.803 147.026 161.805 147.303 161.861 147.571C161.917 147.84 162.025 148.095 162.18 148.321L167.31 155.852C167.515 156.152 167.794 156.394 168.12 156.553C168.447 156.712 168.809 156.784 169.171 156.76C169.775 156.342 170.375 155.913 170.964 155.473C171.097 155.153 171.149 154.806 171.114 154.461C171.079 154.117 170.958 153.787 170.763 153.502Z" fill="white"/>
<path d="M193.127 118.41L184.681 114.981C184.168 114.772 183.593 114.776 183.083 114.992C182.572 115.207 182.169 115.616 181.96 116.13C181.752 116.643 181.756 117.218 181.971 117.728C182.186 118.238 182.596 118.642 183.109 118.851L191.555 122.28C192.068 122.488 192.643 122.484 193.153 122.268C193.662 122.052 194.066 121.643 194.274 121.13C194.483 120.617 194.479 120.043 194.264 119.533C194.049 119.023 193.64 118.619 193.127 118.41Z" fill="white"/>
<path d="M95.3951 145.42C94.9372 145.108 94.3744 144.991 93.8303 145.094C93.2862 145.198 92.8054 145.513 92.4936 145.97L87.3628 153.501C87.1676 153.787 87.0469 154.117 87.0117 154.461C86.9766 154.806 87.028 155.153 87.1615 155.472C87.7501 155.913 88.3502 156.342 88.954 156.76C89.3164 156.783 89.6786 156.712 90.005 156.553C90.3313 156.394 90.6105 156.152 90.815 155.852L95.9458 148.321C96.1001 148.094 96.2084 147.84 96.2642 147.571C96.3201 147.303 96.3225 147.026 96.2714 146.756C96.2203 146.487 96.1166 146.23 95.9662 146.001C95.8158 145.771 95.6218 145.574 95.3951 145.42Z" fill="white"/>
<path d="M76.1634 116.127C76.0603 115.873 75.9081 115.642 75.7156 115.447C75.5231 115.252 75.294 115.097 75.0415 114.99C74.7889 114.884 74.5179 114.828 74.2438 114.826C73.9698 114.824 73.6981 114.877 73.4442 114.98L64.9979 118.41C64.4852 118.618 64.0764 119.022 63.8613 119.532C63.6463 120.042 63.6425 120.617 63.8509 121.13C64.0592 121.643 64.4627 122.052 64.9726 122.268C65.4825 122.483 66.0571 122.487 66.5702 122.279L75.0165 118.85C75.5289 118.64 75.9374 118.236 76.1523 117.725C76.3673 117.215 76.3713 116.64 76.1634 116.127Z" fill="white"/>
<path d="M131.962 98.0347C132.155 99.1765 131.887 100.348 131.218 101.293C130.548 102.237 129.53 102.877 128.389 103.073L91.3235 109.378C90.758 109.474 90.1792 109.458 89.62 109.33C89.0608 109.203 88.5323 108.966 88.0644 108.634C87.5966 108.303 87.1987 107.882 86.8935 107.396C86.5883 106.911 86.3817 106.37 86.2855 105.804C86.1893 105.239 86.2054 104.66 86.333 104.101C86.4605 103.542 86.6969 103.013 87.0287 102.545C87.3605 102.077 87.7812 101.68 88.2668 101.374C88.7523 101.069 89.2933 100.862 89.8587 100.766L126.924 94.4615C128.066 94.2686 129.238 94.5365 130.182 95.2064C131.127 95.8763 131.767 96.8934 131.962 98.0347Z" fill="#3F3D56"/>
<path d="M170.973 139.101C170.441 139.636 169.718 139.938 168.962 139.941C168.207 139.944 167.482 139.648 166.945 139.116L127.044 99.5286C126.509 98.9964 126.207 98.2734 126.204 97.5184C126.201 96.7634 126.499 96.0383 127.03 95.5024C127.562 94.9664 128.285 94.6635 129.04 94.6602C129.795 94.6569 130.52 94.9534 131.057 95.4847L170.957 135.072C171.493 135.605 171.795 136.328 171.798 137.083C171.801 137.838 171.505 138.564 170.973 139.101Z" fill="#3F3D56"/>
<path d="M129.062 104.009C131.789 104.009 133.999 101.799 133.999 99.0719C133.999 96.3452 131.789 94.1348 129.062 94.1348C126.335 94.1348 124.125 96.3452 124.125 99.0719C124.125 101.799 126.335 104.009 129.062 104.009Z" fill="#CCCCCC"/>
<path d="M95.0561 13.4613C87.4776 25.3759 75.9147 33.283 61.6546 38.4775C61.3728 38.6885 61.0522 38.842 60.7111 38.9291C60.37 39.0163 60.0151 39.0354 59.6667 38.9854C59.3182 38.9353 58.983 38.8172 58.6801 38.6376C58.3773 38.458 58.1128 38.2206 57.9018 37.9388C50.1559 27.5965 51.9049 12.8152 62.1279 4.91251C64.5995 3.00522 67.4253 1.60789 70.4413 0.801624C73.4573 -0.00463756 76.6034 -0.203766 79.697 0.215805C82.7906 0.635377 85.7701 1.66529 88.4624 3.24574C91.1547 4.8262 93.5062 6.92572 95.3805 9.42242L95.5948 9.70848C95.8058 9.99026 95.9593 10.3108 96.0464 10.6519C96.1336 10.993 96.1527 11.348 96.1026 11.6964C96.0526 12.0449 95.9345 12.3801 95.7549 12.6829C95.5753 12.9858 95.3378 13.2502 95.0561 13.4613Z" fill="#E6E6E6"/>
<path d="M162.744 9.42242C164.619 6.92572 166.97 4.8262 169.663 3.24574C172.355 1.66528 175.334 0.635378 178.428 0.215807C181.522 -0.203764 184.668 -0.00464172 187.684 0.80162C190.7 1.60788 193.526 3.00522 195.997 4.91251C206.22 12.8152 207.969 27.5965 200.223 37.9388C200.012 38.2206 199.748 38.458 199.445 38.6376C199.142 38.8172 198.807 38.9353 198.458 38.9854C198.11 39.0354 197.755 39.0163 197.414 38.9291C197.073 38.842 196.752 38.6885 196.47 38.4775C183.232 33.4092 172.376 24.6385 163.069 13.4613C162.5 13.035 162.123 12.4002 162.022 11.6964C161.921 10.9926 162.104 10.2775 162.53 9.70846L162.744 9.42242Z" fill="#E6E6E6"/>
<path d="M159.423 169.813C158.94 170.084 158.585 170.535 158.434 171.068C158.284 171.601 158.351 172.172 158.62 172.655L170.675 194.197C170.946 194.681 171.397 195.037 171.93 195.187C172.463 195.338 173.034 195.27 173.518 195C174.001 194.729 174.357 194.278 174.508 193.745C174.658 193.212 174.591 192.641 174.321 192.157L162.266 170.615C161.994 170.133 161.543 169.777 161.01 169.627C160.477 169.476 159.907 169.543 159.423 169.813Z" fill="#E6E6E6"/>
<path d="M95.8587 170.615L83.8038 192.157C83.5335 192.641 83.4662 193.212 83.6168 193.745C83.7673 194.278 84.1235 194.729 84.6068 195C85.0902 195.27 85.6612 195.337 86.1943 195.187C86.7274 195.036 87.1788 194.68 87.4494 194.197L99.5043 172.655C99.6383 172.416 99.7239 172.152 99.7561 171.88C99.7883 171.607 99.7665 171.331 99.692 171.067C99.6175 170.803 99.4917 170.556 99.3218 170.341C99.1519 170.126 98.9412 169.946 98.7018 169.812C98.4624 169.678 98.1989 169.592 97.9265 169.56C97.654 169.528 97.3779 169.55 97.1139 169.625C96.8499 169.699 96.6032 169.825 96.3878 169.995C96.1724 170.165 95.9926 170.376 95.8587 170.615Z" fill="#E6E6E6"/>
<path d="M173.117 199.713C176.683 199.713 179.574 196.823 179.574 193.257C179.574 189.691 176.683 186.801 173.117 186.801C169.552 186.801 166.661 189.691 166.661 193.257C166.661 196.823 169.552 199.713 173.117 199.713Z" fill="#E6E6E6"/>
<path d="M177.674 34.5092C181.24 34.5092 184.13 31.6186 184.13 28.0529C184.13 24.4872 181.24 21.5967 177.674 21.5967C174.108 21.5967 171.218 24.4872 171.218 28.0529C171.218 31.6186 174.108 34.5092 177.674 34.5092Z" fill="#E6E6E6"/>
<path d="M128.683 19.3178C132.248 19.3178 135.139 16.4272 135.139 12.8615C135.139 9.29583 132.248 6.40527 128.683 6.40527C125.117 6.40527 122.227 9.29583 122.227 12.8615C122.227 16.4272 125.117 19.3178 128.683 19.3178Z" fill="#E6E6E6"/>
<path d="M81.9699 33.7494C85.5356 33.7494 88.4261 30.8588 88.4261 27.2932C88.4261 23.7275 85.5356 20.8369 81.9699 20.8369C78.4042 20.8369 75.5137 23.7275 75.5137 27.2932C75.5137 30.8588 78.4042 33.7494 81.9699 33.7494Z" fill="#E6E6E6"/>
<path d="M86.1476 199.713C89.7133 199.713 92.6039 196.823 92.6039 193.257C92.6039 189.691 89.7133 186.801 86.1476 186.801C82.582 186.801 79.6914 189.691 79.6914 193.257C79.6914 196.823 82.582 199.713 86.1476 199.713Z" fill="#E6E6E6"/>
</g>
<defs>
<clipPath id="clip0_5467_30591">
<rect width="256.605" height="240" fill="white" transform="translate(0.697266)"/>
</clipPath>
</defs>
</svg>
