<svg width="40" height="41" viewBox="0 0 40 41" fill="none" xmlns="http://www.w3.org/2000/svg">
<path d="M0 4.30469C0 2.09555 1.79086 0.304688 4 0.304688H36C38.2091 0.304688 40 2.09555 40 4.30469V36.3047C40 38.5138 38.2091 40.3047 36 40.3047H4C1.79086 40.3047 0 38.5138 0 36.3047V4.30469Z" fill="#D0DEF1"/>
<path d="M5 13.3047C5 11.0955 6.79086 9.30469 9 9.30469H31C33.2091 9.30469 35 11.0955 35 13.3047V27.3047C35 29.5138 33.2091 31.3047 31 31.3047H9C6.79086 31.3047 5 29.5138 5 27.3047V13.3047Z" fill="#3D88ED"/>
</svg>
