<svg width="41" height="41" viewBox="0 0 41 41" fill="none" xmlns="http://www.w3.org/2000/svg">
<path d="M0.5 4.30469C0.5 2.09555 2.29086 0.304688 4.5 0.304688H36.5C38.7091 0.304688 40.5 2.09555 40.5 4.30469V36.3047C40.5 38.5138 38.7091 40.3047 36.5 40.3047H4.5C2.29086 40.3047 0.5 38.5138 0.5 36.3047V4.30469Z" fill="#D0DEF1"/>
<path d="M5.5 9.30469C5.5 7.09555 7.29086 5.30469 9.5 5.30469H31.5C33.7091 5.30469 35.5 7.09555 35.5 9.30469V11.3047C35.5 12.4093 34.6046 13.3047 33.5 13.3047H7.5C6.39543 13.3047 5.5 12.4093 5.5 11.3047V9.30469Z" fill="#3D88ED"/>
<path d="M5.5 18.3047C5.5 17.2001 6.39543 16.3047 7.5 16.3047H33.5C34.6046 16.3047 35.5 17.2001 35.5 18.3047V22.3047C35.5 23.4093 34.6046 24.3047 33.5 24.3047H7.5C6.39543 24.3047 5.5 23.4093 5.5 22.3047V18.3047Z" fill="#3D88ED"/>
<path d="M5.5 29.3047C5.5 28.2001 6.39543 27.3047 7.5 27.3047H33.5C34.6046 27.3047 35.5 28.2001 35.5 29.3047V31.3047C35.5 33.5138 33.7091 35.3047 31.5 35.3047H9.5C7.29086 35.3047 5.5 33.5138 5.5 31.3047V29.3047Z" fill="#3D88ED"/>
</svg>
