<svg width="21" height="22" viewBox="0 0 21 22" fill="none" xmlns="http://www.w3.org/2000/svg">
<path d="M17.5 21.5H10.5C9.57174 21.5 8.6815 21.1313 8.02513 20.4749C7.36875 19.8185 7 18.9283 7 18V11C7 10.0717 7.36875 9.1815 8.02513 8.52513C8.6815 7.86875 9.57174 7.5 10.5 7.5H17.5C18.4283 7.5 19.3185 7.86875 19.9749 8.52513C20.6313 9.1815 21 10.0717 21 11V18C21 18.9283 20.6313 19.8185 19.9749 20.4749C19.3185 21.1313 18.4283 21.5 17.5 21.5ZM10.5 9.83333C10.1906 9.83333 9.89383 9.95625 9.67504 10.175C9.45625 10.3938 9.33333 10.6906 9.33333 11V18C9.33333 18.3094 9.45625 18.6062 9.67504 18.825C9.89383 19.0438 10.1906 19.1667 10.5 19.1667H17.5C17.8094 19.1667 18.1062 19.0438 18.325 18.825C18.5438 18.6062 18.6667 18.3094 18.6667 18V11C18.6667 10.6906 18.5438 10.3938 18.325 10.175C18.1062 9.95625 17.8094 9.83333 17.5 9.83333H10.5Z" fill="#3D87ED"/>
<path d="M17.5 21.5H10.5C9.57174 21.5 8.6815 21.1313 8.02513 20.4749C7.36875 19.8185 7 18.9283 7 18V11C7 10.0717 7.36875 9.1815 8.02513 8.52513C8.6815 7.86875 9.57174 7.5 10.5 7.5H17.5C18.4283 7.5 19.3185 7.86875 19.9749 8.52513C20.6313 9.1815 21 10.0717 21 11V18C21 18.9283 20.6313 19.8185 19.9749 20.4749C19.3185 21.1313 18.4283 21.5 17.5 21.5ZM10.5 9.83333C10.1906 9.83333 9.89383 9.95625 9.67504 10.175C9.45625 10.3938 9.33333 10.6906 9.33333 11V18C9.33333 18.3094 9.45625 18.6062 9.67504 18.825C9.89383 19.0438 10.1906 19.1667 10.5 19.1667H17.5C17.8094 19.1667 18.1062 19.0438 18.325 18.825C18.5438 18.6062 18.6667 18.3094 18.6667 18V11C18.6667 10.6906 18.5438 10.3938 18.325 10.175C18.1062 9.95625 17.8094 9.83333 17.5 9.83333H10.5Z" fill="black" fill-opacity="0.2"/>
<path fill-rule="evenodd" clip-rule="evenodd" d="M15.809 15.9706C15.5345 15.6962 15.1059 15.6501 14.7795 15.86L9.1354 19.4883L7.86462 17.5116L13.5087 13.8832C14.7651 13.0755 16.4145 13.2528 17.4707 14.3089L20.8309 17.6691L19.1692 19.3308L15.809 15.9706Z" fill="#3D87ED"/>
<path fill-rule="evenodd" clip-rule="evenodd" d="M15.809 15.9706C15.5345 15.6962 15.1059 15.6501 14.7795 15.86L9.1354 19.4883L7.86462 17.5116L13.5087 13.8832C14.7651 13.0755 16.4145 13.2528 17.4707 14.3089L20.8309 17.6691L19.1692 19.3308L15.809 15.9706Z" fill="black" fill-opacity="0.2"/>
<path d="M11.5 13C12.0523 13 12.5 12.5523 12.5 12C12.5 11.4477 12.0523 11 11.5 11C10.9477 11 10.5 11.4477 10.5 12C10.5 12.5523 10.9477 13 11.5 13Z" fill="#3D87ED"/>
<path d="M11.5 13C12.0523 13 12.5 12.5523 12.5 12C12.5 11.4477 12.0523 11 11.5 11C10.9477 11 10.5 11.4477 10.5 12C10.5 12.5523 10.9477 13 11.5 13Z" fill="black" fill-opacity="0.2"/>
<path d="M7.85167 14.5H3.115C2.2898 14.4969 1.49927 14.1678 0.915758 13.5842C0.332247 13.0007 0.00307341 12.2102 0 11.385V3.615C0.00307341 2.7898 0.332247 1.99927 0.915758 1.41576C1.49927 0.832247 2.2898 0.503073 3.115 0.5H10.885C11.7102 0.503073 12.5007 0.832247 13.0842 1.41576C13.6678 1.99927 13.9969 2.7898 14 3.615V7.96667H11.6667V3.615C11.6667 3.40769 11.5843 3.20887 11.4377 3.06228C11.2911 2.91569 11.0923 2.83333 10.885 2.83333H3.115C2.90769 2.83333 2.70887 2.91569 2.56228 3.06228C2.41569 3.20887 2.33333 3.40769 2.33333 3.615V11.385C2.33333 11.5923 2.41569 11.7911 2.56228 11.9377C2.70887 12.0843 2.90769 12.1667 3.115 12.1667H7.85167V14.5Z" fill="#3D87ED"/>
<path d="M7.85167 14.5H3.115C2.2898 14.4969 1.49927 14.1678 0.915758 13.5842C0.332247 13.0007 0.00307341 12.2102 0 11.385V3.615C0.00307341 2.7898 0.332247 1.99927 0.915758 1.41576C1.49927 0.832247 2.2898 0.503073 3.115 0.5H10.885C11.7102 0.503073 12.5007 0.832247 13.0842 1.41576C13.6678 1.99927 13.9969 2.7898 14 3.615V7.96667H11.6667V3.615C11.6667 3.40769 11.5843 3.20887 11.4377 3.06228C11.2911 2.91569 11.0923 2.83333 10.885 2.83333H3.115C2.90769 2.83333 2.70887 2.91569 2.56228 3.06228C2.41569 3.20887 2.33333 3.40769 2.33333 3.615V11.385C2.33333 11.5923 2.41569 11.7911 2.56228 11.9377C2.70887 12.0843 2.90769 12.1667 3.115 12.1667H7.85167V14.5Z" fill="black" fill-opacity="0.2"/>
</svg>
