<svg width="224" height="162" viewBox="0 0 224 162" fill="none" xmlns="http://www.w3.org/2000/svg">
<mask id="mask0_1404_3169" style="mask-type:luminance" maskUnits="userSpaceOnUse" x="0" y="0" width="224" height="162">
<path d="M188.77 161.355C207.983 161.782 223.3 145.997 223.3 123.488C223.3 96.7818 208.043 89.6606 203.193 74.612C198.897 61.2784 206.411 50.4957 197.547 35.9653C188.633 21.3518 171.154 4.62449 155.925 10.7689C128.395 21.8762 118.208 0.65364 93.4557 0.0136371C78.2356 -0.378884 63.4192 7.74945 52.813 18.2775C44.4677 26.5621 44.1025 38.428 38.0484 48.243C31.7832 58.3999 20.1202 67.4705 12.3113 76.2186C-9.55524 100.716 0.184763 142.464 22.166 160.642C22.166 160.642 188.706 161.353 188.77 161.355Z" fill="white"/>
</mask>
<g mask="url(#mask0_1404_3169)">
<path d="M188.77 161.355C207.983 161.782 223.3 145.997 223.3 123.488C223.3 96.7818 208.043 89.6606 203.193 74.612C198.897 61.2784 206.411 50.4957 197.547 35.9653C188.633 21.3518 171.154 4.62449 155.925 10.7689C128.395 21.8762 118.208 0.65364 93.4557 0.0136371C78.2356 -0.378884 63.4192 7.74945 52.813 18.2775C44.4677 26.5621 44.1025 38.428 38.0484 48.243C31.7832 58.3999 20.1202 67.4705 12.3113 76.2186C-9.55524 100.716 0.184763 142.464 22.166 160.642C22.166 160.642 188.706 161.353 188.77 161.355Z" fill="#C5DCFA"/>
</g>
<path d="M155.354 71.3134C155.158 67.8297 149.386 67.6845 149.386 67.6845C149.386 67.6845 144.396 72.6544 143.27 72.5595C142.144 72.4646 146.707 67.4767 146.707 67.4767C144.624 66.8209 138.655 68.2843 138.655 68.2843C138.655 68.2843 137.578 75.0857 136.51 74.7156C135.441 74.3464 137.771 68.7426 137.771 68.7426C135.583 68.9258 133.155 70.9225 133.155 70.9225C129.929 74.3284 134.464 78.2999 134.464 78.2999C134.464 78.2999 134.04 80.6486 132.035 83.0221C132.035 83.0221 131.606 83.4482 131.099 84.2178L131.66 84.3364C131.738 84.196 131.818 84.0603 131.904 83.9331C131.904 83.9321 131.904 83.9312 131.906 83.9312C131.907 83.9293 131.909 83.9274 131.91 83.9255C131.967 83.8467 132.049 83.7348 132.149 83.599C132.391 83.2992 132.56 83.0762 132.67 82.912C132.67 82.912 132.67 82.911 132.67 82.9101C133.406 81.9649 134.436 80.7473 134.99 80.5632C134.99 80.5632 134.947 80.4626 134.925 80.2804C134.946 80.3706 134.967 80.4645 134.99 80.5632C135.515 82.8256 140.244 84.1846 143.035 84.2007C145.826 84.2168 144.819 83.2157 143.638 81.6849C142.457 80.1542 139.37 79.8392 138.58 79.1701C137.79 78.5011 139.195 78.2961 140.949 78.8105C142.703 79.3248 143.219 81.2987 146.041 82.1822C148.864 83.0657 152.203 78.1063 152.203 78.1063C150.083 78.3037 146.749 76.4513 146.757 75.7357C146.764 75.0202 152.032 76.2055 152.898 76.1732C153.765 76.1409 155.552 74.7981 155.356 71.3134H155.354Z" fill="#DFEBFD"/>
<path opacity="0.5" d="M136.473 63.4662C136.473 63.4662 139.948 50.9822 147.627 44.3972C148.647 43.5222 150.205 44.42 149.972 45.7448C149.968 45.7666 149.965 45.7894 149.96 45.8122C149.527 48.0679 140.763 56.5129 136.473 63.4671V63.4662Z" fill="#AFCDFB"/>
<path opacity="0.5" d="M135.12 66.9852C135.12 66.9852 144.055 52.0898 156.219 46.7689C156.96 46.4443 157.851 46.7413 158.203 47.4711C158.432 47.9466 158.461 48.6384 157.969 49.6358C156.656 52.2958 142.848 59.8004 135.121 66.9852H135.12Z" fill="#AFCDFB"/>
<path opacity="0.5" d="M133.711 130.006C133.711 130.006 147.273 123.201 149.728 125.571C152.182 127.941 133.711 130.006 133.711 130.006Z" fill="#AFCDFB"/>
<path opacity="0.5" d="M131.504 130.821C131.504 130.821 149.663 129.224 149.948 133.013C150.233 136.801 131.504 130.821 131.504 130.821Z" fill="#AFCDFB"/>
<path d="M68.9183 50.7698C71.2343 43.621 83.3365 46.4851 83.3365 46.4851C83.3365 46.4851 91.0078 59.5716 93.4053 59.992C95.8028 60.4124 89.0293 47.5214 89.0293 47.5214C93.7257 47.2984 105.357 53.6196 105.357 53.6196C105.357 53.6196 103.877 68.3744 106.305 68.1913C108.732 68.0081 106.949 55.0592 106.949 55.0592C111.406 56.6402 115.369 62.1301 115.369 62.1301C120.224 70.9927 108.605 76.7768 108.605 76.7768C108.605 76.7768 108.202 81.9013 111.08 87.9435C111.08 87.9435 111.742 89.0662 112.377 90.949L111.143 90.8882C111.059 90.5523 110.963 90.2268 110.856 89.9136C110.856 89.9108 110.856 89.9098 110.854 89.9079C110.852 89.9032 110.851 89.8994 110.85 89.8947C110.775 89.7001 110.667 89.4221 110.531 89.0842C110.531 89.0842 110.531 89.0842 110.531 89.0833C110.531 89.0833 110.531 89.0833 110.531 89.0814C110.191 88.3241 109.962 87.767 109.821 87.3646C109.821 87.3637 109.821 87.3618 109.82 87.3609C108.805 84.9874 107.327 81.888 106.273 81.201C106.273 81.201 106.419 81.0159 106.565 80.6477C106.472 80.8242 106.375 81.0083 106.273 81.201C103.94 85.6252 93.3475 85.8615 87.5258 84.3649C81.7041 82.8683 84.349 81.3338 87.6481 78.7953C90.9471 76.2558 97.5462 77.293 99.5588 76.3327C101.57 75.3723 98.7578 74.1747 94.8226 74.2838C90.8874 74.3929 88.7345 78.2211 82.3724 78.5134C76.0094 78.8057 71.7699 66.6444 71.7699 66.6444C76.0758 68.2179 84.0352 66.188 84.4106 64.6933C84.786 63.1987 73.1682 62.7792 71.3812 62.2373C69.5942 61.6955 66.6052 57.9175 68.9211 50.7688L68.9183 50.7698Z" fill="#DFEBFD"/>
<path d="M151.949 104.709C150.796 100.448 143.613 101.78 143.613 101.78C143.613 101.78 138.735 109.237 137.316 109.414C135.897 109.592 140.243 102.224 140.243 102.224C137.493 101.957 130.488 105.331 130.488 105.331C130.488 105.331 130.931 114.031 129.512 113.853C128.093 113.675 129.512 106.129 129.512 106.129C126.852 106.928 124.368 110.035 124.368 110.035C121.264 115.095 127.916 118.824 127.916 118.824C127.916 118.824 128.004 121.842 126.142 125.304C126.142 125.304 125.722 125.944 125.294 127.03H126.02C126.078 126.836 126.144 126.647 126.217 126.467C126.217 126.466 126.217 126.465 126.218 126.464C126.219 126.461 126.22 126.459 126.221 126.456C126.27 126.344 126.342 126.185 126.431 125.99C126.653 125.556 126.803 125.235 126.897 125.003V125.001C127.561 123.639 128.518 121.862 129.156 121.49C129.156 121.49 129.075 121.377 129 121.157C129.049 121.263 129.102 121.374 129.156 121.49C130.398 124.153 136.605 124.597 140.063 123.887C143.522 123.177 142.014 122.201 140.152 120.616C138.29 119.031 134.387 119.449 133.234 118.827C132.081 118.206 133.766 117.584 136.072 117.762C138.378 117.939 139.531 120.247 143.255 120.603C146.98 120.958 149.818 113.945 149.818 113.945C147.246 114.744 142.635 113.323 142.458 112.436C142.281 111.548 149.109 111.637 150.174 111.37C151.239 111.104 153.1 108.973 151.948 104.712L151.949 104.709Z" fill="#DFEBFD"/>
<path d="M77.5019 99.7251C80.0558 94.8805 88.3907 98.4497 88.3907 98.4497C88.3907 98.4497 92.268 108.806 93.9375 109.408C95.6069 110.009 92.3495 99.9045 92.3495 99.9045C95.75 100.332 103.315 106.323 103.315 106.323C103.315 106.323 100.413 116.735 102.179 116.907C103.946 117.078 104.279 107.556 104.279 107.556C107.283 109.248 109.444 113.687 109.444 113.687C111.826 120.658 102.761 123.361 102.761 123.361C102.761 123.361 101.832 126.991 103.146 131.689C103.146 131.689 103.481 132.577 103.703 134.009L102.825 133.812C102.806 133.56 102.779 133.315 102.74 133.076C102.74 133.074 102.74 133.074 102.74 133.072C102.74 133.068 102.739 133.065 102.738 133.061C102.708 132.912 102.665 132.699 102.61 132.44C102.61 132.44 102.61 132.44 102.61 132.439C102.46 131.852 102.365 131.423 102.314 131.118C102.314 131.117 102.314 131.116 102.314 131.115C101.881 129.283 101.206 126.873 100.535 126.248C100.535 126.248 100.663 126.134 100.813 125.888C100.724 126.003 100.632 126.123 100.535 126.248C98.3078 129.134 90.6716 127.98 86.6776 126.178C82.6837 124.376 84.774 123.605 87.4597 122.193C90.1454 120.782 94.7556 122.351 96.3198 121.912C97.884 121.474 96.0136 120.263 93.1734 119.849C90.3341 119.437 88.3101 121.916 83.7047 121.332C79.0993 120.747 77.5701 111.483 77.5701 111.483C80.4663 113.151 86.4359 112.687 86.8919 111.662C87.3479 110.635 79.0566 108.882 77.8413 108.27C76.625 107.658 74.9498 104.571 77.5038 99.7261L77.5019 99.7251Z" fill="#CDE0FB"/>
<path d="M75.1659 139.259C73.815 136.328 78.4679 133.701 78.4679 133.701C78.4679 133.701 84.6982 135.592 85.577 135.026C86.4558 134.459 80.5658 132.368 80.5658 132.368C81.9831 130.927 87.4929 129.528 87.4929 129.528C87.4929 129.528 91.3219 134.616 92.0338 133.849C92.7467 133.083 88.4143 129.518 88.4143 129.518C90.281 128.716 93.1297 129.293 93.1297 129.293C97.2422 130.673 95.2599 135.887 95.2599 135.887C95.2599 135.887 96.625 137.622 99.2918 138.689C99.2918 138.689 99.8274 138.85 100.576 139.258L100.17 139.599C100.045 139.517 99.9203 139.442 99.7952 139.375C99.7952 139.375 99.7942 139.374 99.7933 139.374C99.7914 139.374 99.7895 139.372 99.7876 139.371C99.707 139.331 99.5923 139.275 99.451 139.208C99.123 139.068 98.8889 138.959 98.7277 138.874C98.7277 138.874 98.7268 138.874 98.7258 138.874C97.7143 138.421 96.3454 137.875 95.8135 137.965C95.8135 137.965 95.806 137.863 95.7443 137.705C95.7661 137.787 95.7889 137.874 95.8135 137.965C96.3653 140.041 93.0918 143.206 90.8194 144.432C88.5471 145.658 88.9348 144.403 89.2363 142.639C89.5377 140.876 91.922 139.278 92.2775 138.388C92.633 137.498 91.3968 137.941 90.1871 139.123C88.9775 140.306 89.4126 142.142 87.49 144.09C85.5675 146.039 80.689 143.439 80.689 143.439C82.5054 142.678 84.4261 139.717 84.1094 139.135C83.7928 138.554 80.0046 141.811 79.2831 142.161C78.5617 142.511 76.5188 142.192 75.1678 139.26L75.1659 139.259Z" fill="#D9E8FA"/>
<path d="M46.4238 73.6935L59.4286 75.5507L50.7979 69.6622L50.36 71.5498L47.1974 72.123L46.4238 73.6935Z" fill="#9EC3F6"/>
<path d="M59.4287 75.5507L48.6063 69.9649L38 69.4307L59.4287 75.5507Z" fill="#CDE0FB"/>
<path d="M50.7979 69.6622L59.4285 75.5507L52.7479 66.3474L50.7979 69.6622Z" fill="#CDE0FB"/>
<path d="M183.64 58.1264L185.957 65.5788C185.991 65.6889 186.004 65.8008 186 65.909C185.983 66.3038 185.721 66.6644 185.323 66.7878L172.393 70.8162C171.992 70.9415 171.572 70.7906 171.335 70.4718C171.27 70.3863 171.22 70.2886 171.186 70.1804L168.87 62.7309C168.712 62.2212 168.995 61.6803 169.503 61.5218L182.432 57.4934C182.939 57.3359 183.479 57.6177 183.639 58.1254L183.64 58.1264Z" fill="#CDE0FB"/>
<path d="M186 65.909C185.983 66.3038 185.721 66.6644 185.323 66.7878L172.393 70.8162C171.992 70.9415 171.572 70.7906 171.335 70.4717L177.825 64.2729L186 65.9081V65.909Z" fill="#BED7FB"/>
<path d="M183.64 58.1264L177.98 65.5038L168.99 63.1123L168.871 62.7309C168.713 62.2212 168.996 61.6803 169.504 61.5218L182.433 57.4934C182.94 57.3359 183.48 57.6177 183.64 58.1254V58.1264Z" fill="#DFEBFD"/>
<path d="M138.413 30.8164L136.79 37.0418C136.766 37.1339 136.726 37.2174 136.676 37.2914C136.492 37.5609 136.153 37.6985 135.82 37.6112L125.019 34.7899C124.685 34.7025 124.456 34.4131 124.429 34.0876C124.421 33.9993 124.429 33.9092 124.451 33.819L126.073 27.5965C126.184 27.1704 126.619 26.9161 127.043 27.0271L137.844 29.8485C138.268 29.9595 138.523 30.3922 138.414 30.8174L138.413 30.8164Z" fill="#CDE0FB"/>
<path d="M136.675 37.2913C136.491 37.5608 136.152 37.6984 135.819 37.6111L125.018 34.7897C124.684 34.7024 124.455 34.413 124.428 34.0875L131.668 32.5814L136.676 37.2922L136.675 37.2913Z" fill="#BED7FB"/>
<path d="M138.413 30.8163L131.24 33.5095L125.99 27.9143L126.074 27.5954C126.185 27.1693 126.619 26.915 127.043 27.026L137.844 29.8474C138.268 29.9584 138.523 30.3911 138.414 30.8163H138.413Z" fill="#DFEBFD"/>
<mask id="mask1_1404_3169" style="mask-type:alpha" maskUnits="userSpaceOnUse" x="0" y="0" width="224" height="162">
<path d="M188.77 161.355C207.983 161.782 223.3 145.997 223.3 123.488C223.3 96.7818 208.043 89.6606 203.193 74.612C198.897 61.2784 206.411 50.4957 197.547 35.9653C188.633 21.3518 171.154 4.62449 155.925 10.7689C128.395 21.8762 118.208 0.65364 93.4557 0.0136371C78.2356 -0.378884 63.4192 7.74945 52.813 18.2775C44.4677 26.5621 44.1025 38.428 38.0484 48.243C31.7832 58.3999 20.1202 67.4705 12.3113 76.2186C-9.55524 100.716 0.184763 142.464 22.166 160.642C22.166 160.642 188.706 161.353 188.77 161.355Z" fill="#C5DCFA"/>
</mask>
<g mask="url(#mask1_1404_3169)">
<path d="M88.4455 95.2348C88.3385 95.387 87.8824 96.1151 88.4674 96.9357C88.5051 96.9868 88.5294 97.0295 88.5452 97.0648C95.5522 101.279 116.567 118.327 116.567 130.343V155.235H53.1416V130.333C53.1416 118.24 74.4436 100.922 81.2962 96.9357H81.2974C81.5175 96.6277 81.5893 96.333 81.5893 96.0761C81.5893 95.5635 81.2974 95.2043 81.2974 95.2043C74.4278 91.1292 53.1416 73.9387 53.1416 61.8461V36.9534H116.567V61.8558C116.567 73.929 95.3345 91.212 88.4443 95.2336L88.4455 95.2348Z" fill="#B0D4FF"/>
<path d="M52.3399 155.235H117.004C118.771 155.235 120.206 156.672 120.206 158.441V161.647H49V158.579C49 156.733 50.496 155.235 52.3399 155.235Z" fill="#102665"/>
<path d="M71.2981 131.873C70.9733 137.445 72.0315 149.463 71.9354 155.235H53.1426V130.333C53.1426 118.24 74.4446 100.922 81.2972 96.9357H81.2984C81.5185 96.6277 81.5903 96.333 81.5903 96.0761C81.5903 95.5635 81.2984 95.2043 81.2984 95.2043C74.4288 91.1292 53.1426 73.9387 53.1426 61.8461V36.9534H65.7153L74.6903 39.4116V59.0969C74.6903 59.0969 73.8012 64.767 76.027 70.336C78.2528 75.9051 83.0304 93.7725 82.9562 96.0932C82.882 98.4138 71.8551 122.322 71.2993 131.872L71.2981 131.873Z" fill="#A4C8FC"/>
<path d="M49 33H120.206V36.0865C120.206 37.9213 118.717 39.4116 116.885 39.4116H52.2025C50.4352 39.4116 49 37.9749 49 36.2058V33Z" fill="#102665"/>
<path d="M113.265 155.162H56.4287V152.413C56.4287 144.514 77.2126 127.326 82.7209 122.91C83.4314 122.341 83.8897 121.526 84.0141 120.638C84.0521 120.367 84.2684 120.143 84.542 120.14C84.8204 120.136 85.0442 120.362 85.0841 120.638C85.213 121.527 85.6792 122.34 86.3971 122.9C92.016 127.289 113.265 144.414 113.265 152.319V155.162Z" fill="#3D87ED"/>
</g>
<path d="M92.0049 85.0935L155.434 52.3227C157.043 51.4924 158.953 51.4924 160.562 52.3227L223.991 85.0935V134.304C223.991 137.388 221.49 139.889 218.407 139.889H97.5895C94.5055 139.889 92.0049 137.388 92.0049 134.304V85.0935Z" fill="#8BB7F4"/>
<path d="M223.74 85.5692V161.719H92.2549V85.5645L152.973 126.653L153.037 126.696H153.113H163.935H164.013L164.077 126.652L223.74 85.5692Z" fill="white" stroke="#DDDDDD" stroke-width="0.5"/>
<path d="M110.675 160.969V151.53L157.998 123.531L204.12 150.395V160.646L110.675 160.969Z" fill="white"/>
<path d="M92.0096 161.99L92 161.948C94.4595 161.398 146.066 130.631 156.386 124.469C156.88 124.174 157.986 123.513 157.986 123.513L157.997 123.507L158.008 123.513L159.62 124.452L224 161.951L223.978 161.988L157.997 123.557C157.882 123.626 156.873 124.229 156.408 124.507C146.087 130.67 94.476 161.439 92.0096 161.991V161.99Z" fill="#060633"/>
<g clip-path="url(#clip0_1404_3169)">
<path d="M181.82 143.996L164.882 115.906C164.197 114.834 163.254 113.953 162.138 113.342C161.023 112.731 159.772 112.411 158.5 112.411C157.229 112.411 155.977 112.731 154.862 113.342C153.747 113.953 152.803 114.834 152.118 115.906L135.18 143.996C134.582 144.993 134.257 146.131 134.237 147.294C134.218 148.457 134.505 149.604 135.07 150.621C135.723 151.765 136.668 152.716 137.809 153.376C138.949 154.035 140.245 154.38 141.562 154.375H175.438C176.747 154.389 178.037 154.057 179.177 153.414C180.316 152.77 181.266 151.837 181.931 150.709C182.512 149.682 182.808 148.518 182.789 147.337C182.769 146.157 182.435 145.004 181.82 143.996ZM158.5 145.542C158.063 145.542 157.636 145.412 157.273 145.17C156.91 144.927 156.627 144.582 156.46 144.178C156.293 143.775 156.249 143.331 156.334 142.903C156.419 142.474 156.63 142.081 156.939 141.772C157.247 141.463 157.641 141.253 158.069 141.167C158.498 141.082 158.942 141.126 159.345 141.293C159.749 141.46 160.094 141.743 160.336 142.106C160.579 142.47 160.709 142.897 160.709 143.333C160.709 143.919 160.476 144.481 160.062 144.895C159.648 145.309 159.086 145.542 158.5 145.542ZM160.709 136.708C160.709 137.294 160.476 137.856 160.062 138.27C159.648 138.684 159.086 138.917 158.5 138.917C157.914 138.917 157.353 138.684 156.939 138.27C156.525 137.856 156.292 137.294 156.292 136.708V127.875C156.292 127.289 156.525 126.728 156.939 126.313C157.353 125.899 157.914 125.667 158.5 125.667C159.086 125.667 159.648 125.899 160.062 126.313C160.476 126.728 160.709 127.289 160.709 127.875V136.708Z" fill="#FF0000"/>
</g>
<defs>
<clipPath id="clip0_1404_3169">
<rect width="53" height="53" fill="white" transform="translate(132 108)"/>
</clipPath>
</defs>
</svg>
