<svg width="120" height="120" viewBox="0 0 120 120" fill="none" xmlns="http://www.w3.org/2000/svg">
<rect width="120" height="120" rx="60" fill="#F2F2F2"/>
<path d="M60 56C63.1645 56 66.2579 55.0616 68.8891 53.3035C71.5203 51.5454 73.5711 49.0466 74.7821 46.1229C75.9931 43.1993 76.3099 39.9823 75.6926 36.8786C75.0752 33.7749 73.5513 30.9239 71.3137 28.6863C69.0761 26.4487 66.2251 24.9248 63.1214 24.3074C60.0177 23.6901 56.8007 24.0069 53.8771 25.2179C50.9534 26.4289 48.4546 28.4797 46.6965 31.1109C44.9384 33.7421 44 36.8355 44 40C44 44.2435 45.6857 48.3131 48.6863 51.3137C51.6869 54.3143 55.7565 56 60 56Z" fill="#CCCCCC"/>
<path d="M84 95.9999C85.0609 95.9999 86.0783 95.5785 86.8284 94.8283C87.5786 94.0782 88 93.0607 88 91.9999C88 84.5738 85.05 77.4519 79.799 72.2009C74.548 66.9499 67.4261 63.9999 60 63.9999C52.5739 63.9999 45.452 66.9499 40.201 72.2009C34.95 77.4519 32 84.5738 32 91.9999C32 93.0607 32.4214 94.0782 33.1716 94.8283C33.9217 95.5785 34.9391 95.9999 36 95.9999H84Z" fill="#CCCCCC"/>
</svg>
