<svg width="118" height="31" viewBox="0 0 118 31" fill="none" xmlns="http://www.w3.org/2000/svg">
<path d="M8 20.5409C8 20.9713 8.27537 21.3534 8.68365 21.4895L14.4067 23.398C15.2636 23.6838 16.192 23.6711 17.0408 23.362L30.1444 18.5901C30.9343 18.3024 31.4601 17.5515 31.4601 16.7108V16.3851C31.4601 14.9968 30.0802 14.0308 28.7757 14.5059L17.0408 18.7793C16.192 19.0884 15.2636 19.1011 14.4067 18.8154L9.31634 17.1179C8.66879 16.9019 8 17.3839 8 18.0665V20.5409Z" fill="#3D88ED"/>
<path d="M14.3807 0.152679C15.1002 -0.050893 15.9003 -0.0508932 16.6198 0.152679L30.3467 4.03649C30.8603 4.18182 30.9082 4.43733 30.9082 4.50728C30.9082 4.57723 30.8603 4.83274 30.3467 4.97807L16.6198 8.86188C15.9003 9.06546 15.1002 9.06546 14.3807 8.86188L0.653801 4.97807C0.140152 4.83274 0.0922853 4.57723 0.0922852 4.50728C0.092285 4.43733 0.140148 4.18182 0.653796 4.03649L14.3807 0.152679Z" fill="#8BB7F4"/>
<path d="M31.46 6.69824C31.2971 6.77351 31.1241 6.83751 30.9421 6.88899L17.2153 10.7728C16.107 11.0864 14.893 11.0864 13.7847 10.7728L0.057871 6.88899C0.0384793 6.8835 0.0191884 6.87787 0 6.8721V23.3394C0 24.1801 0.525711 24.931 1.31563 25.2187L14.3613 29.9695C15.2454 30.2914 16.2146 30.2914 17.0987 29.9695L30.1444 25.2187C30.9343 24.931 31.46 24.1801 31.46 23.3394V23.0137C31.46 21.6254 30.0802 20.6594 28.7756 21.1345L17.0987 25.3868C16.2146 25.7088 15.2454 25.7088 14.3613 25.3868L7.60763 22.9274C6.81771 22.6397 6.292 21.8888 6.292 21.0481V16.5606C6.292 15.1645 7.68615 14.1979 8.99354 14.6876L14.3269 16.6854C15.2316 17.0242 16.2284 17.0242 17.1331 16.6854L30.1615 11.8053C30.9425 11.5127 31.46 10.7663 31.46 9.93235V6.69824Z" fill="url(#paint0_linear_7582_26813)"/>
<path d="M112.885 5.69727C113.693 5.69727 114.413 5.86143 115.044 6.18977C115.688 6.50547 116.193 6.99797 116.559 7.66727C116.926 8.32394 117.109 9.17003 117.109 10.2055V15.0398C117.109 15.5921 116.661 16.0398 116.109 16.0398H115.154C114.601 16.0398 114.154 15.5921 114.154 15.0398V10.6602C114.154 9.83932 113.971 9.23317 113.604 8.84169C113.251 8.45022 112.746 8.25448 112.089 8.25448C111.622 8.25448 111.199 8.35551 110.82 8.55756C110.454 8.74698 110.163 9.04375 109.949 9.44785C109.746 9.85195 109.645 10.3697 109.645 11.0011V15.0398C109.645 15.5921 109.198 16.0398 108.645 16.0398H107.69C107.138 16.0398 106.69 15.5921 106.69 15.0398V6.8488C106.69 6.29652 107.138 5.8488 107.69 5.8488H108.886C109.232 5.8488 109.513 6.12961 109.513 6.476V7.80974C109.513 8.05729 109.189 8.14996 109.058 7.93977C109.011 7.86495 109.008 7.77063 109.052 7.69446C109.414 7.07285 109.915 6.59023 110.555 6.24659C111.237 5.88037 112.013 5.69727 112.885 5.69727Z" fill="#00275C"/>
<path d="M99.1274 16.1913C98.0414 16.1913 97.0754 15.964 96.2293 15.5094C95.3958 15.0548 94.7328 14.436 94.2403 13.653C93.7604 12.8575 93.5205 11.9546 93.5205 10.9443C93.5205 9.92141 93.7604 9.01849 94.2403 8.23554C94.7328 7.43996 95.3958 6.82118 96.2293 6.37919C97.0754 5.92457 98.0414 5.69727 99.1274 5.69727C100.201 5.69727 101.161 5.92457 102.007 6.37919C102.853 6.82118 103.516 7.43365 103.996 8.2166C104.475 8.99955 104.715 9.90878 104.715 10.9443C104.715 11.9546 104.475 12.8575 103.996 13.653C103.516 14.436 102.853 15.0548 102.007 15.5094C101.161 15.964 100.201 16.1913 99.1274 16.1913ZM99.1274 13.7667C99.6199 13.7667 100.062 13.653 100.453 13.4257C100.845 13.1984 101.154 12.8764 101.382 12.4597C101.609 12.0303 101.723 11.5252 101.723 10.9443C101.723 10.3508 101.609 9.84564 101.382 9.42891C101.154 9.01217 100.845 8.69015 100.453 8.46285C100.062 8.23554 99.6199 8.12188 99.1274 8.12188C98.6349 8.12188 98.193 8.23554 97.8015 8.46285C97.41 8.69015 97.0943 9.01217 96.8544 9.42891C96.6271 9.84564 96.5134 10.3508 96.5134 10.9443C96.5134 11.5252 96.6271 12.0303 96.8544 12.4597C97.0943 12.8764 97.41 13.1984 97.8015 13.4257C98.193 13.653 98.6349 13.7667 99.1274 13.7667Z" fill="#00275C"/>
<path d="M89.5806 16.0395C89.0283 16.0395 88.5806 15.5917 88.5806 15.0395V6.84848C88.5806 6.29619 89.0283 5.84848 89.5806 5.84848H90.5356C91.0879 5.84848 91.5356 6.29619 91.5356 6.84848V15.0395C91.5356 15.5917 91.0879 16.0395 90.5356 16.0395H89.5806ZM90.0581 4.4278C89.5151 4.4278 89.0731 4.26995 88.7321 3.95425C88.3912 3.63854 88.2207 3.24706 88.2207 2.77982C88.2207 2.31258 88.3912 1.9211 88.7321 1.6054C89.0731 1.28969 89.5151 1.13184 90.0581 1.13184C90.6011 1.13184 91.0431 1.28337 91.3841 1.58645C91.725 1.8769 91.8955 2.25575 91.8955 2.72299C91.8955 3.21549 91.725 3.62591 91.3841 3.95425C91.0557 4.26995 90.6137 4.4278 90.0581 4.4278Z" fill="#00275C"/>
<path d="M81.9463 16.1913C81.0749 16.1913 80.2352 16.0903 79.4269 15.8882C78.9973 15.7723 78.6155 15.6416 78.2816 15.4962C77.8315 15.3002 77.6847 14.7652 77.8915 14.3199L78.0421 13.9956C78.2949 13.4511 78.9696 13.2525 79.5285 13.4717C79.7307 13.5511 79.9431 13.6241 80.1657 13.6909C80.8097 13.8677 81.4412 13.9561 82.0599 13.9561C82.7419 13.9561 83.2217 13.874 83.4995 13.7099C83.79 13.5457 83.9352 13.3184 83.9352 13.028C83.9352 12.788 83.8216 12.6112 83.5943 12.4976C83.3796 12.3713 83.0891 12.2766 82.7229 12.2134C82.3567 12.1503 81.9526 12.0871 81.5106 12.024C81.0812 11.9609 80.6456 11.8788 80.2036 11.7778C79.7616 11.6641 79.3575 11.4999 78.9913 11.2853C78.6251 11.0706 78.3283 10.7801 78.101 10.4139C77.8863 10.0477 77.779 9.57413 77.779 8.99323C77.779 8.34919 77.9621 7.78092 78.3283 7.28842C78.7071 6.79592 79.2502 6.41076 79.9573 6.13294C80.6645 5.84249 81.5106 5.69727 82.4956 5.69727C83.1902 5.69727 83.8973 5.77303 84.6171 5.92457C84.9764 6.00021 85.3058 6.09315 85.6053 6.20339C86.0851 6.38 86.2521 6.93875 86.0353 7.40173L85.8981 7.69447C85.648 8.22844 84.9941 8.41704 84.4336 8.23401C84.2681 8.17999 84.102 8.1363 83.9352 8.10294C83.4427 7.98929 82.9628 7.93246 82.4956 7.93246C81.8389 7.93246 81.3591 8.02086 81.056 8.19765C80.7529 8.37445 80.6014 8.60176 80.6014 8.87958C80.6014 9.13214 80.7087 9.32157 80.9234 9.44785C81.1507 9.57413 81.4475 9.67516 81.8137 9.75093C82.1799 9.8267 82.5777 9.89615 83.007 9.95929C83.449 10.0098 83.891 10.0919 84.333 10.2055C84.775 10.3192 85.1728 10.4834 85.5264 10.698C85.8926 10.9001 86.1894 11.1842 86.4167 11.5504C86.644 11.904 86.7576 12.3713 86.7576 12.9522C86.7576 13.5836 86.5682 14.1455 86.1894 14.638C85.8105 15.1179 85.2612 15.4968 84.5414 15.7746C83.8342 16.0524 82.9692 16.1913 81.9463 16.1913Z" fill="#00275C"/>
<path d="M71.615 5.69727C72.4233 5.69727 73.1431 5.86143 73.7745 6.18977C74.4185 6.50547 74.9236 6.99797 75.2899 7.66727C75.6561 8.32394 75.8392 9.17003 75.8392 10.2055V15.0398C75.8392 15.5921 75.3915 16.0398 74.8392 16.0398H73.8842C73.3319 16.0398 72.8842 15.5921 72.8842 15.0398V10.6602C72.8842 9.83932 72.7011 9.23317 72.3349 8.84169C71.9813 8.45022 71.4761 8.25448 70.8195 8.25448C70.3522 8.25448 69.9292 8.35551 69.5503 8.55756C69.1841 8.74698 68.8937 9.04375 68.679 9.44785C68.4769 9.85195 68.3759 10.3697 68.3759 11.0011V15.0398C68.3759 15.5921 67.9282 16.0398 67.3759 16.0398H66.4209C65.8686 16.0398 65.4209 15.5921 65.4209 15.0398V6.8488C65.4209 6.29652 65.8686 5.8488 66.4209 5.8488H67.6161C67.9625 5.8488 68.2433 6.12961 68.2433 6.47601V7.80974C68.2433 8.05729 67.919 8.14996 67.7882 7.93978C67.7416 7.86495 67.7381 7.77063 67.7825 7.69446C68.1444 7.07285 68.6453 6.59023 69.2851 6.24659C69.9671 5.88037 70.7437 5.69727 71.615 5.69727Z" fill="#00275C"/>
<path d="M58.5282 16.1913C57.3664 16.1913 56.3435 15.964 55.4595 15.5094C54.5882 15.0548 53.9126 14.436 53.4327 13.653C52.9528 12.8575 52.7129 11.9546 52.7129 10.9443C52.7129 9.92141 52.9465 9.01849 53.4138 8.23554C53.8936 7.43996 54.544 6.82118 55.3648 6.37919C56.1857 5.92457 57.1138 5.69727 58.1493 5.69727C59.147 5.69727 60.0436 5.91195 60.8392 6.34131C61.6474 6.75804 62.2851 7.36419 62.7523 8.15977C63.2196 8.94272 63.4532 9.88352 63.4532 10.9822C63.4532 11.0958 63.4469 11.2284 63.4343 11.38C63.4137 11.6059 63.2236 11.7778 62.9968 11.7778H55.9804C55.5044 11.7778 55.1186 11.3919 55.1186 10.9159C55.1186 10.4399 55.5044 10.054 55.9804 10.054H60.9074C61.1238 10.054 61.1872 10.3492 60.9898 10.438C60.8569 10.4978 60.7061 10.4004 60.6936 10.2552C60.6593 9.85323 60.5562 9.49573 60.3845 9.18266C60.1699 8.79118 59.8731 8.4881 59.4942 8.27342C59.1154 8.04612 58.6734 7.93246 58.1683 7.93246C57.6632 7.93246 57.2149 8.04612 56.8234 8.27342C56.4445 8.4881 56.1478 8.7975 55.9331 9.2016C55.7184 9.59307 55.6111 10.0603 55.6111 10.6033V11.0579C55.6111 11.6136 55.731 12.1061 55.971 12.5354C56.2235 12.9522 56.5708 13.2742 57.0128 13.5015C57.4674 13.7162 57.9978 13.8235 58.604 13.8235C59.147 13.8235 59.6205 13.7414 60.0246 13.5773C60.131 13.5354 60.2349 13.4881 60.3363 13.4355C60.8341 13.1774 61.4738 13.1775 61.8539 13.5897L62.1223 13.8807C62.4696 14.2573 62.4821 14.8463 62.0729 15.1544C61.7455 15.4008 61.3785 15.6075 60.9718 15.7746C60.2646 16.0524 59.45 16.1913 58.5282 16.1913Z" fill="#00275C"/>
<path d="M49.7209 16.1914C48.5213 16.1914 47.5868 15.8883 46.9175 15.2821C46.2482 14.6634 45.9135 13.7478 45.9135 12.5355V4.59473C45.9135 4.04244 46.3612 3.59473 46.9135 3.59473H47.8685C48.4208 3.59473 48.8685 4.04244 48.8685 4.59473V12.4976C48.8685 12.927 48.9822 13.2616 49.2095 13.5016C49.4368 13.7289 49.7462 13.8425 50.1377 13.8425C50.7736 13.8425 51.5592 14.0613 51.7861 14.6554L51.85 14.8229C52.0128 15.2493 51.8683 15.7442 51.442 15.9072C51.3112 15.9572 51.1732 16.0014 51.028 16.0398C50.6112 16.1409 50.1755 16.1914 49.7209 16.1914ZM45.3413 8.34925C44.789 8.34925 44.3413 7.90154 44.3413 7.34925V7.07617C44.3413 6.52389 44.789 6.07617 45.3413 6.07617H50.4068C50.9591 6.07617 51.4068 6.52389 51.4068 7.07617V7.34925C51.4068 7.90154 50.9591 8.34925 50.4068 8.34925H45.3413Z" fill="#00275C"/>
<path d="M35.0203 16.0396C34.1925 16.0396 33.7232 15.0914 34.2252 14.4332L37.0456 10.735C37.2069 10.5236 37.5445 10.6442 37.5352 10.91C37.5263 11.1673 37.1987 11.2701 37.0443 11.0642L34.3326 7.44863C33.8382 6.7894 34.3086 5.84863 35.1326 5.84863H35.9379C36.2581 5.84863 36.5588 6.00192 36.747 6.26094L38.862 9.17264C39.0111 9.37796 38.8695 9.66645 38.6159 9.67414C38.3518 9.68214 38.1951 9.38175 38.3528 9.16975L40.5233 6.2518C40.712 5.99813 41.0095 5.84863 41.3257 5.84863H41.9505C42.7777 5.84863 43.2472 6.79569 42.7464 7.45405L40.0537 10.994C39.8986 11.198 39.573 11.0883 39.573 10.832C39.573 10.5753 39.8992 10.4658 40.0541 10.6704L42.9051 14.436C43.4037 15.0947 42.9339 16.0396 42.1078 16.0396H41.2807C40.9579 16.0396 40.655 15.8838 40.4672 15.6212L38.2871 12.5719C38.1289 12.3506 38.3122 12.0474 38.5817 12.0847C38.8149 12.117 38.9283 12.3872 38.7881 12.5763L36.52 15.6352C36.3314 15.8896 36.0335 16.0396 35.7168 16.0396H35.0203Z" fill="#00275C"/>
<path d="M95.5086 26.0531C95.1445 26.0531 94.8204 25.9754 94.5362 25.82C94.2521 25.6601 94.0279 25.4426 93.8636 25.1673C93.6993 24.892 93.6172 24.579 93.6172 24.2283C93.6172 23.8731 93.6993 23.5601 93.8636 23.2893C94.0279 23.014 94.2521 22.7986 94.5362 22.6432C94.8204 22.4879 95.1445 22.4102 95.5086 22.4102C95.8771 22.4102 96.2034 22.4879 96.4876 22.6432C96.7762 22.7986 97.0004 23.0118 97.1602 23.2826C97.3245 23.5534 97.4066 23.8687 97.4066 24.2283C97.4066 24.579 97.3245 24.892 97.1602 25.1673C97.0004 25.4426 96.7762 25.6601 96.4876 25.82C96.2034 25.9754 95.8771 26.0531 95.5086 26.0531ZM95.5086 25.3405C95.7128 25.3405 95.8948 25.2961 96.0547 25.2073C96.2145 25.1185 96.3388 24.9897 96.4276 24.821C96.5209 24.6523 96.5675 24.4547 96.5675 24.2283C96.5675 23.9974 96.5209 23.7998 96.4276 23.6356C96.3388 23.4668 96.2145 23.3381 96.0547 23.2493C95.8948 23.1605 95.715 23.1161 95.5152 23.1161C95.311 23.1161 95.129 23.1605 94.9691 23.2493C94.8137 23.3381 94.6894 23.4668 94.5962 23.6356C94.5029 23.7998 94.4563 23.9974 94.4563 24.2283C94.4563 24.4547 94.5029 24.6523 94.5962 24.821C94.6894 24.9897 94.8137 25.1185 94.9691 25.2073C95.129 25.2961 95.3088 25.3405 95.5086 25.3405Z" fill="#666666"/>
<path d="M90.8431 26.0527C90.5012 26.0527 90.1926 25.9772 89.9174 25.8262C89.6465 25.6708 89.4334 25.4577 89.278 25.1869C89.1226 24.916 89.0449 24.5964 89.0449 24.2279C89.0449 23.8594 89.1226 23.5397 89.278 23.2689C89.4334 22.998 89.6465 22.7871 89.9174 22.6362C90.1926 22.4852 90.5012 22.4097 90.8431 22.4097C91.1405 22.4097 91.4069 22.4763 91.6422 22.6095C91.8776 22.7383 92.064 22.9359 92.2017 23.2023C92.3393 23.4686 92.4081 23.8105 92.4081 24.2279C92.4081 24.6408 92.3415 24.9826 92.2083 25.2535C92.0751 25.5199 91.8909 25.7197 91.6556 25.8529C91.4203 25.9861 91.1494 26.0527 90.8431 26.0527ZM90.943 25.3401C91.1428 25.3401 91.3204 25.2957 91.4758 25.2069C91.6356 25.1181 91.7621 24.9893 91.8554 24.8206C91.953 24.6519 92.0019 24.4543 92.0019 24.2279C92.0019 23.997 91.953 23.7994 91.8554 23.6351C91.7621 23.4664 91.6356 23.3377 91.4758 23.2489C91.3204 23.1601 91.1428 23.1157 90.943 23.1157C90.7432 23.1157 90.5634 23.1601 90.4035 23.2489C90.2481 23.3377 90.1216 23.4664 90.0239 23.6351C89.9307 23.7994 89.8841 23.997 89.8841 24.2279C89.8841 24.4543 89.9307 24.6519 90.0239 24.8206C90.1216 24.9893 90.2481 25.1181 90.4035 25.2069C90.5634 25.2957 90.7432 25.3401 90.943 25.3401ZM92.4181 26.006C92.1993 26.006 92.0219 25.8286 92.0219 25.6098V25.1669L92.0552 24.2212L91.9886 23.2755V21.4774C91.9886 21.2493 92.1734 21.0645 92.4015 21.0645C92.6295 21.0645 92.8144 21.2493 92.8144 21.4774V25.6098C92.8144 25.8286 92.637 26.006 92.4181 26.006Z" fill="#666666"/>
<path d="M86.2718 26.0527C85.9299 26.0527 85.6213 25.9772 85.3461 25.8262C85.0752 25.6708 84.8621 25.4577 84.7067 25.1869C84.5513 24.916 84.4736 24.5964 84.4736 24.2279C84.4736 23.8594 84.5513 23.5397 84.7067 23.2689C84.8621 22.998 85.0752 22.7871 85.3461 22.6362C85.6213 22.4852 85.9299 22.4097 86.2718 22.4097C86.5693 22.4097 86.8356 22.4763 87.071 22.6095C87.3063 22.7383 87.4928 22.9359 87.6304 23.2023C87.768 23.4686 87.8368 23.8105 87.8368 24.2279C87.8368 24.6408 87.7702 24.9826 87.637 25.2535C87.5038 25.5199 87.3196 25.7197 87.0843 25.8529C86.849 25.9861 86.5781 26.0527 86.2718 26.0527ZM86.3717 25.3401C86.5715 25.3401 86.7491 25.2957 86.9045 25.2069C87.0643 25.1181 87.1908 24.9893 87.2841 24.8206C87.3818 24.6519 87.4306 24.4543 87.4306 24.2279C87.4306 23.997 87.3818 23.7994 87.2841 23.6351C87.1908 23.4664 87.0643 23.3377 86.9045 23.2489C86.7491 23.1601 86.5715 23.1157 86.3717 23.1157C86.1719 23.1157 85.9921 23.1601 85.8322 23.2489C85.6768 23.3377 85.5503 23.4664 85.4526 23.6351C85.3594 23.7994 85.3128 23.997 85.3128 24.2279C85.3128 24.4543 85.3594 24.6519 85.4526 24.8206C85.5503 24.9893 85.6768 25.1181 85.8322 25.2069C85.9921 25.2957 86.1719 25.3401 86.3717 25.3401ZM87.8468 26.006C87.628 26.006 87.4506 25.8286 87.4506 25.6098V25.1669L87.4839 24.2212L87.4173 23.2755V21.4774C87.4173 21.2493 87.6021 21.0645 87.8302 21.0645C88.0582 21.0645 88.2431 21.2493 88.2431 21.4774V25.6098C88.2431 25.8286 88.0657 26.006 87.8468 26.006Z" fill="#666666"/>
<path d="M83.2575 26.0066C83.0276 26.0066 82.8412 25.8203 82.8412 25.5904V22.8665C82.8412 22.6366 83.0276 22.4503 83.2575 22.4503C83.4874 22.4503 83.6737 22.6366 83.6737 22.8665V25.5904C83.6737 25.8203 83.4874 26.0066 83.2575 26.0066ZM83.2608 21.8642C83.1054 21.8642 82.9767 21.8154 82.8745 21.7177C82.7769 21.62 82.728 21.5024 82.728 21.3647C82.728 21.2226 82.7769 21.105 82.8745 21.0118C82.9767 20.9141 83.1054 20.8652 83.2608 20.8652C83.4162 20.8652 83.5427 20.9119 83.6404 21.0051C83.7425 21.0939 83.7936 21.2071 83.7936 21.3447C83.7936 21.4913 83.7448 21.6156 83.6471 21.7177C83.5494 21.8154 83.4206 21.8642 83.2608 21.8642Z" fill="#666666"/>
<path d="M76.9735 26.0066C76.7454 26.0066 76.5605 25.8217 76.5605 25.5937V21.7996C76.5605 21.5484 76.7642 21.3447 77.0154 21.3447C77.1753 21.3447 77.3234 21.4287 77.4056 21.5659L79.2148 24.5872C79.2572 24.658 79.2062 24.7479 79.1238 24.7479C79.0417 24.7479 78.9907 24.6586 79.0323 24.5879L80.811 21.5682C80.8926 21.4297 81.0414 21.3447 81.2021 21.3447C81.4525 21.3447 81.6556 21.5475 81.656 21.7979L81.6614 25.5963C81.6617 25.8228 81.4782 26.0066 81.2517 26.0066C81.0257 26.0066 80.8424 25.8237 80.842 25.5977L80.8363 22.6928C80.8362 22.6582 80.8642 22.6301 80.8988 22.6301C80.9475 22.6301 80.9775 22.6831 80.9525 22.7248L79.4041 25.3075C79.3422 25.4107 79.2308 25.4738 79.1105 25.4738C78.991 25.4738 78.8802 25.4115 78.8181 25.3095L77.2531 22.7393C77.2239 22.6914 77.2584 22.6301 77.3145 22.6301C77.3542 22.6301 77.3864 22.6623 77.3864 22.7019V25.5937C77.3864 25.8217 77.2015 26.0066 76.9735 26.0066Z" fill="#666666"/>
<path d="M71.0832 27.3442C70.9101 27.3442 70.7369 27.3153 70.5637 27.2576C70.488 27.2323 70.4177 27.2028 70.353 27.1691C70.2132 27.0962 70.1842 26.9197 70.2595 26.7811L70.3016 26.7037C70.3844 26.5513 70.5901 26.5182 70.7502 26.585C70.8568 26.6294 70.9656 26.6516 71.0766 26.6516C71.2275 26.6516 71.3496 26.6138 71.4428 26.5383C71.5361 26.4629 71.6227 26.3363 71.7026 26.1587L71.8856 25.7455C71.9012 25.7103 71.9198 25.6764 71.9411 25.6444C71.9641 25.61 71.9838 25.5735 72.0001 25.5355L73.2259 22.6713C73.2835 22.5366 73.4159 22.4492 73.5625 22.4492C73.8259 22.4492 74.0031 22.7191 73.8984 22.9609L72.4551 26.2919C72.3441 26.5583 72.2198 26.7692 72.0822 26.9246C71.949 27.08 71.798 27.1888 71.6293 27.2509C71.465 27.3131 71.283 27.3442 71.0832 27.3442ZM72.3818 25.9434C72.1949 26.1458 71.8621 26.092 71.7484 25.8411L70.4629 23.0053C70.3447 22.7447 70.5352 22.4492 70.8213 22.4492C70.9766 22.4492 71.1173 22.5405 71.1807 22.6823L72.4505 25.5252C72.5134 25.6658 72.4863 25.8303 72.3818 25.9434Z" fill="#666666"/>
<path d="M68.2926 26.0527C67.9907 26.0527 67.7221 25.9861 67.4868 25.8529C67.2514 25.7197 67.065 25.5199 66.9273 25.2535C66.7941 24.9826 66.7275 24.6408 66.7275 24.2279C66.7275 23.8105 66.7964 23.4686 66.934 23.2023C67.0761 22.9359 67.2648 22.7383 67.5001 22.6095C67.7398 22.4763 68.004 22.4097 68.2926 22.4097C68.6433 22.4097 68.9519 22.4852 69.2183 22.6362C69.4891 22.7871 69.7023 22.998 69.8576 23.2689C70.0175 23.5397 70.0974 23.8594 70.0974 24.2279C70.0974 24.5964 70.0175 24.916 69.8576 25.1869C69.7023 25.4577 69.4891 25.6708 69.2183 25.8262C68.9519 25.9772 68.6433 26.0527 68.2926 26.0527ZM66.7175 26.006C66.4987 26.006 66.3213 25.8286 66.3213 25.6098V21.4807C66.3213 21.2508 66.5076 21.0645 66.7375 21.0645C66.9674 21.0645 67.1538 21.2508 67.1538 21.4807V23.2755L67.0872 24.2212L67.1138 25.1669V25.6098C67.1138 25.8286 66.9364 26.006 66.7175 26.006ZM68.1994 25.3401C68.3991 25.3401 68.5767 25.2957 68.7321 25.2069C68.892 25.1181 69.0185 24.9893 69.1118 24.8206C69.205 24.6519 69.2516 24.4543 69.2516 24.2279C69.2516 23.997 69.205 23.7994 69.1118 23.6351C69.0185 23.4664 68.892 23.3377 68.7321 23.2489C68.5767 23.1601 68.3991 23.1157 68.1994 23.1157C67.9996 23.1157 67.8197 23.1601 67.6599 23.2489C67.5001 23.3377 67.3735 23.4664 67.2803 23.6351C67.1871 23.7994 67.1404 23.997 67.1404 24.2279C67.1404 24.4543 67.1871 24.6519 67.2803 24.8206C67.3735 24.9893 67.5001 25.1181 67.6599 25.2069C67.8197 25.2957 67.9996 25.3401 68.1994 25.3401Z" fill="#666666"/>
<path d="M61.4144 26.0527C61.0725 26.0527 60.7639 25.9772 60.4886 25.8262C60.2178 25.6708 60.0047 25.4577 59.8493 25.1869C59.6939 24.916 59.6162 24.5964 59.6162 24.2279C59.6162 23.8594 59.6939 23.5397 59.8493 23.2689C60.0047 22.998 60.2178 22.7871 60.4886 22.6362C60.7639 22.4852 61.0725 22.4097 61.4144 22.4097C61.7118 22.4097 61.9782 22.4763 62.2135 22.6095C62.4488 22.7383 62.6353 22.9359 62.773 23.2023C62.9106 23.4686 62.9794 23.8105 62.9794 24.2279C62.9794 24.6408 62.9128 24.9826 62.7796 25.2535C62.6464 25.5199 62.4622 25.7197 62.2269 25.8529C61.9915 25.9861 61.7207 26.0527 61.4144 26.0527ZM61.5143 25.3401C61.7141 25.3401 61.8916 25.2957 62.047 25.2069C62.2069 25.1181 62.3334 24.9893 62.4266 24.8206C62.5243 24.6519 62.5732 24.4543 62.5732 24.2279C62.5732 23.997 62.5243 23.7994 62.4266 23.6351C62.3334 23.4664 62.2069 23.3377 62.047 23.2489C61.8916 23.1601 61.7141 23.1157 61.5143 23.1157C61.3145 23.1157 61.1346 23.1601 60.9748 23.2489C60.8194 23.3377 60.6929 23.4664 60.5952 23.6351C60.502 23.7994 60.4553 23.997 60.4553 24.2279C60.4553 24.4543 60.502 24.6519 60.5952 24.8206C60.6929 24.9893 60.8194 25.1181 60.9748 25.2069C61.1346 25.2957 61.3145 25.3401 61.5143 25.3401ZM62.9894 26.006C62.7706 26.006 62.5931 25.8286 62.5931 25.6098V25.1669L62.6264 24.2212L62.5598 23.2755V21.4774C62.5598 21.2493 62.7447 21.0645 62.9728 21.0645C63.2008 21.0645 63.3857 21.2493 63.3857 21.4774V25.6098C63.3857 25.8286 63.2083 26.006 62.9894 26.006Z" fill="#666666"/>
<path d="M57.4378 26.0531C57.0426 26.0531 56.6963 25.9754 56.3989 25.82C56.1058 25.6601 55.8772 25.4426 55.7129 25.1673C55.5531 24.892 55.4731 24.579 55.4731 24.2283C55.4731 23.8731 55.5508 23.5601 55.7062 23.2893C55.8661 23.014 56.0836 22.7986 56.3589 22.6432C56.6386 22.4879 56.9561 22.4102 57.3113 22.4102C57.6576 22.4102 57.9661 22.4856 58.237 22.6366C58.5078 22.7875 58.7209 23.0007 58.8763 23.2759C59.0317 23.5512 59.1094 23.8753 59.1094 24.2483C59.1094 24.2838 59.1072 24.3237 59.1027 24.3681C59.1027 24.4403 59.0415 24.4947 58.9693 24.4947H56.4088C56.2562 24.4947 56.1325 24.3709 56.1325 24.2183C56.1325 24.0657 56.2562 23.9419 56.4088 23.9419H58.3971C58.4644 23.9419 58.4868 24.032 58.4274 24.0635C58.3838 24.0866 58.3311 24.0543 58.3279 24.0051C58.3176 23.8457 58.2762 23.7025 58.2037 23.5756C58.1149 23.4202 57.9928 23.2981 57.8374 23.2093C57.6864 23.1205 57.511 23.0761 57.3113 23.0761C57.107 23.0761 56.9272 23.1205 56.7718 23.2093C56.6209 23.2981 56.501 23.4224 56.4122 23.5823C56.3278 23.7377 56.2856 23.9219 56.2856 24.135V24.2682C56.2856 24.4814 56.3345 24.6701 56.4322 24.8343C56.5298 24.9986 56.6675 25.1251 56.8451 25.2139C57.0227 25.3027 57.2269 25.3471 57.4578 25.3471C57.6576 25.3471 57.8374 25.3161 57.9972 25.2539C58.0407 25.237 58.0828 25.2175 58.1237 25.1953C58.3033 25.0979 58.5402 25.095 58.6744 25.2492C58.7865 25.3781 58.7895 25.5736 58.6551 25.6791C58.5396 25.7699 58.4091 25.8457 58.2636 25.9066C58.0239 26.0042 57.7486 26.0531 57.4378 26.0531Z" fill="#666666"/>
<path d="M53.4504 26.0065C53.2205 26.0065 53.0342 25.8201 53.0342 25.5902V22.8464C53.0342 22.6275 53.2116 22.4501 53.4304 22.4501H53.6926C53.7667 22.4501 53.8267 22.5101 53.8267 22.5842V23.1452C53.8267 23.1965 53.7547 23.2079 53.7388 23.1592C53.7354 23.1486 53.7359 23.1371 53.7406 23.127C53.8474 22.895 54.0115 22.7182 54.2329 22.5966C54.381 22.5169 54.5519 22.4627 54.7457 22.4341C54.9355 22.4061 55.0921 22.5657 55.0921 22.7576V23.107C55.0921 23.1556 55.0457 23.1901 54.9971 23.1894C54.9935 23.1893 54.9904 23.1891 54.9869 23.1886C54.9576 23.1847 54.9283 23.1827 54.8989 23.1827C54.5837 23.1827 54.3328 23.2759 54.1464 23.4624C53.9599 23.6444 53.8667 23.9175 53.8667 24.2816V25.5902C53.8667 25.8201 53.6803 26.0065 53.4504 26.0065Z" fill="#666666"/>
<path d="M50.5628 26.0531C50.1676 26.0531 49.8213 25.9754 49.5239 25.82C49.2308 25.6601 49.0022 25.4426 48.8379 25.1673C48.6781 24.892 48.5981 24.579 48.5981 24.2283C48.5981 23.8731 48.6758 23.5601 48.8312 23.2893C48.9911 23.014 49.2086 22.7986 49.4839 22.6432C49.7636 22.4879 50.0811 22.4102 50.4363 22.4102C50.7826 22.4102 51.0911 22.4856 51.362 22.6366C51.6328 22.7875 51.8459 23.0007 52.0013 23.2759C52.1567 23.5512 52.2344 23.8753 52.2344 24.2483C52.2344 24.2838 52.2322 24.3237 52.2277 24.3681C52.2277 24.4403 52.1665 24.4947 52.0943 24.4947H49.5338C49.3812 24.4947 49.2575 24.3709 49.2575 24.2183C49.2575 24.0657 49.3812 23.9419 49.5338 23.9419H51.5221C51.5894 23.9419 51.6118 24.032 51.5524 24.0635C51.5089 24.0866 51.4561 24.0543 51.4529 24.0051C51.4426 23.8457 51.4012 23.7025 51.3287 23.5756C51.2399 23.4202 51.1178 23.2981 50.9624 23.2093C50.8114 23.1205 50.636 23.0761 50.4363 23.0761C50.232 23.0761 50.0522 23.1205 49.8968 23.2093C49.7459 23.2981 49.626 23.4224 49.5372 23.5823C49.4528 23.7377 49.4106 23.9219 49.4106 24.135V24.2682C49.4106 24.4814 49.4595 24.6701 49.5572 24.8343C49.6548 24.9986 49.7925 25.1251 49.9701 25.2139C50.1477 25.3027 50.3519 25.3471 50.5828 25.3471C50.7826 25.3471 50.9624 25.3161 51.1222 25.2539C51.1657 25.237 51.2078 25.2175 51.2487 25.1953C51.4283 25.0979 51.6652 25.095 51.7994 25.2492C51.9115 25.3781 51.9145 25.5736 51.7801 25.6791C51.6646 25.7699 51.5341 25.8457 51.3886 25.9066C51.1489 26.0042 50.8736 26.0531 50.5628 26.0531Z" fill="#666666"/>
<path d="M44.0572 26.0056C43.8156 26.0056 43.5996 25.8548 43.5163 25.6279L42.5311 22.9436C42.443 22.7036 42.6206 22.4492 42.8762 22.4492C43.0317 22.4492 43.1703 22.547 43.2226 22.6934L44.1922 25.4118C44.2225 25.4967 44.1595 25.586 44.0693 25.586C43.9783 25.586 43.9153 25.4952 43.9472 25.4099L44.9317 22.7751C45.005 22.5791 45.1922 22.4492 45.4014 22.4492C45.6123 22.4492 45.8007 22.5812 45.8727 22.7795L46.8292 25.4142C46.8596 25.4977 46.7977 25.586 46.7088 25.586C46.6198 25.586 46.5579 25.4973 46.5886 25.4137L47.594 22.6763C47.6442 22.5399 47.7741 22.4492 47.9194 22.4492C48.1606 22.4492 48.3281 22.6895 48.2446 22.9158L47.2434 25.6298C47.16 25.8556 46.9448 26.0056 46.7042 26.0056C46.4644 26.0056 46.2499 25.8567 46.1659 25.6322L45.3096 23.3434C45.2888 23.2878 45.33 23.2284 45.3894 23.2284C45.4491 23.2284 45.4902 23.2882 45.469 23.3439L44.5955 25.6347C44.5104 25.858 44.2962 26.0056 44.0572 26.0056Z" fill="#666666"/>
<path d="M40.2727 26.0531C39.9087 26.0531 39.5846 25.9754 39.3004 25.82C39.0162 25.6601 38.792 25.4426 38.6278 25.1673C38.4635 24.892 38.3813 24.579 38.3813 24.2283C38.3813 23.8731 38.4635 23.5601 38.6278 23.2893C38.792 23.014 39.0162 22.7986 39.3004 22.6432C39.5846 22.4879 39.9087 22.4102 40.2727 22.4102C40.6412 22.4102 40.9676 22.4879 41.2517 22.6432C41.5403 22.7986 41.7645 23.0118 41.9244 23.2826C42.0886 23.5534 42.1708 23.8687 42.1708 24.2283C42.1708 24.579 42.0886 24.892 41.9244 25.1673C41.7645 25.4426 41.5403 25.6601 41.2517 25.82C40.9676 25.9754 40.6412 26.0531 40.2727 26.0531ZM40.2727 25.3405C40.477 25.3405 40.659 25.2961 40.8188 25.2073C40.9787 25.1185 41.103 24.9897 41.1918 24.821C41.285 24.6523 41.3316 24.4547 41.3316 24.2283C41.3316 23.9974 41.285 23.7998 41.1918 23.6356C41.103 23.4668 40.9787 23.3381 40.8188 23.2493C40.659 23.1605 40.4792 23.1161 40.2794 23.1161C40.0752 23.1161 39.8931 23.1605 39.7333 23.2493C39.5779 23.3381 39.4536 23.4668 39.3603 23.6356C39.2671 23.7998 39.2205 23.9974 39.2205 24.2283C39.2205 24.4547 39.2671 24.6523 39.3603 24.821C39.4536 24.9897 39.5779 25.1185 39.7333 25.2073C39.8931 25.2961 40.0729 25.3405 40.2727 25.3405Z" fill="#666666"/>
<path d="M34.4329 26.0066C34.1938 26.0066 34 25.8128 34 25.5737V22.3447C34 21.7924 34.4477 21.3447 35 21.3447H35.918C36.3309 21.3447 36.6839 21.4113 36.9769 21.5445C37.2744 21.6777 37.5031 21.8686 37.6629 22.1173C37.8227 22.3659 37.9026 22.6611 37.9026 23.003C37.9026 23.3449 37.8227 23.6401 37.6629 23.8888C37.5031 24.1374 37.2744 24.3283 36.9769 24.4615C36.6839 24.5947 36.3309 24.6613 35.918 24.6613H34.7498C34.6479 24.6613 34.5955 24.5393 34.6658 24.4654C34.7379 24.3895 34.8658 24.4406 34.8658 24.5453V25.5737C34.8658 25.8128 34.672 26.0066 34.4329 26.0066ZM34.8658 24.0465C34.8658 24.1538 34.734 24.2052 34.6614 24.1263C34.5919 24.0508 34.6454 23.9287 34.748 23.9287H35.8781C36.2599 23.9287 36.5463 23.8488 36.7372 23.689C36.9325 23.5247 37.0302 23.2961 37.0302 23.003C37.0302 22.7055 36.9325 22.4769 36.7372 22.3171C36.5463 22.1572 36.2599 22.0773 35.8781 22.0773H34.7471C34.6442 22.0773 34.5901 21.9553 34.6592 21.879C34.7321 21.7986 34.8658 21.8501 34.8658 21.9587V24.0465Z" fill="#666666"/>
<defs>
<linearGradient id="paint0_linear_7582_26813" x1="15.73" y1="5.00781" x2="15.73" y2="30.0078" gradientUnits="userSpaceOnUse">
<stop stop-color="#3D88ED"/>
<stop offset="1" stop-color="#096AEC"/>
</linearGradient>
</defs>
</svg>
