<svg width="224" height="153" viewBox="0 0 224 153" fill="none" xmlns="http://www.w3.org/2000/svg">
<mask id="mask0_1081_2554" style="mask-type:luminance" maskUnits="userSpaceOnUse" x="0" y="0" width="224" height="153">
<path d="M199.518 145.407C193.116 147.457 185.32 148.013 179.127 147.586C179.127 147.586 65.272 158.557 24.117 147.308C-6.34308 138.983 -2.66571 109.344 6.6555 90.3737C16.0834 71.1868 -8.66375 34.0992 31.1175 12.5925C53.9995 0.223129 74.5232 20.0183 114.08 5.40447C149.794 -7.7893 195.862 4.01226 207.128 31.6826C214.878 50.7179 205.108 71.2379 214.878 81.1835C230.722 97.3142 223.437 137.744 199.518 145.407Z" fill="white"/>
</mask>
<g mask="url(#mask0_1081_2554)">
<path d="M199.518 145.407C193.116 147.457 185.32 148.013 179.127 147.586C179.127 147.586 65.272 158.557 24.117 147.308C-6.34308 138.983 -2.66571 109.344 6.6555 90.3737C16.0834 71.1868 -8.66375 34.0992 31.1175 12.5925C53.9995 0.223129 74.5232 20.0183 114.08 5.40447C149.794 -7.7893 195.862 4.01226 207.128 31.6826C214.878 50.7179 205.108 71.2379 214.878 81.1835C230.722 97.3142 223.437 137.744 199.518 145.407Z" fill="#C5DCFA"/>
<path d="M94.5181 151.542C94.5091 151.542 94.501 151.542 94.4921 151.541C94.4212 151.527 94.3746 151.46 94.3881 151.389C97.8161 132.922 101.332 119.765 104.288 114.34C104.353 114.22 104.401 114.133 104.418 114.09C104.444 114.023 104.52 113.99 104.586 114.016C104.653 114.042 104.686 114.119 104.66 114.185C104.636 114.243 104.592 114.327 104.516 114.465C101.573 119.865 98.0672 132.995 94.6445 151.437C94.6329 151.499 94.5799 151.542 94.519 151.543L94.5181 151.542Z" fill="#8BB7F4"/>
<path d="M106.63 113.154C106.277 113.765 104.301 115.032 104.126 114.93C103.951 114.829 104.065 112.484 104.418 111.873C104.771 111.262 105.553 111.053 106.164 111.407C106.775 111.76 106.984 112.542 106.63 113.153V113.154Z" fill="#8BB7F4"/>
<path d="M102.784 115.314C103.065 115.98 102.883 118.374 102.692 118.455C102.502 118.536 100.657 116.999 100.376 116.333C100.095 115.668 100.406 114.901 101.071 114.619C101.737 114.338 102.503 114.649 102.785 115.314H102.784Z" fill="#8BB7F4"/>
<path d="M105.721 119.147C105.01 119.272 102.719 118.555 102.683 118.351C102.647 118.148 104.56 116.695 105.271 116.57C105.982 116.446 106.66 116.922 106.784 117.633C106.908 118.345 106.432 119.023 105.721 119.147V119.147Z" fill="#8BB7F4"/>
<path d="M97.9355 127.834C98.5255 128.894 98.6528 132.923 98.3506 133.092C98.0484 133.261 94.6912 131.031 94.1012 129.971C93.5111 128.912 93.8913 127.575 94.9503 126.985C96.0094 126.395 97.3454 126.775 97.9355 127.834Z" fill="#8BB7F4"/>
<path d="M103.532 133.7C102.368 134.037 98.4147 133.253 98.3187 132.922C98.2228 132.589 101.15 129.819 102.314 129.482C103.479 129.146 104.695 129.818 105.031 130.982C105.368 132.146 104.696 133.364 103.532 133.7Z" fill="#8BB7F4"/>
<path d="M95.29 132.648C96.279 133.753 97.5165 138.529 97.2017 138.812C96.8861 139.094 92.2779 137.337 91.2889 136.232C90.2998 135.127 90.394 133.428 91.4987 132.438C92.6034 131.449 94.3009 131.543 95.2909 132.648H95.29Z" fill="#8BB7F4"/>
<path d="M103.208 140.259C101.748 140.522 97.0354 139.072 96.9601 138.655C96.8847 138.237 100.798 135.234 102.257 134.971C103.717 134.708 105.113 135.679 105.376 137.139C105.638 138.6 104.668 139.997 103.208 140.259Z" fill="#8BB7F4"/>
<path d="M93.9863 138.69C94.9753 139.795 96.2128 144.571 95.898 144.853C95.5824 145.136 90.9742 143.378 89.9852 142.273C88.9961 141.168 89.0903 139.47 90.195 138.48C91.2997 137.49 92.9972 137.584 93.9871 138.69H93.9863Z" fill="#8BB7F4"/>
<path d="M101.905 146.302C100.445 146.565 95.7317 145.114 95.6563 144.697C95.581 144.28 99.4942 141.277 100.953 141.014C102.413 140.751 103.809 141.722 104.072 143.182C104.335 144.642 103.364 146.039 101.905 146.302Z" fill="#8BB7F4"/>
<path d="M90.5341 146.48C91.8693 147.125 94.832 151.07 94.6481 151.451C94.4643 151.832 89.5342 151.964 88.1982 151.318C86.863 150.673 86.3025 149.067 86.9473 147.731C87.592 146.395 89.198 145.835 90.5332 146.48L90.5341 146.48Z" fill="#8BB7F4"/>
<path d="M100.817 152.256C99.4022 152.7 94.5438 151.85 94.4174 151.446C94.291 151.041 97.7971 147.572 99.213 147.129C100.628 146.686 102.135 147.474 102.578 148.89C103.021 150.305 102.233 151.812 100.818 152.256H100.817Z" fill="#8BB7F4"/>
<path d="M101.293 119.21C101.579 119.886 101.393 122.319 101.199 122.401C101.007 122.483 99.1316 120.922 98.8456 120.245C98.5595 119.57 98.8761 118.789 99.5513 118.504C100.227 118.218 101.007 118.535 101.292 119.21H101.293Z" fill="#8BB7F4"/>
<path d="M104.188 123.16C103.465 123.286 101.137 122.557 101.101 122.351C101.065 122.144 103.007 120.668 103.73 120.542C104.453 120.416 105.141 120.899 105.267 121.622C105.394 122.345 104.91 123.033 104.188 123.16Z" fill="#8BB7F4"/>
<path d="M99.5048 122.873C99.9882 123.797 100.009 127.264 99.7452 127.401C99.4815 127.539 96.6453 125.548 96.161 124.624C95.6777 123.7 96.0337 122.56 96.9573 122.075C97.8809 121.592 99.0206 121.949 99.5048 122.872V122.873Z" fill="#8BB7F4"/>
<path d="M104.087 128.437C103.06 128.617 99.753 127.581 99.7019 127.288C99.6508 126.995 102.411 124.897 103.437 124.718C104.463 124.539 105.441 125.226 105.621 126.252C105.8 127.279 105.113 128.257 104.087 128.437Z" fill="#8BB7F4"/>
<path d="M61.6895 159.487C61.7048 159.489 61.7209 159.489 61.7371 159.487C61.8662 159.475 61.9603 159.359 61.9478 159.23C58.5816 125.497 54.2523 101.3 49.7589 91.0966C49.6594 90.8696 49.5868 90.7064 49.5634 90.6265C49.5258 90.5018 49.3949 90.4319 49.2711 90.4687C49.1465 90.5063 49.0765 90.6364 49.1133 90.7611C49.1456 90.8696 49.2146 91.0266 49.3294 91.2868C53.8039 101.445 58.1198 125.592 61.4806 159.277C61.4923 159.39 61.5819 159.476 61.6904 159.487H61.6895Z" fill="#8BB7F4"/>
<path d="M45.7214 88.6092C46.2648 89.7619 49.6265 92.3391 49.9556 92.184C50.2847 92.0288 50.4372 87.7938 49.8938 86.642C49.3504 85.4893 47.9766 84.9959 46.8243 85.5386C45.6721 86.0822 45.1789 87.4565 45.7214 88.6092Z" fill="#8BB7F4"/>
<path d="M52.313 93.0773C51.7059 94.2309 51.6719 98.5663 52.0019 98.7395C52.3309 98.9126 55.8828 96.4296 56.4898 95.276C57.0969 94.1224 56.6539 92.6952 55.5008 92.0879C54.3476 91.4805 52.921 91.9237 52.3139 93.0773H52.313Z" fill="#8BB7F4"/>
<path d="M46.4491 99.5263C47.7089 99.8582 51.9387 98.9154 52.0337 98.5548C52.1288 98.195 48.9096 95.2922 47.6497 94.9603C46.389 94.6284 45.0986 95.3819 44.7677 96.6422C44.436 97.9035 45.1892 99.1943 46.45 99.5254L46.4491 99.5263Z" fill="#8BB7F4"/>
<path d="M59.1341 116.331C57.9128 118.146 57.0726 125.374 57.59 125.723C58.1083 126.072 64.4848 122.57 65.7061 120.755C66.9274 118.939 66.4458 116.478 64.6309 115.256C62.816 114.034 60.3555 114.516 59.1341 116.331Z" fill="#8BB7F4"/>
<path d="M48.1826 126.031C50.2253 126.813 57.4545 126.004 57.6769 125.421C57.9002 124.838 53.0544 119.411 51.0108 118.63C48.9672 117.848 46.678 118.872 45.8969 120.915C45.1159 122.959 46.139 125.25 48.1817 126.031H48.1826Z" fill="#8BB7F4"/>
<path d="M63.1634 125.388C61.2166 127.226 58.2674 135.628 58.792 136.183C59.3165 136.739 67.8711 134.278 69.8178 132.44C71.7645 130.602 71.8533 127.533 70.016 125.585C68.1786 123.638 65.111 123.549 63.1643 125.387L63.1634 125.388Z" fill="#8BB7F4"/>
<path d="M47.7697 137.878C50.3549 138.572 59.052 136.677 59.2502 135.939C59.4483 135.201 52.8666 129.206 50.2814 128.512C47.6962 127.817 45.0375 129.351 44.3443 131.938C43.6512 134.525 45.1845 137.184 47.7697 137.878Z" fill="#8BB7F4"/>
<path d="M64.5928 136.453C62.6461 138.291 59.6968 146.693 60.2205 147.248C60.745 147.804 69.2996 145.343 71.2463 143.505C73.1931 141.667 73.2818 138.598 71.4445 136.651C69.6071 134.703 66.5395 134.614 64.5928 136.452V136.453Z" fill="#8BB7F4"/>
<path d="M49.1987 148.943C51.7839 149.637 60.4819 147.743 60.6792 147.004C60.8774 146.266 54.2956 140.271 51.7104 139.577C49.1252 138.882 46.4674 140.417 45.7733 143.003C45.0793 145.59 46.6135 148.248 49.1987 148.943Z" fill="#8BB7F4"/>
<path d="M69.621 150.988C67.1209 151.946 61.1946 158.59 61.4681 159.304C61.7416 160.018 70.5885 161.002 73.0876 160.044C75.5876 159.086 76.8376 156.282 75.8799 153.781C74.9222 151.28 72.1201 150.03 69.6201 150.988H69.621Z" fill="#8BB7F4"/>
<path d="M50.251 159.816C52.7295 160.828 61.5952 160.036 61.8839 159.329C62.1727 158.621 56.3916 151.85 53.9141 150.838C51.4356 149.826 48.6065 151.016 47.595 153.495C46.5835 155.975 47.7726 158.805 50.251 159.817V159.816Z" fill="#8BB7F4"/>
<path d="M54.4053 100.311C53.7883 101.484 53.7543 105.888 54.0887 106.064C54.4232 106.24 58.0324 103.717 58.6484 102.545C59.2654 101.372 58.8152 99.9227 57.6432 99.3055C56.4713 98.6892 55.0222 99.1386 54.4053 100.311Z" fill="#8BB7F4"/>
<path d="M48.5993 106.975C49.8798 107.312 54.1768 106.354 54.2737 105.989C54.3696 105.623 51.1002 102.673 49.8198 102.337C48.5393 101.999 47.2283 102.765 46.8911 104.046C46.554 105.327 47.3189 106.639 48.5993 106.976V106.975Z" fill="#8BB7F4"/>
<path d="M57.0659 107.169C56.0562 108.757 55.4948 114.99 55.9477 115.278C56.4005 115.566 61.8049 112.414 62.8137 110.826C63.8234 109.239 63.3544 107.132 61.7673 106.123C60.1801 105.113 58.0756 105.582 57.0659 107.17V107.169Z" fill="#8BB7F4"/>
<path d="M47.9808 116.481C49.8002 116.96 55.905 115.599 56.0422 115.079C56.1785 114.56 51.5335 110.37 49.7141 109.891C47.8947 109.412 46.0323 110.499 45.5534 112.319C45.0746 114.139 46.1614 116.002 47.9808 116.481Z" fill="#8BB7F4"/>
<path d="M154.153 102.9V208.733C152.878 208.738 151.604 208.74 150.334 208.742C149.685 208.742 149.038 208.742 148.391 208.74C147.648 208.74 146.905 208.738 146.162 208.735V102.9H154.153Z" fill="#102665"/>
<path d="M200.774 102.9H145.146V70.9517C145.146 55.5844 157.599 43.1271 172.96 43.1271C188.322 43.1271 200.774 55.5844 200.774 70.9517V102.9Z" fill="#FF6760"/>
<path d="M129.327 43.1271H174.658V79.3579H134.863L129.327 43.1271Z" fill="#FF6760"/>
<path d="M129.327 43.1271C144.678 43.1271 157.141 55.5951 157.141 70.9517V102.9H101.513V70.9517C101.513 55.5951 113.976 43.1271 129.327 43.1271H129.327Z" fill="#E33A3A"/>
<path d="M129.328 46.3439C143.027 46.3439 154.148 57.47 154.148 71.1741V99.6841H104.508V71.1741C104.508 57.47 115.63 46.3439 129.329 46.3439H129.328Z" fill="#BD0615"/>
<path d="M159.585 99.6832H67.0342V102.9H159.585V99.6832Z" fill="#FF6760"/>
<path d="M82.1535 37.3959C82.1535 37.3959 81.029 42.5404 81.7464 44.1955C82.4628 45.8505 85.1682 50.3806 85.2812 52.3057C85.3161 52.9049 85.2668 57.5803 84.3378 58.4603C83.7092 59.056 81.6558 57.8342 81.6361 55.4561C81.602 51.3225 79.8229 49.3517 78.7505 47.8752C76.9212 45.3572 76.0604 43.7954 76.385 45.167C76.385 45.167 78.0008 49.2297 78.2842 51.1117C78.3604 51.6204 78.2708 55.7001 77.3149 56.3245C76.7984 56.6627 74.7718 56.1881 74.5521 52.5174C74.4078 50.1052 72.7282 48.9418 71.3688 47.607C70.1924 46.4516 65.3018 44.0268 65.3018 44.0268L69.597 38.5127L82.1526 37.3959H82.1535Z" fill="#DB7665"/>
<path d="M87.5613 43.8806C87.5613 43.8806 91.9821 50.3842 92.9496 53.2798C93.3379 54.4415 94.2507 58.3679 93.4634 59.2999C92.1641 60.8375 89.5987 58.5222 88.8248 54.9026C88.0572 51.3108 83.8634 49.4423 81.5804 47.5405C75.9033 42.8122 72.4824 39.9677 72.4824 39.9677L87.5622 43.8815L87.5613 43.8806Z" fill="#EA8F7D"/>
<path d="M98.0574 47.2204C97.1365 46.1556 90.0866 39.286 88.6932 38.2625C85.2543 35.7328 71.5608 29.0713 69.0007 27.9886C64.2796 25.9908 52.6081 28.5124 44.3531 29.048C44.3029 29.0596 39.97 29.3862 34.9135 28.9628C33.4483 28.8435 31.949 28.6649 30.6022 28.4559C27.635 34.1217 25.534 39.3963 24.0957 44.3337C24.2051 46.2175 24.3378 48.0349 24.4956 49.7895C26.4298 49.8173 31.3124 49.8918 33.2277 50.1178C34.7799 50.2999 37.1337 50.2587 39.2275 50.8561H39.2293C39.2293 50.8561 39.2311 50.8561 39.232 50.8561H39.2338C40.6497 51.2607 41.9436 51.9559 42.7919 53.2109C44.4463 55.6526 49.415 58.4774 52.0513 59.8068C56.3303 61.9894 59.8687 63.178 59.9252 63.1995C63.0995 64.3459 67.6673 67.0056 70.0732 68.9639C70.778 69.5533 72.6485 71.0675 73.5918 71.7555C74.1325 72.1538 75.5404 73.1764 76.2048 73.2096C76.9374 73.2473 78.0206 71.1276 78.1121 69.8941C78.1363 69.5515 78.0673 69.137 77.983 68.8078C77.436 66.4288 74.4293 63.7216 72.5759 62.1239C70.8372 60.6088 68.6833 59.0937 66.8944 56.7291C65.8165 55.2633 65.1924 53.9733 64.8077 52.0303C64.4993 50.4641 64.4374 48.8324 65.9412 46.9557C66.1223 46.7315 66.6415 45.9789 67.462 45.15C67.6306 45.1114 71.0398 40.8217 76.186 43.1065C77.9023 43.8735 79.997 44.0942 81.846 44.4225C81.846 44.4225 81.8469 44.4225 81.8478 44.4225C83.7604 44.7625 85.5054 45.2271 86.585 46.5377C87.7758 47.9829 89.511 49.1732 91.0605 50.2605C91.8254 50.7969 91.7931 50.779 91.802 50.7816H91.8029C93.2538 51.8097 94.7594 52.9373 96.1367 54.3788C99.4966 57.8934 102.053 56.9399 102.509 54.9834C102.753 53.9267 98.7667 48.0403 98.0574 47.2204Z" fill="#F9A58F"/>
<path d="M137.705 65.0106L122.761 97.3375L67.2812 71.6711L82.2248 39.3442L99.8728 68.6167L104.423 70.7221L137.705 65.0106Z" fill="#F0F6FC"/>
<path d="M112.573 92.7356L105.091 64.0588L74.3041 75.0449L74.1982 74.7471L105.309 63.6453L112.879 92.6549L112.573 92.7356Z" fill="#333333"/>
<path d="M102.344 71.4873C101.121 71.4792 99.9641 70.8235 99.34 69.7389L81.9512 39.5022L82.4991 39.1864L99.8879 69.4232C100.484 70.4611 101.677 71.019 102.856 70.8118L137.651 64.6984L137.76 65.3219L102.965 71.4353C102.758 71.4711 102.55 71.4891 102.344 71.4873Z" fill="#333333"/>
<path d="M82.2246 39.3442L137.705 65.0106L102.912 71.123C101.598 71.3536 100.28 70.7373 99.6143 69.581L82.2246 39.3442Z" fill="#F0F6FC"/>
<path d="M100.916 66.0395C100.923 64.9039 101.697 63.1968 102.832 63.2049C103.968 63.212 105.829 64.4616 105.821 65.5973C105.814 66.7329 104.49 67.9619 103.355 67.9538C102.22 67.9467 100.909 67.1752 100.916 66.0395Z" fill="#3D87ED"/>
<path d="M32.2688 26.8286L44.4092 29.0587L39.2407 50.8569L27.9404 50.7116L32.2688 26.8286Z" fill="white"/>
<path d="M0.121299 15.7483C0.781271 17.1235 -3.33011 23.3705 -3.36687 31.4305C-3.40812 40.4754 0.58041 51.3665 0.606414 51.6248C4.27034 51.5737 30.263 51.179 30.263 51.179L30.3554 50.743V50.7403L30.5231 49.9384V49.9366H30.5222L34.9142 28.9636V28.9618L34.9151 28.9609L35.2469 27.374L35.55 25.9289L0.121299 15.7483Z" fill="#3D87ED"/>
<path d="M35.5505 48.112C35.1317 47.8841 34.6072 48.0393 34.3794 48.4582C34.1516 48.8772 34.3068 49.4019 34.7255 49.6298C35.1443 49.8576 35.6689 49.7025 35.8966 49.2835C36.1244 48.8646 35.9693 48.3398 35.5505 48.112Z" fill="#0B0755"/>
<path d="M58.6023 62.7123C58.6624 62.7347 58.7224 62.7589 58.7825 62.7814C58.8632 62.8119 58.9448 62.8424 59.0264 62.872C59.2694 62.9626 59.5115 63.0496 59.7519 63.1357C59.8101 63.1563 59.8684 63.177 59.9267 63.1994C60.1016 63.2622 60.2773 63.3295 60.4549 63.4003C60.5131 63.4227 60.5723 63.4461 60.6315 63.4703C60.6898 63.4927 60.749 63.5169 60.8082 63.542C61.0449 63.6389 61.2825 63.7412 61.5192 63.8461C61.6376 63.8982 61.756 63.952 61.8743 64.0058C61.9326 64.0327 61.9927 64.0605 62.0519 64.0875C62.1694 64.1422 62.2868 64.1978 62.4043 64.2552C62.6545 64.3745 62.9038 64.4974 63.1503 64.6221C63.2239 64.6589 63.2956 64.6957 63.3682 64.7333C63.4552 64.7773 63.5413 64.8221 63.6274 64.867C63.7422 64.928 63.8569 64.9872 63.969 65.0473C64.3654 65.259 64.7545 65.4734 65.1303 65.6887C65.2101 65.7344 65.2899 65.7802 65.3688 65.8259C65.5006 65.9022 65.6315 65.9784 65.7606 66.0547C65.827 66.0941 65.8943 66.1336 65.9597 66.1731C66.1973 66.3148 66.4287 66.4539 66.6502 66.5911C66.7443 66.6494 66.8376 66.7068 66.929 66.7642C67.1129 66.8782 67.2904 66.9912 67.4599 67.0997C67.5451 67.1545 67.6276 67.2074 67.7083 67.2603C68.0141 67.4595 68.2938 67.6451 68.5413 67.8147C68.5718 67.8362 68.6032 67.8577 68.6337 67.8775C68.6642 67.8981 68.6938 67.9178 68.7216 67.9376C68.7511 67.9582 68.7789 67.978 68.8076 67.9977C68.8363 68.0165 68.8641 68.0363 68.8901 68.0551C68.9403 68.0901 68.9888 68.1242 69.0363 68.1574C69.0901 68.195 69.1403 68.2318 69.1887 68.2668C69.3035 68.3502 69.4479 68.4615 69.6165 68.596C69.6703 68.6382 69.7259 68.683 69.785 68.7297C69.8747 68.8032 69.9707 68.8795 70.072 68.962C70.1052 68.9898 70.1401 69.0167 70.1742 69.0454C70.6925 69.4688 71.3247 69.9891 71.9864 70.5175C72.0743 70.5875 72.164 70.6583 72.2519 70.7283C72.4303 70.87 72.6105 71.0109 72.789 71.149C72.85 71.1957 72.9091 71.2414 72.9692 71.2872C73.0284 71.3329 73.0885 71.3787 73.1486 71.4235C73.2077 71.4684 73.2669 71.5132 73.3261 71.5572C73.4149 71.6236 73.5028 71.6899 73.5906 71.7536C73.6346 71.7859 73.6785 71.8182 73.7225 71.8487C74.0273 72.0703 74.3223 72.2766 74.6012 72.4578C74.6416 72.4829 74.681 72.508 74.7205 72.5341C74.7599 72.5592 74.7985 72.5834 74.8362 72.6067C74.8747 72.6309 74.9124 72.6534 74.9491 72.6758C75.0245 72.7215 75.098 72.7646 75.1688 72.8041C75.2397 72.8444 75.3087 72.8821 75.3769 72.9171C75.41 72.935 75.4432 72.9521 75.4764 72.9673C75.5984 73.0274 75.7131 73.0795 75.818 73.1171C75.8351 73.1234 75.853 73.1297 75.8692 73.1351C75.8862 73.1414 75.9032 73.1467 75.9194 73.1521C76.0261 73.1844 76.1202 73.2041 76.2036 73.2077C76.2216 73.2086 76.2404 73.2077 76.2592 73.2077C76.2781 73.2059 76.2969 73.2024 76.3166 73.1979C76.3399 73.1925 76.365 73.1853 76.3892 73.1754C76.4036 73.1701 76.4179 73.1647 76.4314 73.1575C76.4421 73.1521 76.4529 73.1467 76.4646 73.1405C76.4717 73.1369 76.478 73.1342 76.4852 73.1288C76.4942 73.1243 76.504 73.1189 76.5121 73.1126C76.5991 73.0597 76.687 72.9871 76.7766 72.8965C76.7901 72.8839 76.8035 72.8695 76.8161 72.8552C76.8421 72.8274 76.869 72.7978 76.8959 72.7673C76.9084 72.752 76.9219 72.7359 76.9353 72.7206C76.9748 72.6731 77.0151 72.622 77.0546 72.5681C77.0806 72.5332 77.1066 72.4955 77.1326 72.4578C77.1586 72.4201 77.1837 72.3816 77.2088 72.3421L77.2465 72.282C77.2716 72.2416 77.2967 72.2004 77.3227 72.1582C77.4267 71.9797 77.5272 71.7868 77.6177 71.5868C77.6339 71.5509 77.65 71.5159 77.6653 71.48C77.7486 71.2916 77.8231 71.097 77.8867 70.905C77.9029 70.8575 77.9181 70.809 77.9325 70.7615C77.9621 70.6664 77.9881 70.5722 78.0105 70.4798C78.0159 70.4574 78.0221 70.4332 78.0275 70.4107C78.0598 70.2726 78.084 70.1389 78.0984 70.0116C78.1028 69.9712 78.1073 69.9299 78.11 69.8914C78.1127 69.851 78.1145 69.8106 78.1154 69.772C78.1154 69.7532 78.1154 69.7344 78.1154 69.7155C78.1154 69.6779 78.1136 69.6411 78.1118 69.6052C78.0939 69.3397 78.0499 69.0732 77.9809 68.805C77.9755 68.7826 77.9701 68.7611 77.9639 68.7395C77.9567 68.7108 77.9486 68.683 77.9396 68.6543V68.6498C77.9298 68.6175 77.919 68.5853 77.9092 68.553C77.9002 68.5269 77.893 68.5 77.8831 68.4731C77.8338 68.3224 77.7764 68.1717 77.7119 68.0201C77.6975 67.9842 77.6823 67.9492 77.6661 67.9143C77.65 67.8766 77.6321 67.8389 77.6141 67.8012C77.5971 67.7627 77.5783 67.7259 77.5594 67.6882C77.4671 67.4989 77.3613 67.3079 77.2456 67.1159C77.2232 67.0773 77.199 67.0378 77.1748 66.9993C77.1263 66.9212 77.077 66.8432 77.0241 66.7651C76.8519 66.5077 76.6609 66.2449 76.4493 65.9784C76.4206 65.9417 76.3919 65.9067 76.3632 65.8699C76.2754 65.7604 76.1848 65.6501 76.0889 65.5398C76.053 65.4967 76.0171 65.4546 75.9795 65.4124C75.897 65.3164 75.8109 65.2204 75.7239 65.1235C75.68 65.0751 75.6351 65.0267 75.5903 64.9773C75.5455 64.928 75.4997 64.8796 75.4531 64.8302C75.2442 64.6068 75.0227 64.3808 74.7895 64.1494C74.785 64.1458 74.7806 64.1422 74.7779 64.1386C74.3107 63.6766 73.796 63.1976 73.2329 62.6979C73.119 62.5975 73.0042 62.4952 72.8867 62.3938C72.7854 62.3032 72.6796 62.2135 72.5738 62.1211C72.5137 62.0691 72.4527 62.0162 72.3909 61.9632C71.8923 61.5371 71.3641 61.0958 70.8028 60.6374C70.7373 60.5836 70.6719 60.5307 70.6082 60.4768C70.5445 60.4248 70.4818 60.3719 70.4199 60.3199C70.3571 60.2669 70.2953 60.2149 70.2352 60.1638C70.1742 60.1117 70.1141 60.0606 70.0549 60.0086C69.8756 59.8543 69.7025 59.7018 69.5367 59.552C69.4811 59.5017 69.4264 59.4524 69.3735 59.4031C69.1018 59.1555 68.848 58.9124 68.6095 58.6756C68.5619 58.628 68.5144 58.5805 68.4687 58.5329C68.4274 58.4917 68.388 58.4504 68.3485 58.41C68.3171 58.3786 68.2858 58.3464 68.2562 58.3141C67.8491 57.8907 67.4904 57.4825 67.1747 57.0878C67.129 57.0304 67.0833 56.973 67.0384 56.9156C67.0322 56.9084 67.0259 56.9003 67.0214 56.8931C66.9784 56.8366 66.9353 56.781 66.8932 56.7254C66.877 56.703 66.8609 56.6823 66.8448 56.6599C66.7605 56.546 66.6798 56.4329 66.6009 56.3208C66.5542 56.2544 66.5094 56.189 66.4655 56.1226C66.4269 56.0643 66.3901 56.0069 66.3525 55.9485C66.3444 55.9369 66.3372 55.9252 66.3301 55.9136C66.3014 55.8696 66.2745 55.8257 66.2476 55.7817C66.2135 55.7261 66.1794 55.6705 66.1471 55.6157C66.1301 55.587 66.1148 55.5592 66.0978 55.5305L58.084 56.1629L58.5996 62.7087L58.6023 62.7123Z" fill="#F9A58F"/>
</g>
</svg>
